<?xml version="1.0" encoding="UTF-8" standalone="no"?>
<svg
        xmlns:dc="http://purl.org/dc/elements/1.1/"
        xmlns:cc="http://creativecommons.org/ns#"
        xmlns:rdf="http://www.w3.org/1999/02/22-rdf-syntax-ns#"
        xmlns:svg="http://www.w3.org/2000/svg"
        xmlns:sodipodi="http://sodipodi.sourceforge.net/DTD/sodipodi-0.dtd"
        xmlns:inkscape="http://www.inkscape.org/namespaces/inkscape"
        xmlns="http://www.w3.org/2000/svg"
        width="16"
        height="16"
        id="svg2"
        version="1.1"
        inkscape:version="0.91 r13725"
        sodipodi:docname="check_select.svg">
    <metadata
            id="metadata15">
        <rdf:RDF>
            <cc:Work
                    rdf:about="">
                <dc:format>image/svg+xml</dc:format>
                <dc:type
                        rdf:resource="http://purl.org/dc/dcmitype/StillImage"/>
            </cc:Work>
        </rdf:RDF>
    </metadata>
    <sodipodi:namedview
            pagecolor="#ffffff"
            bordercolor="#666666"
            borderopacity="1"
            objecttolerance="10"
            gridtolerance="10"
            guidetolerance="10"
            inkscape:pageopacity="0"
            inkscape:pageshadow="2"
            inkscape:window-width="640"
            inkscape:window-height="480"
            id="namedview13"
            showgrid="false"
            inkscape:zoom="14.75"
            inkscape:cx="8"
            inkscape:cy="8"
            inkscape:window-x="0"
            inkscape:window-y="0"
            inkscape:window-maximized="0"
            inkscape:current-layer="svg2"/>
    <defs
            id="defs4">
        <clipPath
                id="clip_0">
            <path
                    d="M13 0L3 0Q2.84624 0 2.69485 0.0139819Q2.54347 0.0279637 2.39569 0.0558134Q2.24791 0.0836631 2.10495 0.125154Q1.96199 0.166644 1.825 0.221437Q1.68802 0.276229 1.55814 0.343877Q1.42826 0.411525 1.30653 0.491477Q1.1848 0.571429 1.07223 0.663032Q0.959651 0.754635 0.857143 0.857143Q0.754635 0.959651 0.663032 1.07223Q0.571429 1.1848 0.491477 1.30653Q0.411525 1.42826 0.343877 1.55814Q0.276229 1.68802 0.221437 1.825Q0.166644 1.96199 0.125154 2.10495Q0.0836631 2.24791 0.0558134 2.39569Q0.0279637 2.54347 0.0139819 2.69485Q0 2.84624 0 3L0 13Q0 13.1538 0.0139819 13.3052Q0.0279637 13.4565 0.0558134 13.6043Q0.0836631 13.7521 0.125154 13.8951Q0.166644 14.038 0.221437 14.175Q0.276229 14.312 0.343877 14.4419Q0.411525 14.5717 0.491477 14.6935Q0.571429 14.8152 0.663032 14.9278Q0.754635 15.0403 0.857143 15.1429Q0.959651 15.2454 1.07223 15.337Q1.1848 15.4286 1.30653 15.5085Q1.42826 15.5885 1.55814 15.6561Q1.68802 15.7238 1.825 15.7786Q1.96199 15.8334 2.10495 15.8748Q2.24791 15.9163 2.39569 15.9442Q2.54347 15.972 2.69485 15.986Q2.84624 16 3 16L13 16Q13.1538 16 13.3052 15.986Q13.4565 15.972 13.6043 15.9442Q13.7521 15.9163 13.8951 15.8748Q14.038 15.8334 14.175 15.7786Q14.312 15.7238 14.4419 15.6561Q14.5717 15.5885 14.6935 15.5085Q14.8152 15.4286 14.9278 15.337Q15.0403 15.2454 15.1429 15.1429Q15.2454 15.0403 15.337 14.9278Q15.4286 14.8152 15.5085 14.6935Q15.5885 14.5717 15.6561 14.4419Q15.7238 14.312 15.7786 14.175Q15.8334 14.038 15.8748 13.8951Q15.9163 13.7521 15.9442 13.6043Q15.972 13.4565 15.986 13.3052Q16 13.1538 16 13L16 3Q16 2.84624 15.986 2.69485Q15.972 2.54347 15.9442 2.39569Q15.9163 2.24791 15.8748 2.10495Q15.8334 1.96199 15.7786 1.825Q15.7238 1.68802 15.6561 1.55814Q15.5885 1.42826 15.5085 1.30653Q15.4286 1.1848 15.337 1.07223Q15.2454 0.959651 15.1429 0.857143Q15.0403 0.754635 14.9278 0.663032Q14.8152 0.571429 14.6935 0.491477Q14.5717 0.411525 14.4419 0.343877Q14.312 0.276229 14.175 0.221437Q14.038 0.166644 13.8951 0.125154Q13.7521 0.0836631 13.6043 0.0558134Q13.4565 0.0279637 13.3052 0.0139819Q13.1538 0 13 0Z"
                    clip-rule="evenodd"
                    id="path7"/>
        </clipPath>
        <clipPath
                id="clip_0-6">
            <rect
                    id="rect3348"
                    clip-rule="evenodd"
                    height="900"
                    width="1366"
                    y="-321"
                    x="-293"/>
        </clipPath>
    </defs>
    <g
            clip-path="url(#clip_0)"
            id="g9">
        <path
                fill="none"
                stroke="rgb(40,108,223)"
                stroke-width="2"
                stroke-miterlimit="4"
                d="M3 0L13 0Q13.1538 0 13.3052 0.0139819Q13.4565 0.0279637 13.6043 0.0558134Q13.7521 0.0836631 13.8951 0.125154Q14.038 0.166644 14.175 0.221437Q14.312 0.276229 14.4419 0.343877Q14.5717 0.411525 14.6935 0.491477Q14.8152 0.571429 14.9278 0.663032Q15.0403 0.754635 15.1429 0.857143Q15.2454 0.959651 15.337 1.07223Q15.4286 1.1848 15.5085 1.30653Q15.5885 1.42826 15.6561 1.55814Q15.7238 1.68802 15.7786 1.825Q15.8334 1.96199 15.8748 2.10495Q15.9163 2.24791 15.9442 2.39569Q15.972 2.54347 15.986 2.69485Q16 2.84624 16 3L16 13Q16 13.1538 15.986 13.3052Q15.972 13.4565 15.9442 13.6043Q15.9163 13.7521 15.8748 13.8951Q15.8334 14.038 15.7786 14.175Q15.7238 14.312 15.6561 14.4419Q15.5885 14.5717 15.5085 14.6935Q15.4286 14.8152 15.337 14.9278Q15.2454 15.0403 15.1429 15.1429Q15.0403 15.2454 14.9278 15.337Q14.8152 15.4286 14.6935 15.5085Q14.5717 15.5885 14.4419 15.6561Q14.312 15.7238 14.175 15.7786Q14.038 15.8334 13.8951 15.8748Q13.7521 15.9163 13.6043 15.9442Q13.4565 15.972 13.3052 15.986Q13.1538 16 13 16L3 16Q2.84624 16 2.69485 15.986Q2.54347 15.972 2.39569 15.9442Q2.24791 15.9163 2.10495 15.8748Q1.96199 15.8334 1.825 15.7786Q1.68802 15.7238 1.55814 15.6561Q1.42826 15.5885 1.30653 15.5085Q1.1848 15.4286 1.07223 15.337Q0.959651 15.2454 0.857143 15.1429Q0.754635 15.0403 0.663032 14.9278Q0.571429 14.8152 0.491477 14.6935Q0.411525 14.5717 0.343877 14.4419Q0.276229 14.312 0.221437 14.175Q0.166644 14.038 0.125154 13.8951Q0.0836631 13.7521 0.0558134 13.6043Q0.0279637 13.4565 0.0139819 13.3052Q0 13.1538 0 13L0 3Q0 2.84624 0.0139819 2.69485Q0.0279637 2.54347 0.0558134 2.39569Q0.0836631 2.24791 0.125154 2.10495Q0.166644 1.96199 0.221437 1.825Q0.276229 1.68802 0.343877 1.55814Q0.411525 1.42826 0.491477 1.30653Q0.571429 1.1848 0.663032 1.07223Q0.754635 0.959651 0.857143 0.857143Q0.959651 0.754635 1.07223 0.663032Q1.1848 0.571429 1.30653 0.491477Q1.42826 0.411525 1.55814 0.343877Q1.68802 0.276229 1.825 0.221437Q1.96199 0.166644 2.10495 0.125154Q2.24791 0.0836631 2.39569 0.0558134Q2.54347 0.0279637 2.69485 0.0139819Q2.84624 0 3 0Z"
                id="path11"/>
    </g>
    <g
            id="g3350"
            clip-path="url(#clip_0-6)"
            transform="translate(2.999985,4.1355932)">
        <path
                id="path3352"
                d="M 0.115385,4.4 C 0.0384615,4.32 0,4.2 0,4.12 0,4.04 0.0384615,3.92 0.115385,3.84 L 0.653846,3.28 C 0.807692,3.12 1.03846,3.12 1.19231,3.28 l 0.03846,0.04 2.11538,2.36 c 0.07693,0.08 0.19231,0.08 0.26923,0 l 5.15385,-5.56 0.03846,0 0,0 c 0.15385,-0.16 0.38462,-0.16 0.53846,0 l 0.53847,0.56 c 0.15388,0.16 0.15388,0.4 0,0.56 l 0,0 -6.15385,6.64 C 3.65385,7.96 3.57692,8 3.46154,8 3.34615,8 3.26923,7.96 3.19231,7.88 L 0.192308,4.52 0.115385,4.4 Z"
                inkscape:connector-curvature="0"
                style="fill:#296ce0;stroke:none"/>
    </g>
</svg>
