<?xml version="1.0" encoding="UTF-8"?>
<svg width="16px" height="23px" viewBox="0 0 16 23" version="1.1" xmlns="http://www.w3.org/2000/svg" xmlns:xlink="http://www.w3.org/1999/xlink">
    <!-- Generator: Sketch 45.2 (43514) - http://www.bohemiancoding.com/sketch -->
    <title>city_registr</title>
    <desc>Created with Sketch.</desc>
    <defs></defs>
    <g id="Артем" stroke="none" stroke-width="1" fill="none" fill-rule="evenodd">
        <g id="registration" transform="translate(-699.000000, -350.000000)" fill-rule="nonzero" fill="#D0D0D0">
            <g id="registration-3" transform="translate(392.000000, 158.000000)">
                <g id="email-copy" transform="translate(302.000000, 192.000000)">
                    <path d="M13.1377108,22.666 C12.9349213,22.666 12.7435753,22.5736536 12.6171645,22.4150413 C12.3230931,22.0459219 5.42,13.3163925 5.42,8.38371082 C5.42,4.12832475 8.88232475,0.666 13.1377108,0.666 C17.3930969,0.666 20.8554216,4.12832475 20.8554216,8.38371082 C20.8554216,13.3052152 13.9525946,22.0451235 13.6585232,22.4147752 C13.5321125,22.5733875 13.3407664,22.666 13.1377108,22.666 L13.1377108,22.666 Z M13.1377108,1.9966398 C9.61603953,1.9966398 6.7506398,4.86203953 6.7506398,8.38371082 C6.7506398,12.1198812 11.5287012,18.7741447 13.1374447,20.908491 C14.7459221,18.772548 19.5247818,12.1113651 19.5247818,8.38371082 C19.5247818,4.86203953 16.6593821,1.9966398 13.1377108,1.9966398 Z M13.1377108,11.7917455 C11.2583152,11.7917455 9.72967617,10.2631065 9.72967617,8.38371082 C9.72967617,6.50431517 11.2583152,4.97567617 13.1377108,4.97567617 C15.0171065,4.97567617 16.5457455,6.50431517 16.5457455,8.38371082 C16.5457455,10.2631065 15.0168403,11.7917455 13.1377108,11.7917455 Z M13.1377108,6.30631597 C11.9922961,6.30631597 11.060316,7.23829608 11.060316,8.38371082 C11.060316,9.52912555 11.9922961,10.4611057 13.1377108,10.4611057 C14.2831256,10.4611057 15.2151057,9.52912555 15.2151057,8.38371082 C15.2151057,7.23829608 14.2831256,6.30631597 13.1377108,6.30631597 Z" id="city_registr"></path>
                </g>
            </g>
        </g>
    </g>
</svg>