<?xml version="1.0" encoding="UTF-8"?>
<svg width="50px" height="50px" viewBox="0 0 50 50" version="1.1" xmlns="http://www.w3.org/2000/svg" xmlns:xlink="http://www.w3.org/1999/xlink">
    <!-- Generator: Sketch 45.2 (43514) - http://www.bohemiancoding.com/sketch -->
    <title>building</title>
    <desc>Created with Sketch.</desc>
    <defs></defs>
    <g id="Алексей" stroke="none" stroke-width="1" fill="none" fill-rule="evenodd" fill-opacity="0.5">
        <g id="Главная" transform="translate(-173.000000, -446.000000)" fill-rule="nonzero" fill="#FFFFFF">
            <g id="1262-компании-copy" transform="translate(173.000000, 433.000000)">
                <g id="building" transform="translate(0.000000, 13.000000)">
                    <path d="M36.166696,47 L12.833304,47 C12.3733413,47 12,47.3360091 12,47.749978 L12,49.250022 C12,49.6639909 12.3733413,50 12.833304,50 C13.2932668,50 13.6666081,49.6639909 13.6666081,49.250022 L13.6666081,48.5000439 L36.166696,48.5000439 C36.6266587,48.5000439 37,48.1640348 37,47.7500659 C37,47.336097 36.6267564,47 36.166696,47 Z" id="Shape"></path>
                    <path d="M19,21.1250256 C19,21.6079893 19.3733398,22 19.8333008,22 L23.1666992,22 C23.6266602,22 24,21.6079893 24,21.1250256 L24,15.8749744 C24,15.3920107 23.6266602,15 23.1666992,15 L19.8333984,15 C19.3734375,15 19.0000977,15.3920107 19.0000977,15.8749744 L19.0000977,21.1250256 L19,21.1250256 Z M20.6666992,16.7500513 L22.3333984,16.7500513 L22.3333984,20.2500513 L20.6666992,20.2500513 L20.6666992,16.7500513 Z" id="Shape"></path>
                    <path d="M11.1428858,10 L0.857114158,10 C0.384008839,10 0,10.3869165 0,10.8636042 L0,28.1363958 C0,28.6130835 0.384008839,29 0.857114158,29 C1.33021948,29 1.71422832,28.6130835 1.71422832,28.1363958 L1.71422832,11.7273095 L11.1428858,11.7273095 C11.6159912,11.7273095 12,11.340393 12,10.8637054 C12,10.3870177 11.6160916,10 11.1428858,10 Z" id="Shape"></path>
                    <path d="M40,41.1250256 C40,41.6079893 40.3733471,42 40.8333171,42 L44.1666829,42 C44.6266529,42 45,41.6079893 45,41.1250256 L45,35.8749744 C45,35.3920107 44.6266529,35 44.1666829,35 L40.8333171,35 C40.3733471,35 40,35.3920107 40,35.8749744 L40,41.1250256 Z M41.6667318,36.7500513 L43.3334635,36.7500513 L43.3334635,40.2500513 L41.6667318,40.2500513 L41.6667318,36.7500513 Z" id="Shape"></path>
                    <path d="M4.00009368,30 C0.0455632111,30 0,40.725 0,40.8333008 C0,42.8458008 1.37683399,44.5283203 3.20001869,44.9158203 L3.20001869,49.1666992 C3.20001869,49.6266602 3.55843054,50 3.99999993,50 C4.44156932,50 4.79998117,49.6266602 4.79998117,49.1666992 L4.79998117,44.9158203 C6.62316587,44.5283203 7.99999986,42.8458008 7.99999986,40.8333008 C8.00009361,40.725 7.9545304,30 4.00009368,30 Z M4.00009368,43.3333008 C2.67688553,43.3333008 1.60005622,42.2116211 1.60005622,40.8333008 C1.60005622,36.6816406 2.67051043,31.6666016 4.00009368,31.6666016 C5.32967693,31.6666016 6.40013114,36.6816406 6.40013114,40.8333008 C6.40013114,42.2116211 5.32330183,43.3333008 4.00009368,43.3333008 Z" id="Shape"></path>
                    <path d="M9.16678059,25 L5.83331705,25 C5.37334713,25 5,25.3920049 5,25.8749615 L5,27.6249872 C5,28.1079438 5.37334713,28.4999487 5.83331705,28.4999487 C6.29328697,28.4999487 6.66663411,28.1079438 6.66663411,27.6249872 L6.66663411,26.7500256 L8.33336587,26.7500256 L8.33336587,31.1250385 C8.33336587,31.6079951 8.70671301,32 9.16668293,32 C9.62665285,32 9.99999998,31.6079951 9.99999998,31.1250385 L9.99999998,25.8750641 C10.0000976,25.3920049 9.6267505,25 9.16678059,25 Z" id="Shape"></path>
                    <path d="M40.8333171,22 L44.1666829,22 C44.6266529,22 45,21.6079893 45,21.1250256 L45,15.8749744 C45,15.3920107 44.6266529,15 44.1666829,15 L40.8333171,15 C40.3733471,15 40,15.3920107 40,15.8749744 L40,21.1250256 C40,21.6079893 40.3733471,22 40.8333171,22 Z M41.6667318,16.7499487 L43.3334635,16.7499487 L43.3334635,20.2499487 L41.6667318,20.2499487 L41.6667318,16.7499487 Z" id="Shape"></path>
                    <path d="M9.16678059,15 L5.83331705,15 C5.37334713,15 5,15.3920107 5,15.8749744 L5,21.1250256 C5,21.6079893 5.37334713,22 5.83331705,22 L9.16668293,22 C9.62665285,22 9.99999998,21.6079893 9.99999998,21.1250256 L9.99999998,15.8749744 C10.0000976,15.3920107 9.6267505,15 9.16678059,15 Z M8.33336587,20.2500513 L6.66673177,20.2500513 L6.66673177,16.7500513 L8.33346353,16.7500513 L8.33346353,20.2500513 L8.33336587,20.2500513 Z" id="Shape"></path>
                    <path d="M26,21.1250256 C26,21.6079893 26.3733471,22 26.8333171,22 L30.1666829,22 C30.6266529,22 31,21.6079893 31,21.1250256 L31,15.8749744 C31,15.3920107 30.6266529,15 30.1666829,15 L26.8333171,15 C26.3733471,15 26,15.3920107 26,15.8749744 L26,21.1250256 Z M27.6666341,16.7500513 L29.3333659,16.7500513 L29.3333659,20.2500513 L27.6666341,20.2500513 L27.6666341,16.7500513 Z" id="Shape"></path>
                    <path d="M49.1428858,10 L38.8571142,10 C38.3840088,10 38,10.3733398 38,10.8333008 C38,11.2932617 38.3840088,11.6666016 38.8571142,11.6666016 L48.2857717,11.6666016 L48.2857717,45.1533203 C48.0166742,45.0599609 47.7312039,45 47.4286575,45 C47.2803978,45 47.1329416,45.0125 46.988097,45.0375 C46.3966652,44.0016602 45.2712571,43.3333008 44.0001004,43.3333008 C42.7289438,43.3333008 41.6035357,44.0016602 41.0121039,45.0375 C40.8672593,45.0125 40.7198031,45 40.5715434,45 C39.1538346,45 38.0001004,46.1216797 38.0001004,47.5 C38.0001004,48.8783203 39.1538346,50 40.5715434,50 L47.4285571,50 C48.8462659,50 50,48.8783203 50,47.5 L50,10.8333008 C50,10.3733398 49.6159912,10 49.1428858,10 Z M47.4285571,48.3333008 L40.5713425,48.3333008 C40.0990407,48.3333008 39.7142283,47.9591797 39.7142283,47.5 C39.7142283,47.0408203 40.0990407,46.6666992 40.5713425,46.6666992 C40.7358746,46.6666992 40.8918688,46.7125 41.0359098,46.8025391 C41.2707549,46.9492187 41.5639596,46.9758789 41.8228115,46.8742187 C42.0816634,46.7725586 42.272814,46.5541992 42.3353925,46.2900391 C42.5162975,45.5308594 43.2011451,45 44,45 C44.7988549,45 45.4837025,45.5308594 45.6646075,46.2900391 C45.727186,46.5541992 45.9183366,46.7725586 46.1771885,46.8742187 C46.4352368,46.9758789 46.7291447,46.9492187 46.9640902,46.8025391 C47.5220732,46.4525391 48.2857717,46.8808594 48.2857717,47.5 C48.2856712,47.9591797 47.9008588,48.3333008 47.4285571,48.3333008 Z" id="Shape"></path>
                    <path d="M26.8333171,12 L30.1666829,12 C30.6266529,12 31,11.6079893 31,11.1250256 L31,5.87497436 C31,5.39201066 30.6266529,5 30.1666829,5 L26.8333171,5 C26.3733471,5 26,5.39201066 26,5.87497436 L26,11.1250256 C26,11.6079893 26.3733471,12 26.8333171,12 Z M27.6666341,6.74994873 L29.3333659,6.74994873 L29.3333659,10.2499487 L27.6666341,10.2499487 L27.6666341,6.74994873 Z" id="Shape"></path>
                    <path d="M26,31.1250256 C26,31.6079893 26.3733471,32 26.8333171,32 L30.1666829,32 C30.6266529,32 31,31.6079893 31,31.1250256 L31,25.8749744 C31,25.3920107 30.6266529,25 30.1666829,25 L26.8333171,25 C26.3733471,25 26,25.3920107 26,25.8749744 L26,31.1250256 Z M27.6666341,26.7500513 L29.3333659,26.7500513 L29.3333659,30.2500513 L27.6666341,30.2500513 L27.6666341,26.7500513 Z" id="Shape"></path>
                    <path d="M19.8333171,12 L23.1666829,12 C23.6266529,12 24,11.6079893 24,11.1250256 L24,5.87497436 C24,5.39201066 23.6266529,5 23.1666829,5 L19.8333171,5 C19.3733472,5 19,5.39201066 19,5.87497436 L19,11.1250256 C18.9999024,11.6079893 19.3732495,12 19.8333171,12 Z M20.6666341,6.74994873 L22.3333659,6.74994873 L22.3333659,10.2499487 L20.6666341,10.2499487 L20.6666341,6.74994873 Z" id="Shape"></path>
                    <path d="M25.2900164,40.2792795 C25.1100305,40.4704183 25,40.7320697 25,40.9937211 C25,41.2553725 25.1100305,41.5169059 25.2900164,41.7081626 C25.4799625,41.8892787 25.7399813,42 26,42 C26.2600187,42 26.5199203,41.8892787 26.7099836,41.7081626 C26.8899695,41.5170238 27,41.2553725 27,40.9937211 C27,40.7320697 26.8899695,40.4705362 26.7099836,40.2792795 C26.3299742,39.9069068 25.6700258,39.9069068 25.2900164,40.2792795 Z" id="Shape"></path>
                    <path d="M19,31.1250256 C19,31.6079893 19.3733398,32 19.8333008,32 L23.1666992,32 C23.6266602,32 24,31.6079893 24,31.1250256 L24,25.8749744 C24,25.3920107 23.6266602,25 23.1666992,25 L19.8333984,25 C19.3734375,25 19.0000977,25.3920107 19.0000977,25.8749744 L19.0000977,31.1250256 L19,31.1250256 Z M20.6666992,26.7500513 L22.3333984,26.7500513 L22.3333984,30.2500513 L20.6666992,30.2500513 L20.6666992,26.7500513 Z" id="Shape"></path>
                    <path d="M17,35.8333089 C17,36.2932743 17.3808104,36.6666178 17.8499751,36.6666178 L20.4,36.6666178 L20.4,44.1666911 C20.4,44.6266565 20.7808104,45 21.2499751,45 C21.7191398,45 22.0999502,44.6266565 22.0999502,44.1666911 L22.0999502,36.6666178 L28.9000498,36.6666178 L28.9000498,44.1666911 C28.9000498,44.6266565 29.2808602,45 29.7500249,45 C30.2191896,45 30.6,44.6266565 30.6,44.1666911 L30.6,36.6666178 L33.1500249,36.6666178 C33.6191896,36.6666178 34,36.2932743 34,35.8333089 C34,35.3733435 33.6191896,35 33.1500249,35 L17.8499751,35 C17.3808104,35 17,35.3733435 17,35.8333089 Z" id="Shape"></path>
                    <path d="M40,31.1250256 C40,31.6079893 40.3733471,32 40.8333171,32 L44.1666829,32 C44.6266529,32 45,31.6079893 45,31.1250256 L45,25.8749744 C45,25.3920107 44.6266529,25 44.1666829,25 L40.8333171,25 C40.3733471,25 40,25.3920107 40,25.8749744 L40,31.1250256 Z M41.6667318,26.7500513 L43.3334635,26.7500513 L43.3334635,30.2500513 L41.6667318,30.2500513 L41.6667318,26.7500513 Z" id="Shape"></path>
                    <path d="M36.1428858,0 L13.8571142,0 C13.3840088,0 13,0.373340654 13,0.83330259 L13,44.1666974 C13,44.6266593 13.3840088,45 13.8571142,45 C14.3302195,45 14.7142283,44.6266593 14.7142283,44.1666974 L14.7142283,1.66660518 L35.2857717,1.66660518 L35.2857717,44.1666974 C35.2857717,44.6266593 35.6697805,45 36.1428858,45 C36.6159911,45 37,44.6266593 37,44.1666974 L37,0.83330259 C37.0001004,0.373340654 36.6160916,0 36.1428858,0 Z" id="Shape"></path>
                </g>
            </g>
        </g>
    </g>
</svg>