<?xml version="1.0" encoding="utf-8" ?>
<svg xmlns:xlink="http://www.w3.org/1999/xlink" xmlns="http://www.w3.org/2000/svg" width="22" height="21">
    <defs>
        <clipPath id="clip_0">
            <rect x="-444.92883" y="-449.66211" width="1311.36" height="875.51996" clip-rule="evenodd"/>
        </clipPath>
    </defs>
    <g clip-path="url(#clip_0)">
        <path fill="rgb(41,108,224)" stroke="none" transform="matrix(0.96 0 0 0.96 -0.0120239 0.0783691)"
              d="M21.1047 0.0376699C21.2852 -0.0304 21.488 -0.00523792 21.6469 0.10521C21.8056 0.215923 21.9003 0.397354 21.9 0.591499L21.9 17.4757C21.9 17.7223 21.7476 17.943 21.518 18.0296L14.6105 20.6321C14.6033 20.6345 14.5957 20.6356 14.5888 20.638C14.5793 20.6409 14.5701 20.643 14.5609 20.6456C14.509 20.6602 14.4565 20.6697 14.4038 20.6697C14.3511 20.6697 14.2983 20.6602 14.2467 20.6456C14.2374 20.6432 14.2282 20.6411 14.2187 20.638C14.2119 20.6358 14.2042 20.6348 14.1971 20.6321L7.49622 18.1074L0.795333 20.6321C0.728374 20.6576 0.658516 20.67 0.588657 20.67C0.470557 20.67 0.353247 20.6342 0.253336 20.5648C0.0946386 20.4541 0 20.2724 0 20.0786L0 3.19405C0 2.94746 0.152371 2.72683 0.381981 2.64022L7.28664 0.0387294L7.28796 0.0381997L7.28954 0.0376699C7.30325 0.0326375 7.31749 0.0315781 7.33146 0.0276051C7.36257 0.0183349 7.39341 0.00853497 7.42557 0.00456202C7.44165 0.00258727 7.45761 0.00316779 7.47353 0.0037469C7.4811 0.00402219 7.48866 0.00429716 7.49622 0.00429716C7.50378 0.00429716 7.51134 0.00402219 7.51891 0.0037469C7.53483 0.0031678 7.55079 0.00258726 7.56687 0.00456202C7.59903 0.00853497 7.62987 0.0183349 7.66098 0.0276051C7.67495 0.0315781 7.68919 0.0323727 7.70289 0.0376699L7.70448 0.0381997L7.70579 0.0387294L14.4038 2.56235L21.1047 0.0376699ZM6.90756 1.44515L1.17758 3.60406L1.17758 19.2252L6.90756 17.0663L6.90756 1.44515ZM8.08514 1.44515L13.8151 3.60406L13.8151 19.2252L8.08514 17.0663L8.08514 1.44515ZM14.9927 19.2249L20.7227 17.066L20.7227 1.44515L14.9927 3.60406L14.9927 19.2249Z"
              fill-rule="evenodd"/>
    </g>
</svg>
