<?xml version="1.0" encoding="UTF-8"?>
<svg width="68px" height="49px" viewBox="0 0 68 49" version="1.1" xmlns="http://www.w3.org/2000/svg" xmlns:xlink="http://www.w3.org/1999/xlink">
    <!-- Generator: Sketch 45.2 (43514) - http://www.bohemiancoding.com/sketch -->
    <title>deal</title>
    <desc>Created with Sketch.</desc>
    <defs></defs>
    <g id="Алексей" stroke="none" stroke-width="1" fill="none" fill-rule="evenodd" fill-opacity="0.5">
        <g id="Главная" transform="translate(-980.000000, -449.000000)" fill-rule="nonzero" fill="#FFFFFF">
            <g id="1262-компании-copy-2" transform="translate(980.000000, 433.000000)">
                <g id="deal" transform="translate(0.208395, 16.044012)">
                    <path d="M16.1531662,1.87847933 L0,18.0315145 L9.94031923,27.9719647 L26.0934854,11.8187986 L16.1531662,1.87847933 Z M2.48524362,18.0315145 L16.1532972,4.36346085 L23.6086349,11.8186675 L9.94045028,25.4868522 L2.48524362,18.0315145 Z" id="Shape"></path>
                    <polygon id="Shape" points="35.4127558 21.138069 34.1702651 22.3804287 46.5956969 34.8059915 44.7318952 36.6697932 33.5488231 25.4868522 32.3063324 26.7293429 44.7318952 39.1550368 49.0806784 34.8059915"></polygon>
                    <polygon id="Shape" points="42.8679625 38.5337259 41.6254717 39.7762167 30.4423996 28.5932756 29.1999089 29.8357664 41.6254717 42.2611982 44.1104533 39.7762167"></polygon>
                    <polygon id="Shape" points="39.761539 41.6400184 38.5191793 42.8825091 37.2765575 41.6400184 36.0340667 42.8825091 38.5191793 45.3676217 41.0040298 42.8825091"></polygon>
                    <polygon id="Shape" points="17.6899966 28.7895894 17.6899966 26.37721 15.1123623 23.6356314 13.8174513 24.8528294 15.9126883 27.0816069 15.9126883 29.6391905 17.7830425 31.1486313 18.8990694 29.7653922"></polygon>
                    <polygon id="Shape" points="36.6552466 44.7464418 35.4127558 45.9889326 34.170134 44.7464418 32.9276433 45.9889326 35.4127558 48.4741762 37.8977374 45.9889326"></polygon>
                    <rect id="Rectangle-path" transform="translate(6.212480, 18.030599) rotate(-45.000000) translate(-6.212480, -18.030599) " x="5.33392477" y="17.151979" width="1.75710962" height="1.75724067"></rect>
                    <path d="M50.3233002,0.0144155662 L40.3828499,9.95486585 L57.157327,26.7293429 L67.0977773,16.7888927 L50.3233002,0.0144155662 Z M42.8679625,9.9549969 L50.3233002,2.49965919 L64.6126647,16.7890237 L57.1574581,24.2443614 L42.8679625,9.9549969 Z" id="Shape"></path>
                    <rect id="Rectangle-path" transform="translate(60.884263, 16.789786) rotate(-45.000000) translate(-60.884263, -16.789786) " x="60.0056424" y="15.9112972" width="1.75724067" height="1.75697857"></rect>
                    <path d="M43.4895355,20.516627 C42.8257642,21.1802673 41.9430073,21.5458985 41.0042919,21.5458985 C40.0655764,21.5458985 39.1829506,21.1801362 38.5190483,20.516496 L35.4126248,17.4102036 L29.8210887,23.0017396 C29.1573174,23.6653799 28.2746916,24.031011 27.3359762,24.031011 C26.6976287,24.031011 26.0853603,23.8619558 25.5500186,23.5449443 L33.9127506,15.1822123 L37.640354,15.1822123 L41.0040298,11.8185365 L39.761539,10.5760457 L36.9123679,13.4250858 L33.1847645,13.4250858 L22.9867998,23.6230505 L23.6081107,24.2442304 C24.6359406,25.2720602 25.9858929,25.7857786 27.3357141,25.7857786 C28.6856663,25.7857786 30.0356186,25.2719292 31.0633174,24.2442304 L35.4122316,19.8953161 L37.2761643,21.7589867 C38.2717558,22.7547092 39.595629,23.3030249 41.0037677,23.3030249 C42.4119064,23.3030249 43.7357796,22.7547092 44.731371,21.7589867 L43.4895355,20.516627 Z" id="Shape"></path>
                    <rect id="Rectangle-path" transform="translate(27.646717, 14.616735) rotate(-45.000000) translate(-27.646717, -14.616735) " x="26.768162" y="12.4204791" width="1.75710962" height="4.39251196"></rect>
                    <polygon id="Shape" points="51.5398429 22.3721725 49.4077807 24.4966338 49.4077807 26.98345 45.9527626 30.45118 47.2117658 31.7055964 51.185089 27.7178576 51.185089 25.2345798 52.7942593 23.6311756"></polygon>
                    <path d="M23.6085039,26.729474 L16.1531662,34.1848117 L29.813881,47.8455265 L37.2692187,40.3901888 L23.6085039,26.729474 Z M18.6382787,34.1846806 L23.6083728,29.2145866 L25.4721745,31.0783882 L20.5020804,36.0484823 L18.6382787,34.1846806 Z M21.7447022,37.2911041 L26.7147963,32.32101 L28.5749286,34.1810112 L23.6048345,39.1511053 L21.7447022,37.2911041 Z M24.8511257,40.3975276 L29.8212198,35.4274335 L31.6776826,37.2838963 L26.7075885,42.2539904 L24.8511257,40.3975276 Z M29.813881,45.3602828 L27.9537487,43.5001506 L32.9238428,38.5300565 L34.783975,40.3901888 L29.813881,45.3602828 Z" id="Shape"></path>
                </g>
            </g>
        </g>
    </g>
</svg>