<?xml version="1.0" encoding="UTF-8"?>
<svg width="17px" height="17px" viewBox="0 0 17 17" version="1.1" xmlns="http://www.w3.org/2000/svg" xmlns:xlink="http://www.w3.org/1999/xlink">
    <!-- Generator: Sketch 45.2 (43514) - http://www.bohemiancoding.com/sketch -->
    <title>delete_category</title>
    <desc>Created with Sketch.</desc>
    <defs></defs>
    <g id="Алексей" stroke="none" stroke-width="1" fill="none" fill-rule="evenodd">
        <g id="Главная-результаты" transform="translate(-376.000000, -173.000000)">
            <g id="1-screen" transform="translate(0.000000, -45.000000)">
                <g id="teg-3" transform="translate(174.000000, 212.000000)">
                    <g id="delete_category" transform="translate(202.000000, 6.000000)">
                        <circle id="Oval" fill="#041736" cx="8.5" cy="8.5" r="8.5"></circle>
                        <path d="M12.5531429,11.0737253 L11.0714396,12.5534326 C11.0714396,12.5534326 8.72746089,10.0384625 8.55247752,10.0384625 C8.3801555,10.0384625 6.03551145,12.5534326 6.03551145,12.5534326 L4.55314286,11.0737253 C4.55314286,11.0737253 7.07077426,8.76367874 7.07077426,8.55808992 C7.07077426,8.34917441 4.55314286,6.0384625 4.55314286,6.0384625 L6.03551145,4.55542857 C6.03551145,4.55542857 8.39945024,7.0717293 8.55247752,7.0717293 C8.70683547,7.0717293 11.0714396,4.55542857 11.0714396,4.55542857 L12.5531429,6.0384625 C12.5531429,6.0384625 10.0348461,8.38244121 10.0348461,8.55808992 C10.0348461,8.72508925 12.5531429,11.0737253 12.5531429,11.0737253 Z" id="Combined-Shape" fill="#FFFFFF"></path>
                    </g>
                </g>
            </g>
        </g>
    </g>
</svg>