<?xml version="1.0" encoding="UTF-8"?>
<svg width="8px" height="8px" viewBox="0 0 8 8" version="1.1" xmlns="http://www.w3.org/2000/svg" xmlns:xlink="http://www.w3.org/1999/xlink">
    <!-- Generator: Sketch 45.2 (43514) - http://www.bohemiancoding.com/sketch -->
    <title>delite_tag</title>
    <desc>Created with Sketch.</desc>
    <defs></defs>
    <g id="Артем" stroke="none" stroke-width="1" fill="none" fill-rule="evenodd">
        <g id="service_1" transform="translate(-525.000000, -595.000000)" fill="#FFFFFF">
            <g id="add-teg" transform="translate(462.000000, 550.000000)">
                <g id="teg-1" transform="translate(0.000000, 37.000000)">
                    <path d="M70.424,14.1537143 L69.1514286,15.4245714 C69.1514286,15.4245714 67.1382857,13.2645714 66.988,13.2645714 C66.84,13.2645714 64.8262857,15.4245714 64.8262857,15.4245714 L63.5531429,14.1537143 C63.5531429,14.1537143 65.7154286,12.1697143 65.7154286,11.9931429 C65.7154286,11.8137143 63.5531429,9.82914286 63.5531429,9.82914286 L64.8262857,8.55542857 C64.8262857,8.55542857 66.8565714,10.7165714 66.988,10.7165714 C67.1205714,10.7165714 69.1514286,8.55542857 69.1514286,8.55542857 L70.424,9.82914286 C70.424,9.82914286 68.2611429,11.8422857 68.2611429,11.9931429 C68.2611429,12.1365714 70.424,14.1537143 70.424,14.1537143 Z" id="delite_tag"></path>
                </g>
            </g>
        </g>
    </g>
</svg>