<?xml version="1.0" encoding="UTF-8"?>
<svg width="121px" height="94px" viewBox="0 0 121 94" version="1.1" xmlns="http://www.w3.org/2000/svg" xmlns:xlink="http://www.w3.org/1999/xlink">
    <!-- Generator: Sketch 45.2 (43514) - http://www.bohemiancoding.com/sketch -->
    <title>dialog</title>
    <desc>Created with Sketch.</desc>
    <defs></defs>
    <g id="Артем" stroke="none" stroke-width="1" fill="none" fill-rule="evenodd" opacity="0.200000003">
        <g id="profile" transform="translate(-967.000000, -907.000000)" fill-rule="nonzero" fill="#296CE0">
            <g id="3-copy" transform="translate(866.000000, 844.000000)">
                <path d="M172.200235,126.490775 C164.945952,129.520134 157.054641,131.033652 148.52724,131.030632 C144.688186,131.030632 140.759535,130.677052 136.74199,129.969427 C131.206463,133.860202 125.000601,136.691398 118.125579,138.459298 C116.518702,138.857715 114.598706,139.211295 112.366998,139.520735 L112.165992,139.520735 C111.674383,139.520735 111.217252,139.34441 110.793426,138.991294 C110.369367,138.635856 110.112773,138.172392 110.023411,137.598347 C109.977909,137.464999 109.955862,137.321895 109.955862,137.167639 C109.955862,137.013383 109.96712,136.868652 109.989636,136.736931 C110.011684,136.603351 110.057186,136.472791 110.123328,136.339212 L110.291028,136.00863 C110.291028,136.00863 110.369367,135.887131 110.525575,135.643667 C110.681782,135.400436 110.771145,135.289855 110.793661,135.313783 C110.815708,135.334459 110.916094,135.224575 111.095053,134.981343 C111.273777,134.738112 111.36314,134.637985 111.36314,134.682357 C111.585959,134.417752 112.099615,133.86508 112.903405,133.024805 C113.70743,132.186156 114.287698,131.532427 114.644912,131.068266 C115.00236,130.605499 115.504055,129.964781 116.151403,129.145878 C116.79922,128.327208 117.356736,127.476711 117.825829,126.592528 C118.294687,125.706952 118.752287,124.73542 119.198394,123.673285 C113.663101,120.490135 109.310156,116.576129 106.140966,111.934287 C102.971541,107.291516 101.384366,102.336981 101.384366,97.0755608 C101.384366,90.9287964 103.482852,85.2475869 107.67912,80.0291445 C111.87492,74.8113991 117.60043,70.6880792 124.854713,67.6587203 C132.1097,64.630523 140.000074,63.1156112 148.526771,63.1156112 C157.054172,63.1156112 164.944545,64.6295937 172.199063,67.6587203 C179.453581,70.6883115 185.178856,74.8116314 189.374421,80.0291445 C193.571628,85.2466577 195.669645,90.9287964 195.669645,97.0753285 C195.669645,103.221628 193.571628,108.903302 189.376063,114.120583 C185.180029,119.339026 179.453815,123.461881 172.200235,126.490775 Z M216.629643,128.944231 C213.460687,133.566326 209.108915,137.468484 203.573152,140.654886 C204.019494,141.715394 204.477094,142.688553 204.945717,143.572735 C205.414576,144.457382 205.973265,145.308809 206.620144,146.126085 C207.267257,146.944988 207.769655,147.585706 208.126869,148.0501 C208.484083,148.514261 209.063413,149.166363 209.867672,150.005709 C210.670993,150.846217 211.184181,151.398656 211.407234,151.66419 C211.452267,151.708562 211.542098,151.808921 211.675321,151.962247 C211.810185,152.115806 211.909867,152.227084 211.97554,152.293061 C212.043089,152.359038 212.131982,152.471245 212.243626,152.624571 C212.355974,152.778827 212.431498,152.901256 212.477938,152.988605 L212.644935,153.319419 C212.644935,153.319419 212.689968,153.452069 212.778158,153.717835 C212.866581,153.982672 212.87784,154.12717 212.811932,154.148078 C212.744617,154.169219 212.723743,154.314879 212.744617,154.580413 C212.611395,155.198829 212.320792,155.683898 211.874451,156.037478 C211.428343,156.391291 210.936265,156.546243 210.400796,156.501872 C208.168619,156.192663 206.248857,155.83978 204.641745,155.440667 C197.767192,153.670908 191.561097,150.842267 186.025803,146.949866 C182.007556,147.657259 178.079374,148.011768 174.239616,148.011768 C162.141951,148.011768 151.605895,145.092525 142.633091,139.25706 C145.222013,139.433618 147.186573,139.5212 148.525363,139.5212 C155.713036,139.5212 162.610809,138.525507 169.216572,136.536445 C175.824211,134.545989 181.717187,131.694814 186.89597,127.980597 C192.476062,123.911871 196.761927,119.225192 199.752862,113.920097 C202.745907,108.613376 204.239498,102.997679 204.239498,97.0730053 C204.239498,93.667532 203.726077,90.3071274 202.700171,86.9910945 C208.458518,90.1305697 213.012704,94.0666454 216.361322,98.7969986 C219.708298,103.527816 221.384366,108.615931 221.384366,114.055303 C221.384366,119.362025 219.80024,124.323761 216.629643,128.944231 Z" id="dialog"></path>
            </g>
        </g>
    </g>
</svg>