<?xml version="1.0" encoding="UTF-8"?>
<svg width="12px" height="12px" viewBox="0 0 12 12" version="1.1" xmlns="http://www.w3.org/2000/svg" xmlns:xlink="http://www.w3.org/1999/xlink">
    <!-- Generator: Sketch 45.2 (43514) - http://www.bohemiancoding.com/sketch -->
    <title>download</title>
    <desc>Created with Sketch.</desc>
    <defs></defs>
    <g id="Артем" stroke="none" stroke-width="1" fill="none" fill-rule="evenodd">
        <g id="service-page-" transform="translate(-831.000000, -975.000000)" fill-rule="nonzero" fill="#FFFFFF">
            <g id="img" transform="translate(559.000000, 598.000000)">
                <path d="M283.538462,384.384615 C283.815385,384.384615 284,384.569231 284,384.846154 L284,387.615385 C284,387.892308 283.815385,388.076923 283.538462,388.076923 L272.461538,388.076923 C272.184615,388.076923 272,387.892308 272,387.615385 L272,384.846154 C272,384.569231 272.184615,384.384615 272.461538,384.384615 L273.384615,384.384615 C273.661538,384.384615 273.846154,384.569231 273.846154,384.846154 L273.846154,386 C273.846154,386.138462 273.938462,386.230769 274.076923,386.230769 L281.923077,386.230769 C282.061538,386.230769 282.153846,386.138462 282.153846,386 L282.153846,384.846154 C282.153846,384.569231 282.338462,384.384615 282.615385,384.384615 L283.538462,384.384615 Z M277.676923,384.246154 L274.907692,381.523077 C274.815385,381.430769 274.769231,381.338462 274.769231,381.2 C274.769231,381.061538 274.815385,380.969231 274.907692,380.876923 L275.553846,380.230769 C275.646154,380.138462 275.738462,380.092308 275.876923,380.092308 C276.015385,380.092308 276.107692,380.138462 276.2,380.230769 L276.661538,380.692308 C276.846154,380.830769 277.076923,380.692308 277.076923,380.507692 L277.076923,377.461538 C277.076923,377.184615 277.261538,377 277.538462,377 L278.461538,377 C278.738462,377 278.923077,377.184615 278.923077,377.461538 L278.923077,380.461538 C278.923077,380.692308 279.2,380.784615 279.338462,380.646154 L279.8,380.184615 C279.892308,380.092308 279.984615,380.046154 280.123077,380.046154 C280.261538,380.046154 280.353846,380.092308 280.446154,380.184615 L281.092308,380.830769 C281.184615,380.923077 281.230769,381.015385 281.230769,381.153846 C281.230769,381.292308 281.184615,381.384615 281.092308,381.476923 L278.323077,384.246154 C278.230769,384.338462 278.092308,384.384615 278,384.384615 C277.907692,384.384615 277.769231,384.338462 277.676923,384.246154 Z" id="download"></path>
            </g>
        </g>
    </g>
</svg>