<?xml version="1.0" encoding="UTF-8"?>
<svg width="31px" height="25px" viewBox="0 0 31 25" version="1.1" xmlns="http://www.w3.org/2000/svg" xmlns:xlink="http://www.w3.org/1999/xlink">
    <!-- Generator: Sketch 45.2 (43514) - http://www.bohemiancoding.com/sketch -->
    <title>edite_photo</title>
    <desc>Created with Sketch.</desc>
    <defs></defs>
    <g id="Артем" stroke="none" stroke-width="1" fill="none" fill-rule="evenodd">
        <g id="my-profile-clean" transform="translate(-275.000000, -160.000000)" fill-rule="nonzero" fill="#FFFFFF">
            <g id="edit_photo" transform="translate(210.000000, 106.000000)">
                <path d="M80.2324219,63.1394531 C77.7084096,63.1394531 75.6626953,65.1860813 75.6626953,67.7091797 C75.6626953,70.233192 77.7084096,72.2789063 80.2324219,72.2789063 C82.7558249,72.2789063 84.8021484,70.233192 84.8021484,67.7091797 C84.8021484,65.1860813 82.7558249,63.1394531 80.2324219,63.1394531 Z M92.4183594,58.5697266 L88.7625781,58.5697266 C88.2599082,58.5697266 87.7182433,58.1797766 87.5595214,57.7026971 L86.614502,54.8667248 C86.4551709,54.38995 85.9141152,54 85.4114453,54 L75.0533984,54 C74.5507285,54 74.0090636,54.38995 73.8503418,54.8670295 L72.9053223,57.7030018 C72.7459912,58.1797766 72.2049355,58.5697266 71.7022656,58.5697266 L68.0464844,58.5697266 C66.370918,58.5697266 65,59.9406445 65,61.6162109 L65,75.3253906 C65,77.000957 66.370918,78.371875 68.0464844,78.371875 L92.4183594,78.371875 C94.0939258,78.371875 95.4648437,77.000957 95.4648437,75.3253906 L95.4648437,61.6162109 C95.4648437,59.9406445 94.0939258,58.5697266 92.4183594,58.5697266 Z M80.2324219,75.3253906 C76.0261409,75.3253906 72.6162109,71.9154607 72.6162109,67.7091797 C72.6162109,63.5032034 76.0261409,60.0929688 80.2324219,60.0929688 C84.4380936,60.0929688 87.8486328,63.5032034 87.8486328,67.7091797 C87.8486328,71.9154607 84.4380936,75.3253906 80.2324219,75.3253906 Z M91.3520898,63.7466175 C90.7635091,63.7466175 90.2858203,63.269538 90.2858203,62.6803479 C90.2858203,62.0917671 90.7635091,61.6140784 91.3520898,61.6140784 C91.9412799,61.6140784 92.4183594,62.0917671 92.4183594,62.6803479 C92.4183594,63.269538 91.9409753,63.7466175 91.3520898,63.7466175 Z" id="edite_photo"></path>
            </g>
        </g>
    </g>
</svg>