<?xml version="1.0" encoding="UTF-8"?>
<svg width="14px" height="11px" viewBox="0 0 14 11" version="1.1" xmlns="http://www.w3.org/2000/svg" xmlns:xlink="http://www.w3.org/1999/xlink">
    <!-- Generator: Sketch 45.2 (43514) - http://www.bohemiancoding.com/sketch -->
    <title>open-book</title>
    <desc>Created with Sketch.</desc>
    <defs></defs>
    <g id="Алексей" stroke="none" stroke-width="1" fill="none" fill-rule="evenodd">
        <g id="Главная" transform="translate(-211.000000, -781.000000)" fill-rule="nonzero" fill="#FFFFFF">
            <g id="open-book" transform="translate(211.000000, 781.000000)">
                <path d="M2.10148018,0.00237444934 C2.10111013,0.00237444934 2.10069383,0.00237444934 2.10032379,0.00237444934 C1.97039207,0.00237444934 1.84818502,0.0554361233 1.75590529,0.151867841 C1.66260793,0.249365639 1.61121806,0.379185022 1.61121806,0.517387665 L1.61121806,8.2399207 C1.61121806,8.52311013 1.83199559,8.75406167 2.10342291,8.75478855 C3.24769163,8.75764758 5.16479736,9.0074978 6.4873348,10.4574141 L6.4873348,2.37556388 C6.4873348,2.27956828 6.46392952,2.18938767 6.41975551,2.11476211 C5.33427753,0.283431718 3.24833921,0.00518502203 2.10148018,0.00237444934 Z" id="Shape"></path>
                <path d="M12.1266674,8.2399207 L12.1266674,0.517339207 C12.1266674,0.379136564 12.0752775,0.249317181 11.9819802,0.151819383 C11.8897004,0.0553876652 11.7674009,0.00232599119 11.6376079,0.00232599119 C11.6371916,0.00232599119 11.6367753,0.00232599119 11.6364053,0.00232599119 C10.4895925,0.00518502203 8.40365419,0.283431718 7.31812996,2.11476211 C7.27395595,2.18938767 7.25059692,2.27956828 7.25059692,2.37556388 L7.25059692,10.4573656 C8.57313436,9.00744934 10.4902401,8.75759912 11.6345088,8.75474009 C11.9058899,8.75401322 12.1266674,8.52306167 12.1266674,8.2399207 Z" id="Shape"></path>
                <path d="M13.2463282,1.78330837 L12.8898833,1.78330837 L12.8898833,8.2399207 C12.8898833,8.96296476 12.3275551,9.55255507 11.6363128,9.55434802 C10.6657335,9.55677093 9.06538546,9.75559471 7.93198678,10.8793877 C9.89220264,10.3765859 11.9586211,10.7034361 13.1362863,10.9845903 C13.2833326,11.019674 13.4352819,10.9834273 13.5530947,10.8850573 C13.6704912,10.7869295 13.7378392,10.6402467 13.7378392,10.4828062 L13.7378392,2.29822467 C13.7378855,2.01430837 13.5173392,1.78330837 13.2463282,1.78330837 Z" id="Shape"></path>
                <path d="M0.847955947,8.2399207 L0.847955947,1.78330837 L0.491511013,1.78330837 C0.220546256,1.78330837 0,2.01430837 0,2.29822467 L0,10.4826608 C0,10.6401498 0.0673480176,10.7867841 0.184744493,10.8849119 C0.302464758,10.9832335 0.45427533,11.0196256 0.601552863,10.9844449 C1.77921806,10.7032423 3.84568282,10.3764405 5.80580617,10.8792423 C4.67245374,9.7554978 3.07210573,9.55672247 2.10152643,9.55429956 C1.4103304,9.55255507 0.847955947,8.96296476 0.847955947,8.2399207 Z" id="Shape"></path>
            </g>
        </g>
    </g>
</svg>