<?xml version="1.0" encoding="utf-8" ?>
<svg xmlns:xlink="http://www.w3.org/1999/xlink" xmlns="http://www.w3.org/2000/svg" width="22" height="17">
    <defs>
        <clipPath id="clip_0">
            <rect x="-447.01068" y="-108.99036" width="1311.36" height="875.51996" clip-rule="evenodd"/>
        </clipPath>
    </defs>
    <g clip-path="url(#clip_0)">
        <path fill="#319b42" stroke="none" transform="matrix(0.96 0 0 0.96 -0.0359497 0.25769)"
              d="M19.4541 0L2.53121 0C1.12096 0 0 1.12366 0 2.5373L0 13.5927C0 15.0063 1.12096 16.13 2.53121 16.13L19.418 16.13C20.8282 16.13 21.9492 15.0063 21.9492 13.5927L21.9492 2.5373C21.9853 1.12366 20.8282 0 19.4541 0ZM2.53121 1.44989L19.418 1.44989C19.5264 1.44989 19.6349 1.44989 19.7434 1.48613L10.9927 8.22811L2.24193 1.48613C2.35041 1.44989 2.45889 1.44989 2.53121 1.44989ZM19.4541 14.6439C20.0689 14.6439 20.5389 14.1726 20.5389 13.5564L20.5389 2.71854L10.9927 10.0405L1.4464 2.68229L1.4464 13.5564C1.4464 14.1726 1.91648 14.6439 2.53121 14.6439L19.4541 14.6439Z"
              fill-rule="evenodd"/>
    </g>
</svg>
