<?xml version="1.0" encoding="UTF-8"?>
<svg width="22px" height="13px" viewBox="0 0 22 13" version="1.1" xmlns="http://www.w3.org/2000/svg" xmlns:xlink="http://www.w3.org/1999/xlink">
    <!-- Generator: Sketch 45.2 (43514) - http://www.bohemiancoding.com/sketch -->
    <title>eye</title>
    <desc>Created with Sketch.</desc>
    <defs></defs>
    <g id="Артем" stroke="none" stroke-width="1" fill="none" fill-rule="evenodd" opacity="0.200803895">
        <g id="login" transform="translate(-891.000000, -336.000000)" fill-rule="nonzero" fill="#010101">
            <g transform="translate(392.000000, 183.000000)" id="pass">
                <g transform="translate(84.000000, 144.000000)">
                    <g id="eye" transform="translate(415.000000, 9.000000)">
                        <path d="M20.05674,7.29916 C16.85882,4.10102 13.59754,2.5762 10.36596,2.76452 C5.4736,3.05008 2.18922,7.1379 2.15644,7.17948 L0,5.47536 C0.16434,5.26746 4.09552,0.37708 10.2058,0.02046 C14.256,-0.21428 18.22348,1.57872 22,5.35568 L20.05674,7.29916 Z" id="Shape"></path>
                        <path d="M11.05324,12.61172 C8.5657,12.61172 6.54192,10.58794 6.54192,8.1004 C6.54192,5.61286 8.5657,3.58908 11.05324,3.58908 C13.54078,3.58908 15.56412,5.61286 15.56412,8.1004 C15.56412,10.58794 13.54078,12.61172 11.05324,12.61172 Z M11.05324,6.33776 C10.08128,6.33776 9.2906,7.12844 9.2906,8.10062 C9.2906,9.07258 10.08128,9.86326 11.05324,9.86326 C12.02498,9.86326 12.81566,9.07258 12.81566,8.10062 C12.81566,7.12822 12.02498,6.33776 11.05324,6.33776 Z" id="Shape"></path>
                    </g>
                </g>
            </g>
        </g>
    </g>
</svg>