<?xml version="1.0" encoding="UTF-8"?>
<svg width="15px" height="26px" viewBox="0 0 15 26" version="1.1" xmlns="http://www.w3.org/2000/svg" xmlns:xlink="http://www.w3.org/1999/xlink">
    <!-- Generator: Sketch 45.2 (43514) - http://www.bohemiancoding.com/sketch -->
    <title>fb_hover</title>
    <desc>Created with Sketch.</desc>
    <defs></defs>
    <g id="Артем" stroke="none" stroke-width="1" fill="none" fill-rule="evenodd">
        <g id="service_0" transform="translate(-722.000000, -549.000000)" fill-rule="nonzero" fill="#319b42">
            <path d="M735.527584,549.00541 L732.155967,549 C728.36807,549 725.920165,551.51147 725.920165,555.398635 L725.920165,558.348834 L722.530154,558.348834 C722.237217,558.348834 722,558.586322 722,558.879259 L722,563.153761 C722,563.446699 722.237487,563.683915 722.530154,563.683915 L725.920165,563.683915 L725.920165,574.469846 C725.920165,574.762783 726.157382,575 726.450319,575 L730.873319,575 C731.166256,575 731.403473,574.762513 731.403473,574.469846 L731.403473,563.683915 L735.367186,563.683915 C735.660123,563.683915 735.89734,563.446699 735.89734,563.153761 L735.898963,558.879259 C735.898963,558.738606 735.842972,558.603903 735.743703,558.504364 C735.644435,558.404825 735.509191,558.348834 735.368538,558.348834 L731.403473,558.348834 L731.403473,555.847914 C731.403473,554.64587 731.689918,554.035652 733.255766,554.035652 L735.527043,554.034841 C735.81971,554.034841 736.056927,553.797353 736.056927,553.504687 L736.056927,549.535564 C736.056927,549.243168 735.819981,549.005951 735.527584,549.00541 Z" id="fb_hover"></path>
        </g>
    </g>
</svg>