<?xml version="1.0" encoding="utf-8" ?>
<svg xmlns:xlink="http://www.w3.org/1999/xlink" xmlns="http://www.w3.org/2000/svg" width="20" height="26">
    <defs>
        <clipPath id="clip_0">
            <rect x="-561.66504" y="-434.27356" width="1325.0199" height="1055.36" clip-rule="evenodd"/>
        </clipPath>
    </defs>
    <g clip-path="url(#clip_0)">
        <path fill="rgb(41,108,224)" stroke="none" transform="matrix(0.97 0 0 0.97 0.0424805 0.390015)"
              d="M13.9253 0.159352L19.3406 5.57471C19.439 5.67277 19.5 5.80831 19.5 5.95831L19.5 23.8333C19.5 25.0283 18.5277 26 17.3334 26L2.16668 26C0.972258 26 0 25.0283 0 23.8334L0 2.16668C0 0.971699 0.972258 0 2.16668 0L13.5417 0C13.6917 0 13.8272 0.0609883 13.9253 0.159352ZM14.0834 4.33337C14.0834 4.93055 14.5689 5.41668 15.1667 5.41668L17.6507 5.41668L14.0834 1.8493L14.0834 4.33337ZM14.625 11.9167L4.875 11.9167C4.57559 11.9167 4.33332 11.6744 4.33332 11.375C4.33332 11.0756 4.57559 10.8333 4.875 10.8333L14.625 10.8333C14.9244 10.8333 15.1667 11.0756 15.1667 11.375C15.1667 11.6744 14.9244 11.9167 14.625 11.9167ZM4.875 15.1667L14.625 15.1667C14.9244 15.1667 15.1667 14.9244 15.1667 14.625C15.1667 14.3256 14.9244 14.0833 14.625 14.0833L4.875 14.0833C4.57559 14.0833 4.33332 14.3256 4.33332 14.625C4.33332 14.9244 4.57559 15.1667 4.875 15.1667ZM14.625 18.4167L4.875 18.4167C4.57559 18.4167 4.33332 18.1744 4.33332 17.875C4.33332 17.5756 4.57559 17.3333 4.875 17.3333L14.625 17.3333C14.9244 17.3333 15.1667 17.5756 15.1667 17.875C15.1667 18.1744 14.9244 18.4167 14.625 18.4167ZM4.875 21.6667L10.2917 21.6667C10.5911 21.6667 10.8333 21.4244 10.8334 21.125C10.8334 20.8256 10.5911 20.5833 10.2917 20.5833L4.875 20.5833C4.57559 20.5833 4.33332 20.8256 4.33332 21.125C4.33332 21.4244 4.57559 21.6667 4.875 21.6667Z"
              fill-rule="evenodd"/>
    </g>
</svg>
