<?xml version="1.0" encoding="UTF-8"?>
<svg xmlns:xlink="http://www.w3.org/1999/xlink" width="137px" height="176px" viewBox="0 0 137 176" version="1.1"
     xmlns="http://www.w3.org/2000/svg">
    <!-- Generator: Sketch 46.2 (44496) - http://www.bohemiancoding.com/sketch -->
    <title>pdf</title>
    <desc>Created with Sketch.</desc>
    <defs>
        <path d="M879.501599,753.777778 C876.558986,753.777778 874.176471,751.395826 874.176471,748.45754 L874.176471,704 L809.522755,704 C805.920337,704 803,706.913682 803,710.520332 L803,857.479668 C803,861.080748 805.931073,864 809.548388,864 L917.451612,864 C921.068187,864 924,861.061927 924,857.461926 L924,753.777778 L879.501599,753.777778 L879.501599,753.777778 Z M888.208,814.193548 C887.312,814.645161 885.968,815.096774 884.176,815.096774 C880.592,815.096774 875.216,814.193548 870.736,811.935484 C863.12,812.83871 857.296,813.741936 852.816,815.548387 C852.368,815.548387 852.368,815.548387 851.92,816 C846.544,825.483871 842.064,830 838.48,830 C837.584,830 837.136,830 836.688,829.548387 L834.448,828.193548 L834.448,827.741936 C834,826.83871 834,826.387097 834,825.483871 C834.448,823.225806 837.136,819.16129 842.512,816 C843.408,815.548387 844.752,814.645161 846.544,813.741936 C847.888,811.483871 849.232,808.774194 851.024,805.612903 C853.264,801.096774 854.608,796.580645 855.952,792.516129 C854.16,787.096774 853.264,783.935484 855.056,777.612903 C855.504,775.806452 856.848,774 858.64,774 L859.536,774 C860.432,774 861.328,774.451613 862.224,774.903226 C865.36,778.064516 864.016,785.290323 862.224,791.16129 L862.224,791.612903 C864.016,796.580645 866.704,800.645161 869.392,803.354839 C870.736,804.258064 871.632,805.16129 873.424,806.064516 C875.664,806.064516 877.456,805.612903 879.248,805.612903 C884.624,805.612903 888.208,806.516129 889.552,808.774194 C890,809.677419 890,810.580645 890,811.483871 C889.552,811.935484 889.104,813.290323 888.208,814.193548 L888.208,814.193548 Z M858.99,796.492439 C858.0975,799.641381 856.3125,803.240171 854.5275,807.288811 C853.635,809.088206 852.7425,810.437752 851.85,812.237147 L852.29625,812.237147 L852.7425,812.237147 C858.54375,809.987903 863.89875,808.638357 867.46875,808.188508 C866.57625,807.738659 866.13,807.288811 865.68375,806.838962 C863.4525,804.139869 860.775,800.541079 858.99,796.492439 L858.99,796.492439 Z M886.21125,810.437752 C885.765,809.987903 883.98,808.638357 877.7325,808.638357 L876.84,808.638357 C876.84,808.638357 876.84,808.638357 876.84,809.088206 C879.96375,810.437752 883.0875,811.33745 885.31875,811.33745 L886.21125,811.33745 L886.6575,811.33745 C886.6575,811.33745 886.6575,811.33745 886.6575,810.887601 C886.6575,810.887601 886.21125,810.887601 886.21125,810.437752 L886.21125,810.437752 Z M845.15625,817.185484 C844.26375,817.635333 843.37125,818.085181 842.925,818.53503 C839.80125,821.234123 837.57,824.383064 837.12375,825.732611 C839.80125,825.282762 842.47875,822.583669 845.15625,817.185484 L845.15625,817.185484 Z M858.54375,786.145917 C858.99,784.346522 859.43625,783.446825 859.43625,782.097278 L859.43625,781.197581 C859.8825,778.948337 859.8825,777.148941 859.43625,776.699093 C859.43625,776.699093 859.43625,776.699093 859.43625,776.249244 L858.99,775.799395 C858.99,775.799395 858.99,776.249244 858.54375,776.249244 C857.65125,778.948337 857.65125,782.097278 858.54375,786.145917 L858.54375,786.145917 Z M924,747 L884.592196,747 C882.608281,747 881,745.392828 881,743.407804 L881,704 L924,747 L924,747 Z"
              id="path-1"></path>
        <filter x="-12.0%" y="-5.9%" width="124.0%" height="118.1%" filterUnits="objectBoundingBox" id="filter-2">
            <feOffset dx="0" dy="5" in="SourceAlpha" result="shadowOffsetOuter1"></feOffset>
            <feGaussianBlur stdDeviation="4" in="shadowOffsetOuter1" result="shadowBlurOuter1"></feGaussianBlur>
            <feColorMatrix values="0 0 0 0 0   0 0 0 0 0   0 0 0 0 0  0 0 0 0.1 0" type="matrix"
                           in="shadowBlurOuter1"></feColorMatrix>
        </filter>
    </defs>
    <g id="Артем" stroke="none" stroke-width="1" fill="none" fill-rule="evenodd">
        <g id="my-service-page-" transform="translate(-795.000000, -701.000000)" fill-rule="nonzero">
            <g id="pdf">
                <use fill="black" fill-opacity="1" filter="url(#filter-2)" xlink:href="#path-1"></use>
                <use fill="#FFFFFF" fill-rule="evenodd" xlink:href="#path-1"></use>
            </g>
        </g>
    </g>
</svg>