<?xml version="1.0" encoding="UTF-8"?>
<svg xmlns:xlink="http://www.w3.org/1999/xlink" width="18px" height="14px" viewBox="0 0 18 14" version="1.1"
     xmlns="http://www.w3.org/2000/svg">
    <!-- Generator: Sketch 46.2 (44496) - http://www.bohemiancoding.com/sketch -->
    <title>Filters</title>
    <desc>Created with Sketch.</desc>
    <defs></defs>
    <g id="Алексей" stroke="none" stroke-width="1" fill="none" fill-rule="evenodd">
        <g id="Главная" transform="translate(-193.000000, -23.000000)" fill="#296CE0">
            <g id="Навигация" transform="translate(0.000000, -45.000000)">
                <g id="Поиск" transform="translate(173.000000, 55.000000)">
                    <path d="M25.2675644,24 L20,24 L20,26 L25.2675644,26 C25.6133738,26.5978014 26.2597176,27 27,27 L28,27 C28.7402824,27 29.3866262,26.5978014 29.7324356,26 L38,26 L38,24 L29.7324356,24 C29.3866262,23.4021986 28.7402824,23 28,23 L27,23 C26.2597176,23 25.6133738,23.4021986 25.2675644,24 Z M31.2675644,19 L20,19 L20,21 L31.2675644,21 C31.6133738,21.5978014 32.2597176,22 33,22 L34,22 C34.7402824,22 35.3866262,21.5978014 35.7324356,21 L38,21 L38,19 L35.7324356,19 C35.3866262,18.4021986 34.7402824,18 34,18 L33,18 C32.2597176,18 31.6133738,18.4021986 31.2675644,19 Z M22.2675644,14 L20,14 L20,16 L22.2675644,16 C22.6133738,16.5978014 23.2597176,17 24,17 L25,17 C25.7402824,17 26.3866262,16.5978014 26.7324356,16 L38,16 L38,14 L26.7324356,14 C26.3866262,13.4021986 25.7402824,13 25,13 L24,13 L24,13 C23.2597176,13 22.6133738,13.4021986 22.2675644,14 Z"
                          id="Filters"></path>
                </g>
            </g>
        </g>
    </g>
</svg>