<?xml version="1.0" encoding="UTF-8"?>
<svg width="12px" height="30px" viewBox="0 0 12 30" version="1.1" xmlns="http://www.w3.org/2000/svg" xmlns:xlink="http://www.w3.org/1999/xlink">
    <!-- Generator: Sketch 45.2 (43514) - http://www.bohemiancoding.com/sketch -->
    <title>fix</title>
    <desc>Created with Sketch.</desc>
    <defs></defs>
    <g id="Артем" stroke="none" stroke-width="1" fill="none" fill-rule="evenodd">
        <g id="message" transform="translate(-522.000000, -719.000000)" fill-rule="nonzero" fill="#CBCBCB">
            <g id="type-message" transform="translate(499.000000, 697.000000)">
                <path d="M20.4035267,47.9085367 C19.265726,47.9085367 18.1966004,47.4651502 17.392511,46.6612072 C15.7324963,45.0009973 15.7324963,42.2995321 17.392511,40.6395175 L30.5558757,27.4755182 C31.616362,26.4139093 33.0278382,25.83 34.5284895,25.83 C36.0293848,25.83 37.4408122,26.4139093 38.5013473,27.4755182 C39.5628586,28.5368343 40.1475,29.9474807 40.1475,31.4480831 C40.1475,32.9489785 39.5635419,34.3595761 38.5022258,35.4202576 L28.1398003,45.781707 C27.8286879,46.092673 27.3248751,46.092673 27.0139091,45.781707 C26.7027967,45.4706434 26.7027967,44.9668306 27.0139091,44.6556694 L37.3760906,34.29422 C38.1366907,33.5337664 38.554989,32.5228706 38.554989,31.4480831 C38.554989,30.3734909 38.1358121,29.3619606 37.3754073,28.6014094 C36.6148072,27.8409557 35.6039115,27.4224622 34.5284895,27.4224622 C33.4532627,27.4224622 32.442367,27.8409557 31.6817669,28.6014094 L18.5185486,41.7654086 C17.4797338,42.805102 17.4797338,44.4957203 18.5185486,45.5351696 C19.5262229,46.5414773 21.2806353,46.5414773 22.2882608,45.5351696 L31.127241,36.6955062 C31.3675795,36.4551677 31.5052714,36.1224814 31.5052714,35.7833523 C31.5052714,35.4394886 31.3708009,35.115344 31.1265576,34.8711495 C30.624258,34.3688499 29.8054281,34.3673368 29.3031284,34.8711495 L23.2665029,40.9084584 C22.9555857,41.2196196 22.4515289,41.2196196 22.1406117,40.9084584 C21.8294993,40.5974924 21.8294993,40.0934844 22.1406117,39.782616 L28.177042,33.7453072 C29.299907,32.622491 31.1281195,32.622491 32.2524976,33.7453072 C32.7976521,34.2903152 33.0977335,35.0143569 33.0977335,35.7834011 C33.0977335,36.542244 32.7898425,37.2848821 32.2533274,37.8213973 L23.4143472,46.6612072 C22.6102578,47.4651502 21.5410834,47.9085367 20.4035267,47.9085367 Z" id="fix" transform="translate(28.147500, 36.869268) rotate(-45.000000) translate(-28.147500, -36.869268) "></path>
            </g>
        </g>
    </g>
</svg>