<?xml version="1.0" encoding="UTF-8"?>
<svg width="38px" height="24px" viewBox="0 0 38 24" version="1.1" xmlns="http://www.w3.org/2000/svg" xmlns:xlink="http://www.w3.org/1999/xlink">
    <!-- Generator: Sketch 45.2 (43514) - http://www.bohemiancoding.com/sketch -->
    <title>gplus</title>
    <desc>Created with Sketch.</desc>
    <defs></defs>
    <g id="Артем" stroke="none" stroke-width="1" fill="none" fill-rule="evenodd">
        <g id="service_0" transform="translate(-766.000000, -514.000000)" fill-rule="nonzero" fill="#CDCDCD">
            <path d="M779.160093,528.475636 C778.716039,528.475636 778.355967,528.115645 778.355967,527.67151 L778.355967,524.724874 C778.355967,524.280738 778.715958,523.920747 779.160093,523.920747 L789.995501,523.920747 C789.995501,523.920747 789.989362,526.595794 789.980031,526.674946 C789.629781,532.988206 784.40083,538 777.999987,538 C771.344089,538 765.953806,532.58115 766.000299,525.914447 C766.046382,519.29743 771.622963,513.873096 778.238835,514.00226 C781.340664,514.062831 784.15347,515.301026 786.250305,517.287523 C786.585903,517.605441 786.584676,518.140515 786.248095,518.457369 L784.095681,520.483156 C783.787668,520.77308 783.310954,520.771279 782.997784,520.487003 C781.675608,519.287116 779.92182,518.554857 777.999987,518.554857 C773.796822,518.554857 770.395901,522.056048 770.560589,526.295147 C770.714228,530.249806 773.986558,533.415726 777.944081,533.444948 C781.205688,533.469013 783.991646,531.383883 785.020296,528.475636 L779.160093,528.475636 Z M799.925202,524.188326 L802.804227,524.188326 C803.19344,524.188326 803.508902,524.503788 803.508902,524.893001 L803.508902,527.316185 C803.508902,527.705397 803.19344,528.020859 802.804227,528.020859 L799.925202,528.020859 L799.925202,530.899884 C799.925202,531.289096 799.60974,531.604559 799.220528,531.604559 L796.797344,531.604559 C796.408131,531.604559 796.092669,531.289096 796.092669,530.899884 L796.092669,528.020859 L793.213644,528.020859 C792.824432,528.020859 792.508969,527.705397 792.508969,527.316185 L792.508969,524.893001 C792.508969,524.503788 792.824432,524.188326 793.213644,524.188326 L796.092669,524.188326 L796.092669,521.309301 C796.092669,520.920089 796.408131,520.604626 796.797344,520.604626 L799.220528,520.604626 C799.60974,520.604626 799.925202,520.920089 799.925202,521.309301 L799.925202,524.188326 Z" id="gplus"></path>
        </g>
    </g>
</svg>