<?xml version="1.0" encoding="UTF-8"?>
<svg width="12px" height="18px" viewBox="0 0 12 18" version="1.1" xmlns="http://www.w3.org/2000/svg" xmlns:xlink="http://www.w3.org/1999/xlink">
    <!-- Generator: Sketch 45.2 (43514) - http://www.bohemiancoding.com/sketch -->
    <title>grey_arrow_back</title>
    <desc>Created with Sketch.</desc>
    <defs></defs>
    <g id="Артем" stroke="none" stroke-width="1" fill="none" fill-rule="evenodd">
        <g id="message" transform="translate(-137.000000, -74.000000)" fill="#CBCBCB">
            <path d="M136.842765,77.7704824 L142.273028,83.519482 L142.273028,83.519482 C142.652264,83.9209776 143.285172,83.9390227 143.686667,83.5597869 C143.700482,83.5467377 143.713923,83.5332972 143.726972,83.519482 L149.157235,77.7704824 L149.157235,77.7704824 C149.536471,77.3689868 150.169378,77.3509417 150.570874,77.7301775 C150.584953,77.743476 150.598643,77.7571807 150.611926,77.7712742 L151.353563,78.5581566 L151.353563,78.5581566 C151.716604,78.9433461 151.716604,79.5447175 151.353563,79.9299071 L143.727719,88.0209877 L143.727719,88.0209877 C143.348921,88.4228958 142.716033,88.44163 142.314125,88.0628315 C142.299767,88.0492994 142.285813,88.0353454 142.272281,88.0209877 L134.646437,79.9299071 L134.646437,79.9299071 C134.283396,79.5447175 134.283396,78.9433461 134.646437,78.5581566 L135.388074,77.7712742 L135.388074,77.7712742 C135.766873,77.369366 136.39976,77.3506319 136.801668,77.7294304 C136.815762,77.7427135 136.829467,77.7564033 136.842765,77.7704824 Z" id="grey_arrow_back" transform="translate(143.000000, 82.896552) rotate(90.000000) translate(-143.000000, -82.896552) "></path>
        </g>
    </g>
</svg>