<?xml version="1.0" encoding="UTF-8"?>
<svg width="12px" height="18px" viewBox="0 0 12 18" version="1.1" xmlns="http://www.w3.org/2000/svg" xmlns:xlink="http://www.w3.org/1999/xlink">
    <!-- Generator: Sketch 45.2 (43514) - http://www.bohemiancoding.com/sketch -->
    <title>grey_arrow_back_hover</title>
    <desc>Created with Sketch.</desc>
    <defs></defs>
    <g id="Артем" stroke="none" stroke-width="1" fill="none" fill-rule="evenodd">
        <g id="message" transform="translate(-137.000000, -104.000000)" fill="#296CE0">
            <path d="M136.842765,107.770482 L142.273028,113.519482 L142.273028,113.519482 C142.652264,113.920978 143.285172,113.939023 143.686667,113.559787 C143.700482,113.546738 143.713923,113.533297 143.726972,113.519482 L149.157235,107.770482 L149.157235,107.770482 C149.536471,107.368987 150.169378,107.350942 150.570874,107.730177 C150.584953,107.743476 150.598643,107.757181 150.611926,107.771274 L151.353563,108.558157 L151.353563,108.558157 C151.716604,108.943346 151.716604,109.544718 151.353563,109.929907 L143.727719,118.020988 L143.727719,118.020988 C143.348921,118.422896 142.716033,118.44163 142.314125,118.062832 C142.299767,118.049299 142.285813,118.035345 142.272281,118.020988 L134.646437,109.929907 L134.646437,109.929907 C134.283396,109.544718 134.283396,108.943346 134.646437,108.558157 L135.388074,107.771274 L135.388074,107.771274 C135.766873,107.369366 136.39976,107.350632 136.801668,107.72943 C136.815762,107.742714 136.829467,107.756403 136.842765,107.770482 Z" id="grey_arrow_back_hover" transform="translate(143.000000, 112.896552) rotate(90.000000) translate(-143.000000, -112.896552) "></path>
        </g>
    </g>
</svg>