<?xml version="1.0" encoding="UTF-8"?>
<svg width="15px" height="15px" viewBox="0 0 15 15" version="1.1" xmlns="http://www.w3.org/2000/svg" xmlns:xlink="http://www.w3.org/1999/xlink">
    <!-- Generator: Sketch 45.2 (43514) - http://www.bohemiancoding.com/sketch -->
    <title>hammer_white</title>
    <desc>Created with Sketch.</desc>
    <defs></defs>
    <g id="Артем" stroke="none" stroke-width="1" fill="none" fill-rule="evenodd">
        <g id="service_0" transform="translate(-467.000000, -265.000000)" fill-rule="nonzero" fill="#FFFFFF">
            <g id="skill" transform="translate(456.000000, 228.000000)">
                <g id="yuor" transform="translate(0.000000, 33.000000)">
                    <g id="hammer_white" transform="translate(11.000000, 3.923763)">
                        <path d="M14.5403996,13.9248288 C14.5642156,13.3838653 14.2874153,12.9879849 13.9367368,12.6130044 C12.1240472,10.6732152 10.3188913,8.72637833 8.51106221,6.78197171 C8.45492449,6.72145962 8.40121697,6.65876034 8.3647639,6.61768988 C8.66149187,6.16664393 8.95141527,5.72823504 9.23866544,5.28788198 C9.3890951,5.05725557 9.35385713,4.87110191 9.16041286,4.65724391 C8.32563761,3.73400922 7.50374245,2.79862351 6.6927832,1.85424604 C6.52291191,1.65642739 6.34939531,1.60028967 6.13675241,1.70503148 C5.67112523,1.93468581 5.1799809,2.13493466 4.76198572,2.43457887 C3.83389062,3.09972584 2.98574925,3.8550334 2.45183332,4.9007504 C2.32035926,5.15810906 2.3327533,5.33843023 2.53689048,5.56371019 C3.36486116,6.47698104 4.17800758,7.40434708 4.97948903,8.34119092 C5.15665094,8.54824434 5.33454191,8.60438207 5.56127999,8.50109837 C6.03371174,8.28602528 6.4990959,8.05539887 7.01211207,7.80994821 C7.52318408,8.4264911 8.07435446,9.08872182 8.62285162,9.75289671 C9.83066326,11.2161228 11.0367738,12.6805641 12.2445854,14.1437902 C12.3199217,14.2351659 12.3991464,14.3236253 12.4817734,14.4084395 C13.1058499,15.0470972 13.9085464,14.9588808 14.3931292,14.200414 C14.4244788,14.1513238 14.4640912,14.1078232 14.4998152,14.0616493 C14.5136673,14.0159615 14.5270335,13.9705166 14.5403996,13.9248288 Z" id="Shape"></path>
                        <path d="M7.12608867,1.6970118 L9.38350563,4.24313706 C9.70599377,4.60669566 10.2622676,4.64023248 10.6258262,4.31774434 C10.9893848,3.9952562 11.0229216,3.43898239 10.7004335,3.0754238 L8.44325951,0.529298541 C8.12077137,0.165739947 7.56449756,0.132203125 7.20093896,0.454691263 C6.83713735,0.77693638 6.80360053,1.33321019 7.12608867,1.6970118 Z" id="Shape"></path>
                        <path d="M0.988850213,7.13848271 L3.24626718,9.68460797 C3.56875531,10.0481666 4.12502912,10.0817034 4.48858772,9.75921525 C4.85214631,9.43672711 4.88568313,8.8804533 4.563195,8.5168947 L2.30577803,5.97076945 C1.9832899,5.60721085 1.42701608,5.57367403 1.06345749,5.89616217 C0.699655877,6.21840728 0.666362075,6.77468109 0.988850213,7.13848271 Z" id="Shape"></path>
                        <path d="M3.9274535,14.7897386 C2.94322067,14.7897386 1.95898785,14.7897386 0.974755026,14.7897386 C0.30231744,14.7897386 -0.0507912741,14.3814642 0.0590539694,13.7104847 C0.0845711167,13.5539796 0.144111127,13.392857 0.226981101,13.2577376 C0.366231819,13.0307565 0.599774472,12.9631969 0.857133128,12.9634399 C1.78158292,12.964412 2.70603271,12.9641689 3.63048251,12.9636829 C4.71435372,12.9631969 5.7979819,12.9619818 6.88185311,12.9619818 C7.56206735,12.9619818 7.91687721,13.3858094 7.80630291,14.0631074 C7.75016518,14.4062523 7.59973552,14.6752759 7.23641995,14.7659226 C7.14893259,14.7877944 7.05464065,14.7885235 6.96350798,14.7887665 C5.95181385,14.7902246 4.93963367,14.7897386 3.9274535,14.7897386 Z" id="Shape"></path>
                        <path d="M3.91748966,12.6312309 C3.196691,12.6312309 2.47589235,12.631717 1.75509369,12.6309879 C1.43819503,12.6307449 1.27342716,12.4975697 1.22214984,12.1850454 C1.19031417,11.9911151 1.19347343,11.7962127 1.27974569,11.6112741 C1.35605411,11.4474783 1.48412589,11.3616921 1.66323196,11.3527003 C1.72690332,11.3495411 1.79057468,11.3517283 1.85424604,11.3517283 C3.26400767,11.3514852 4.6737693,11.3512422 6.08377395,11.3512422 C6.44295818,11.3512422 6.62255029,11.5104206 6.6475814,11.8681467 C6.65633014,11.9935453 6.65025462,12.1242903 6.62425144,12.2467726 C6.56859975,12.5082626 6.40820626,12.6302588 6.13966866,12.6309879 C5.39894233,12.632446 4.65821599,12.6314739 3.91748966,12.6312309 Z" id="Shape"></path>
                    </g>
                </g>
            </g>
        </g>
    </g>
</svg>