<?xml version="1.0" encoding="UTF-8"?>
<svg width="23px" height="22px" viewBox="0 0 23 22" version="1.1" xmlns="http://www.w3.org/2000/svg" xmlns:xlink="http://www.w3.org/1999/xlink">
    <!-- Generator: Sketch 45.2 (43514) - http://www.bohemiancoding.com/sketch -->
    <title>land_registr</title>
    <desc>Created with Sketch.</desc>
    <defs></defs>
    <g id="Артем" stroke="none" stroke-width="1" fill="none" fill-rule="evenodd">
        <g id="registration" transform="translate(-464.000000, -351.000000)" fill-rule="nonzero" fill="#CDCDCD">
            <g id="registration-3" transform="translate(392.000000, 158.000000)">
                <g id="email" transform="translate(71.000000, 193.000000)">
                    <path d="M23.2077713,0.584969192 C23.0480843,0.474538861 22.844437,0.449380872 22.6630347,0.517439853 L15.9315512,3.04171304 L9.20298085,0.518499136 C9.20271603,0.518499136 9.20218638,0.518234316 9.20165674,0.517969495 L9.20006782,0.517439853 C9.18629713,0.512143434 9.1719968,0.511348971 9.15796129,0.507376657 C9.12671242,0.498107924 9.09572837,0.48830955 9.06342021,0.484337235 C9.03958633,0.481424205 9.01601726,0.484072415 8.9924482,0.484072415 C8.96887914,0.484072415 8.94531007,0.481424205 8.92147619,0.484337235 C8.88916804,0.48830955 8.85818399,0.498107924 8.82693511,0.507376657 C8.8128996,0.511348971 8.79859927,0.512408255 8.78482859,0.517439853 L8.78323966,0.517969495 C8.78271002,0.518234316 8.78218038,0.518499136 8.78191556,0.518499136 L1.84572554,3.11957039 C1.6150665,3.20616684 1.462,3.42676268 1.462,3.67331097 L1.462,20.5551161 C1.462,20.7489651 1.55707072,20.9306322 1.71649292,21.0413274 C1.81686006,21.1107105 1.93470537,21.1464613 2.05334516,21.1464613 C2.1235227,21.1464613 2.19370025,21.1340147 2.26096477,21.1085919 L8.9924482,18.5843187 L15.7239316,21.1085919 C15.7310818,21.1112401 15.7387616,21.1122994 15.7456469,21.114418 C15.7551805,21.1175958 15.7644492,21.1197144 15.773718,21.1220978 C15.8256229,21.1366629 15.8785871,21.1461965 15.9315512,21.1461965 C15.9845154,21.1461965 16.0372148,21.1366629 16.0893845,21.1220978 C16.0986533,21.1194496 16.107922,21.117331 16.1174555,21.114418 C16.1243409,21.1120346 16.1320207,21.1109753 16.1391709,21.1085919 L23.0782739,18.5064614 C23.3089329,18.4198649 23.4619994,18.1992691 23.4619994,17.9527208 L23.4619994,1.07118043 C23.4622643,0.877066687 23.3671936,0.695664344 23.2077713,0.584969192 Z M2.64495513,4.08325379 L8.40110305,1.92469832 L8.40110305,17.5433076 L2.64495513,19.7018631 L2.64495513,4.08325379 Z M9.58405818,1.92469832 L15.3402061,4.08325379 L15.3402061,19.7018631 L9.58405818,17.5433076 L9.58405818,1.92469832 L9.58405818,1.92469832 Z M22.2793091,17.5430428 L16.5231612,19.7015983 L16.5231612,4.08325379 L22.2793091,1.92469832 L22.2793091,17.5430428 Z" id="land_registr"></path>
                </g>
            </g>
        </g>
    </g>
</svg>