<?xml version="1.0" encoding="UTF-8"?>
<svg width="23px" height="17px" viewBox="0 0 23 17" version="1.1" xmlns="http://www.w3.org/2000/svg" xmlns:xlink="http://www.w3.org/1999/xlink">
    <!-- Generator: Sketch 45.2 (43514) - http://www.bohemiancoding.com/sketch -->
    <title>mail_login</title>
    <desc>Created with Sketch.</desc>
    <defs></defs>
    <g id="Артем" stroke="none" stroke-width="1" fill="none" fill-rule="evenodd" fill-opacity="0.203577899">
        <g id="login" transform="translate(-475.000000, -276.000000)" fill-rule="nonzero" fill="#000000">
            <g transform="translate(392.000000, 183.000000)" id="email">
                <g transform="translate(83.000000, 93.000000)">
                    <path d="M20.0984432,0.8 L3.13697216,0.8 C1.72351624,0.8 0.6,1.92351624 0.6,3.33697216 L0.6,14.3909223 C0.6,15.8043782 1.72351624,16.9278944 3.13697216,16.9278944 L20.0622007,16.9278944 C21.4756566,16.9278944 22.5991729,15.8043782 22.5991729,14.3909223 L22.5991729,3.33697216 C22.6354153,1.92351624 21.4756566,0.8 20.0984432,0.8 Z M3.13697216,2.24969838 L20.0622007,2.24969838 C20.1709281,2.24969838 20.2796555,2.24969838 20.3883828,2.28594084 L11.6177077,9.02703829 L2.84703248,2.28594084 C2.95575986,2.24969838 3.06448724,2.24969838 3.13697216,2.24969838 Z M21.185717,14.3546798 C21.185717,14.9708016 20.714565,15.4419536 20.0984432,15.4419536 L3.13697216,15.4419536 C2.52085035,15.4419536 2.04969838,14.9708016 2.04969838,14.3546798 L2.04969838,3.481942 L11.6177077,10.8391613 L21.185717,3.51818446 L21.185717,14.3546798 Z" id="mail_login"></path>
                </g>
            </g>
        </g>
    </g>
</svg>