<?xml version="1.0" encoding="utf-8" ?>
<svg xmlns:xlink="http://www.w3.org/1999/xlink" xmlns="http://www.w3.org/2000/svg" width="27" height="26">
    <defs>
        <clipPath id="clip_0">
            <rect x="-573" y="-169" width="1366" height="1501" clip-rule="evenodd"/>
        </clipPath>
    </defs>
    <g clip-path="url(#clip_0)">
        <path fill="rgb(49,155,66)" stroke="none" transform="translate(0 10.5381)"
              d="M24.7462 0L19.5282 0C19.2634 0 19.0494 0.213983 19.0494 0.47871C19.0494 0.743436 19.2634 0.957419 19.5282 0.957419L23.8859 0.957419L25.2738 13.8826L1.08583 13.8826L2.71505 0.957419L7.0804 0.957419C7.34515 0.957419 7.55916 0.743436 7.55916 0.47871C7.55916 0.213983 7.34515 1.70072e-15 7.0804 1.70072e-15L1.87052 1.70072e-15L0 14.84L26.34 14.84L24.7462 0Z"/>
    </g>
    <defs>
        <clipPath id="clip_1">
            <rect x="-573" y="-169" width="1366" height="1501" clip-rule="evenodd"/>
        </clipPath>
    </defs>
    <g clip-path="url(#clip_1)">
        <path fill="rgb(49,155,66)" stroke="none" transform="translate(7.55859 0.000976563)"
              d="M4.98993 18.3021C5.05746 18.2585 5.13264 18.2217 5.20304 18.18C4.30703 17.2233 1.43366 13.7985 0.236909 8.12608C-0.00828521 6.96487 -0.063358 5.85011 0.0726479 4.81292C0.485455 1.66448 2.44174 0 5.72982 0C9.01887 0 10.9752 1.66448 11.387 4.81292C11.5235 5.84963 11.4684 6.96439 11.2232 8.12608C10.0145 13.8541 7.09515 17.2922 6.22883 18.2097C6.22548 18.2135 6.22069 18.2164 6.21686 18.2202C6.31072 18.4491 6.21973 18.7144 5.99561 18.8279C5.82704 18.9131 5.66374 19.0065 5.51001 19.1061C5.4195 19.1645 5.33282 19.2249 5.24758 19.2876C5.16186 19.3498 5.06272 19.38 4.96455 19.38C4.81705 19.38 4.67147 19.3125 4.5776 19.1846C4.42149 18.9715 4.46746 18.6718 4.68057 18.5152C4.78161 18.4415 4.88458 18.3701 4.98993 18.3021ZM5.7303 0.958178C2.91345 0.958178 1.37332 2.26017 1.02229 4.9379C0.900656 5.86734 0.951419 6.87389 1.1741 7.92927C2.26024 13.0759 4.85057 16.3446 5.7303 17.3368C6.60907 16.3455 9.19989 13.0783 10.2865 7.92927C10.5087 6.87389 10.56 5.86687 10.4378 4.9379C10.0873 2.26017 8.54764 0.958178 5.7303 0.958178Z"
              fill-rule="evenodd"/>
    </g>
    <defs>
        <clipPath id="clip_2">
            <rect x="-573" y="-169" width="1366" height="1501" clip-rule="evenodd"/>
        </clipPath>
    </defs>
    <g clip-path="url(#clip_2)">
        <path fill="rgb(49,155,66)" stroke="none" transform="translate(9.77051 2.02637)"
              d="M7.0335 3.51675C7.0335 5.45608 5.45608 7.0335 3.51675 7.0335C1.57741 7.0335 0 5.45608 0 3.51675C0 1.57741 1.57741 0 3.51675 0C5.45608 0 7.0335 1.57741 7.0335 3.51675ZM6.07604 3.51723C6.07604 2.10593 4.92757 0.957938 3.51675 0.957938C2.10593 0.957938 0.95746 2.10593 0.95746 3.51723C0.95746 4.92852 2.10545 6.07652 3.51675 6.07652C4.92805 6.07652 6.07604 4.92852 6.07604 3.51723Z"
              fill-rule="evenodd"/>
    </g>
    <defs>
        <clipPath id="clip_3">
            <rect x="-573" y="-169" width="1366" height="1501" clip-rule="evenodd"/>
        </clipPath>
    </defs>
    <g clip-path="url(#clip_3)">
        <path fill="rgb(49,155,66)" stroke="none" transform="translate(14.667 17.1479)"
              d="M0.378442 0.167024C0.120138 0.221371 -0.0444108 0.474993 0.0105984 0.732905C0.0584324 0.95697 0.256944 1.11 0.477937 1.11C0.510942 1.11 0.544904 1.10666 0.578388 1.09951C0.858696 1.0404 1.16244 0.990341 1.48054 0.950295C1.74267 0.918354 1.92922 0.679988 1.89622 0.418739C1.86369 0.157013 1.62691 -0.0317734 1.36287 0.00445822C1.01703 0.0468874 0.685537 0.101712 0.378442 0.167024Z"/>
    </g>
    <defs>
        <clipPath id="clip_4">
            <rect x="-573" y="-169" width="1366" height="1501" clip-rule="evenodd"/>
        </clipPath>
    </defs>
    <g clip-path="url(#clip_4)">
        <path fill="rgb(49,155,66)" stroke="none" transform="translate(17.5205 16.9707)"
              d="M0.000460529 0.539278C0.0109926 0.796356 0.223549 0.997422 0.478233 0.997422C0.485414 0.997422 0.492116 0.997422 0.499297 0.996943L1.45724 0.957209C1.72102 0.945241 1.92591 0.721195 1.91347 0.457415C1.9015 0.192677 1.65543 -0.0136552 1.41367 0.000706654L0.458126 0.0404412C0.193867 0.051452 -0.011029 0.27454 0.000460529 0.539278Z"/>
    </g>
    <defs>
        <clipPath id="clip_5">
            <rect x="-573" y="-169" width="1366" height="1501" clip-rule="evenodd"/>
        </clipPath>
    </defs>
    <g clip-path="url(#clip_5)">
        <path fill="rgb(49,155,66)" stroke="none" transform="translate(9.76465 19.6167)"
              d="M0.973617 0.0963473C0.727762 0.282531 0.473775 0.461517 0.217874 0.627546C-0.00358741 0.771983 -0.0667255 1.06901 0.0772484 1.29167C0.168607 1.43322 0.322626 1.51 0.479036 1.51C0.568482 1.51 0.658406 1.48505 0.739241 1.43274C1.01332 1.25424 1.28644 1.06229 1.54999 0.862675C1.76045 0.702884 1.80254 0.402015 1.64374 0.190399C1.48446 -0.0192977 1.18551 -0.0634444 0.973617 0.0963473Z"/>
    </g>
    <defs>
        <clipPath id="clip_6">
            <rect x="-573" y="-169" width="1366" height="1501" clip-rule="evenodd"/>
        </clipPath>
    </defs>
    <g clip-path="url(#clip_6)">
        <path fill="rgb(49,155,66)" stroke="none" transform="translate(20.3828 16.4302)"
              d="M1.02638 0.125893C0.864568 0.239352 0.654405 0.321694 0.382008 0.377705C0.123015 0.430844 -0.0435829 0.684571 0.0100348 0.943564C0.0569504 1.17 0.256102 1.32559 0.478711 1.32559C0.510786 1.32559 0.54334 1.32224 0.575894 1.31554C0.978984 1.23224 1.30644 1.09915 1.57931 0.90718L1.64346 0.860265C1.8541 0.700369 1.89575 0.400206 1.73633 0.189564C1.57644 -0.0210768 1.27675 -0.0622476 1.06563 0.0966908L1.02638 0.125893Z"/>
    </g>
    <defs>
        <clipPath id="clip_7">
            <rect x="-573" y="-169" width="1366" height="1501" clip-rule="evenodd"/>
        </clipPath>
    </defs>
    <g clip-path="url(#clip_7)">
        <path fill="rgb(49,155,66)" stroke="none" transform="translate(3.20605 19.6948)"
              d="M1.03549 0.604512C1.10491 0.349349 0.95363 0.0865261 0.698467 0.017589C0.445219 -0.0537418 0.180481 0.0984943 0.111544 0.354615C0.0512241 0.576745 0.0153194 0.803663 0.00382984 1.02723C0.00143619 1.08228 0 1.13782 0 1.19622C0.00047873 1.29005 0.0047873 1.38388 0.0138832 1.47724C0.0392559 1.72378 0.247025 1.90714 0.489741 1.90714C0.505539 1.90714 0.521816 1.90618 0.53905 1.90474C0.801872 1.87745 0.993364 1.64288 0.967034 1.37958C0.960332 1.31686 0.957938 1.25319 0.95746 1.19287C0.95746 1.15314 0.958896 1.1134 0.960811 1.07415C0.968471 0.919037 0.993364 0.760578 1.03549 0.604512Z"/>
    </g>
    <defs>
        <clipPath id="clip_8">
            <rect x="-573" y="-169" width="1366" height="1501" clip-rule="evenodd"/>
        </clipPath>
    </defs>
    <g clip-path="url(#clip_8)">
        <path fill="rgb(49,155,66)" stroke="none" transform="translate(19.9072 12.811)"
              d="M1.49091 0.0237956C1.1108 -0.0269498 0.723024 0.00416767 0.348657 0.110446C0.0939728 0.181776 -0.0539547 0.446514 0.0183335 0.70072C0.077696 0.91184 0.269667 1.04971 0.478393 1.04971C0.521957 1.04971 0.565522 1.04397 0.608607 1.03152C0.857547 0.961627 1.11367 0.939606 1.36261 0.973117C1.63165 1.00663 1.86623 0.824232 1.90118 0.562845C1.9366 0.300023 1.75277 0.0592216 1.49091 0.0237956Z"/>
    </g>
    <defs>
        <clipPath id="clip_9">
            <rect x="-573" y="-169" width="1366" height="1501" clip-rule="evenodd"/>
        </clipPath>
    </defs>
    <g clip-path="url(#clip_9)">
        <path fill="rgb(49,155,66)" stroke="none" transform="translate(22.3066 13.9292)"
              d="M0.0439362 1.27695C-0.0340967 1.52924 0.107607 1.79781 0.359898 1.87536C0.407292 1.8902 0.454208 1.89691 0.501123 1.89691C0.70602 1.89691 0.895118 1.76526 0.95831 1.5594C1.0057 1.40717 1.03491 1.25254 1.04592 1.09839C1.04831 1.05865 1.04975 1.01844 1.04975 0.978703C1.04975 0.754657 1.00858 0.530133 0.927672 0.312311C0.835755 0.0638501 0.558571 -0.0615772 0.312504 0.0298602C0.0640429 0.121776 -0.0618631 0.397525 0.0300531 0.645028C0.0712238 0.756094 0.092288 0.868595 0.092288 0.978224L0.0908518 1.03424C0.085107 1.1137 0.0697877 1.19317 0.0439362 1.27695Z"/>
    </g>
    <defs>
        <clipPath id="clip_10">
            <rect x="-573" y="-169" width="1366" height="1501" clip-rule="evenodd"/>
        </clipPath>
    </defs>
    <g clip-path="url(#clip_10)">
        <path fill="rgb(49,155,66)" stroke="none" transform="translate(7.21289 21.0972)"
              d="M1.15541 0.0456902C0.874872 0.177341 0.58907 0.299417 0.306141 0.409046C0.0595953 0.503835 -0.0629596 0.781019 0.0323077 1.02804C0.105553 1.21762 0.286513 1.33443 0.478963 1.33443C0.53641 1.33443 0.594815 1.32438 0.651305 1.30236C0.955299 1.18507 1.26169 1.0539 1.56233 0.913149C1.80169 0.801126 1.90462 0.515803 1.79212 0.276438C1.68057 0.0365944 1.39621 -0.06729 1.15541 0.0456902Z"/>
    </g>
    <defs>
        <clipPath id="clip_11">
            <rect x="-573" y="-169" width="1366" height="1501" clip-rule="evenodd"/>
        </clipPath>
    </defs>
    <g clip-path="url(#clip_11)">
        <path fill="rgb(49,155,66)" stroke="none" transform="translate(4.4043 17.9902)"
              d="M0.479483 1.15955C0.556558 1.15955 0.63507 1.14088 0.708316 1.10114C0.84619 1.02598 0.99316 0.979065 1.14444 0.962788C1.20907 0.955128 1.27513 0.955128 1.3388 0.963746C1.60833 0.998693 1.84147 0.813903 1.87594 0.552038C1.91041 0.289694 1.7261 0.0493716 1.46423 0.014903C1.32157 -0.00376746 1.17651 -0.00472492 1.03768 0.0110732C0.762891 0.0412331 0.497674 0.12549 0.249692 0.260491C0.0175084 0.387355 -0.0681843 0.677465 0.0586792 0.909649C0.145808 1.06954 0.310012 1.15955 0.479483 1.15955Z"/>
    </g>
    <defs>
        <clipPath id="clip_12">
            <rect x="-573" y="-169" width="1366" height="1501" clip-rule="evenodd"/>
        </clipPath>
    </defs>
    <g clip-path="url(#clip_12)">
        <path fill="rgb(49,155,66)" stroke="none" transform="translate(4.42578 21.9609)"
              d="M0.358413 0.942534C0.461818 0.969343 0.567139 0.98945 0.671502 1.0019C0.794057 1.01674 0.916612 1.0244 1.03965 1.0244C1.18949 1.0244 1.33981 1.01387 1.48965 0.994716C1.752 0.961684 1.93822 0.722319 1.90471 0.459975C1.8712 0.197631 1.63327 0.012841 1.36997 0.0449159C1.17656 0.0698098 0.98124 0.0755546 0.787833 0.0520968C0.724641 0.0439584 0.661449 0.0319902 0.599214 0.0161921C0.343093 -0.0522663 0.0821855 0.102842 0.0151633 0.358963C-0.0504227 0.615083 0.102771 0.87647 0.358413 0.942534Z"/>
    </g>
</svg>
