<?xml version="1.0" encoding="utf-8" ?>
<svg xmlns:xlink="http://www.w3.org/1999/xlink" xmlns="http://www.w3.org/2000/svg" width="16" height="22">
    <defs>
        <clipPath id="clip_0">
            <rect x="-684.45276" y="-458.09253" width="1338.6799" height="893.75995" clip-rule="evenodd"/>
        </clipPath>
    </defs>
    <g clip-path="url(#clip_0)">
        <path fill="rgb(41,108,224)" stroke="none" transform="matrix(0.98 0 0 0.98 -0.0263977 0.219971)"
              d="M7.162 21.749C7.28779 21.9077 7.4782 22 7.68 22C7.88206 22 8.07247 21.9074 8.19827 21.7488C8.4909 21.3791 15.36 12.6392 15.36 7.71771C15.36 3.46232 11.9146 0 7.68 0C3.44541 0 0 3.46232 0 7.71771C0 12.6504 6.86936 21.3799 7.162 21.749ZM1.32414 7.71771C1.32414 4.19604 4.17554 1.33064 7.68 1.33064C11.1845 1.33064 14.0359 4.19604 14.0359 7.71771C14.0359 11.4454 9.28035 18.1066 7.67974 20.2425C6.07885 18.1081 1.32414 11.4539 1.32414 7.71771ZM7.68 11.1257C5.80979 11.1257 4.28862 9.59711 4.28862 7.71771C4.28862 5.83832 5.80979 4.30968 7.68 4.30968C9.55021 4.30968 11.0714 5.83832 11.0714 7.71771C11.0714 9.59711 9.54995 11.1257 7.68 11.1257ZM5.61276 7.71771C5.61276 6.5723 6.54018 5.64032 7.68 5.64032C8.81982 5.64032 9.74724 6.5723 9.74724 7.71771C9.74724 8.86313 8.81982 9.79511 7.68 9.79511C6.54018 9.79511 5.61276 8.86313 5.61276 7.71771Z"
              fill-rule="evenodd"/>
    </g>
</svg>
