<?xml version="1.0" encoding="UTF-8"?>
<svg width="13px" height="11px" viewBox="0 0 13 11" version="1.1" xmlns="http://www.w3.org/2000/svg" xmlns:xlink="http://www.w3.org/1999/xlink">
    <!-- Generator: Sketch 45.2 (43514) - http://www.bohemiancoding.com/sketch -->
    <title>med</title>
    <desc>Created with Sketch.</desc>
    <defs></defs>
    <g id="Алексей" stroke="none" stroke-width="1" fill="none" fill-rule="evenodd">
        <g id="Главная" transform="translate(-557.000000, -776.000000)" fill-rule="nonzero" fill="#FFFFFF">
            <g id="med" transform="translate(557.000000, 776.000000)">
                <path d="M0.478410156,2.31195 C0.159453125,2.626025 0,3.00195 0,3.43965 L0,9.37815 C0,9.81595 0.159453125,10.191875 0.478410156,10.505925 C0.797392578,10.819975 1.17919141,10.977 1.62380664,10.977 L1.85577539,10.977 L1.85577539,1.8408 L1.62380664,1.8408 C1.17908984,1.8408 0.797316406,1.9979 0.478410156,2.31195 Z" id="Shape"></path>
                <path d="M9.27890234,0.698825 C9.27890234,0.508475 9.21128711,0.346725 9.07592969,0.213475 C8.94072461,0.080225 8.77632031,0.01365 8.58307227,0.01365 L4.4075332,0.01365 C4.21425977,0.01365 4.04995703,0.080225 3.91459961,0.213475 C3.77926758,0.34665 3.71162695,0.50845 3.71162695,0.698825 L3.71162695,1.8408 L2.55175781,1.8408 L2.55175781,10.977 L10.4387207,10.977 L10.4387207,1.8408 L9.27890234,1.8408 L9.27890234,0.698825 Z M4.63950195,0.927225 L8.35107813,0.927225 L8.35107813,1.8408 L4.63950195,1.8408 L4.63950195,0.927225 Z M9.27890234,7.094125 C9.27890234,7.160875 9.25719336,7.21545 9.21372461,7.2584 C9.17028125,7.301075 9.11470117,7.32255 9.04708594,7.32255 L7.4232793,7.32255 L7.4232793,8.921375 C7.4232793,8.987925 7.40139258,9.0427 7.35794922,9.08545 C7.31468359,9.128225 7.25905273,9.149625 7.19136133,9.149625 L5.79947266,9.149625 C5.73175586,9.149625 5.67622656,9.128225 5.63273242,9.08545 C5.58928906,9.042675 5.5675293,8.987925 5.5675293,8.921375 L5.5675293,7.32255 L3.94372266,7.32255 C3.87598047,7.32255 3.82047656,7.301075 3.77698242,7.2584 C3.73346289,7.215425 3.71172852,7.160875 3.71172852,7.094125 L3.71172852,5.72375 C3.71172852,5.657 3.73346289,5.602275 3.77698242,5.559475 C3.820375,5.51675 3.87598047,5.495375 3.9435957,5.495375 L5.56740234,5.495375 L5.56740234,3.8965 C5.56740234,3.82985 5.58913672,3.775175 5.63265625,3.732325 C5.67615039,3.6895 5.7316543,3.668125 5.79939648,3.668125 L7.19125977,3.668125 C7.25892578,3.668125 7.31453125,3.6895 7.35789844,3.732325 C7.4013418,3.775175 7.42322852,3.82985 7.42322852,3.8965 L7.42322852,5.49535 L9.04703516,5.49535 C9.11465039,5.49535 9.17025586,5.516725 9.21367383,5.55945 C9.25704102,5.60225 9.27875,5.656975 9.27875,5.723725 L9.27875,7.0941 L9.27890234,7.0941 L9.27890234,7.094125 Z" id="Shape"></path>
                <path d="M12.5121191,2.31195 C12.1931367,1.9979 11.8113125,1.8408 11.3667227,1.8408 L11.1347285,1.8408 L11.1347285,10.977 L11.3667227,10.977 C11.8113379,10.977 12.1931367,10.82 12.5121191,10.505925 C12.831,10.191875 12.9905293,9.815925 12.9905293,9.37815 L12.9905293,3.43965 C12.9905039,3.00195 12.8309746,2.626025 12.5121191,2.31195 Z" id="Shape"></path>
            </g>
        </g>
    </g>
</svg>