<?xml version="1.0" encoding="UTF-8"?>
<svg width="17px" height="13px" viewBox="0 0 17 13" version="1.1" xmlns="http://www.w3.org/2000/svg" xmlns:xlink="http://www.w3.org/1999/xlink">
    <!-- Generator: Sketch 45.2 (43514) - http://www.bohemiancoding.com/sketch -->
    <title>message</title>
    <desc>Created with Sketch.</desc>
    <defs></defs>
    <g id="Артем" stroke="none" stroke-width="1" fill="none" fill-rule="evenodd">
        <g id="profile" transform="translate(-1092.000000, -26.000000)" fill-rule="nonzero" fill="#D8D8D8">
            <g id="head">
                <g id="70562" transform="translate(1092.000000, 26.000000)">
                    <path d="M14.9822908,0 L2.01775372,0 C0.905173023,0 0,0.875201136 0,1.9509384 L0,11.0490616 C0,12.1247989 0.905173023,13 2.01775372,13 L14.9822908,13 C16.0948715,13 17,12.1247989 17,11.0490616 L17,1.9509384 C17,0.875201136 16.0948715,0 14.9822908,0 Z M14.9822908,11.2776378 L2.01775372,11.2776378 C1.85421219,11.2776378 1.71077968,11.1708525 1.71077968,11.0490616 L1.71077968,3.15402082 L7.57429531,8.13808502 C7.69450456,8.24030156 7.84736874,8.29656097 8.00477079,8.29656097 L8.99505125,8.29660576 C9.15236433,8.29660576 9.30531748,8.24030156 9.42557123,8.13808502 L15.2893538,3.15384165 L15.2893538,11.0491512 C15.2892648,11.1708525 15.1457878,11.2776378 14.9822908,11.2776378 Z M8.50002224,6.58638238 L2.7970229,1.72236215 L14.2030216,1.72236215 L8.50002224,6.58638238 Z" id="message"></path>
                </g>
            </g>
        </g>
    </g>
</svg>