<?xml version="1.0" encoding="UTF-8"?>
<svg width="17px" height="13px" viewBox="0 0 17 13" version="1.1" xmlns="http://www.w3.org/2000/svg" xmlns:xlink="http://www.w3.org/1999/xlink">
    <!-- Generator: Sketch 45.2 (43514) - http://www.bohemiancoding.com/sketch -->
    <title>message_hover</title>
    <desc>Created with Sketch.</desc>
    <defs></defs>
    <g id="Артем" stroke="none" stroke-width="1" fill="none" fill-rule="evenodd">
        <g id="profile" transform="translate(-1092.000000, -44.000000)" fill-rule="nonzero" fill="#296CE0">
            <g id="head">
                <g id="70562" transform="translate(1092.000000, 26.000000)">
                    <path d="M14.9822908,18 L2.01775372,18 C0.905173023,18 0,18.8752011 0,19.9509384 L0,29.0490616 C0,30.1247989 0.905173023,31 2.01775372,31 L14.9822908,31 C16.0948715,31 17,30.1247989 17,29.0490616 L17,19.9509384 C17,18.8752011 16.0948715,18 14.9822908,18 Z M14.9822908,29.2776378 L2.01775372,29.2776378 C1.85421219,29.2776378 1.71077968,29.1708525 1.71077968,29.0490616 L1.71077968,21.1540208 L7.57429531,26.138085 C7.69450456,26.2403016 7.84736874,26.296561 8.00477079,26.296561 L8.99505125,26.2966058 C9.15236433,26.2966058 9.30531748,26.2403016 9.42557123,26.138085 L15.2893538,21.1538416 L15.2893538,29.0491512 C15.2892648,29.1708525 15.1457878,29.2776378 14.9822908,29.2776378 Z M8.50002224,24.5863824 L2.7970229,19.7223622 L14.2030216,19.7223622 L8.50002224,24.5863824 Z" id="message_hover"></path>
                </g>
            </g>
        </g>
    </g>
</svg>