<?xml version="1.0" encoding="utf-8" ?>
<svg xmlns:xlink="http://www.w3.org/1999/xlink" xmlns="http://www.w3.org/2000/svg" width="19" height="22">
    <defs>
        <clipPath id="clip_0">
            <rect x="-448.32965" y="-157" width="1311.36" height="875.51996" clip-rule="evenodd"/>
        </clipPath>
    </defs>
    <g clip-path="url(#clip_0)">
        <path fill="#319b42" stroke="none" transform="matrix(0.96 0 0 0.96 -0.0288086 0.439941)"
              d="M9.405 0C6.08971 0 3.39625 2.70021 3.39625 6.02381L3.39625 8.90476L1.82875 8.90476C0.829181 8.90476 0 9.73602 0 10.7381L0 20.1667C0 21.1687 0.829181 22 1.82875 22L16.9812 22C17.9808 22 18.81 21.1687 18.81 20.1667L18.81 10.7381C18.81 9.73602 17.9808 8.90476 16.9812 8.90476L15.4137 8.90476L15.4137 6.02381C15.4137 2.70021 12.7203 0 9.405 0ZM9.405 1.57143C11.879 1.57143 13.8462 3.5436 13.8462 6.02381L13.8462 8.90476L4.96375 8.90476L4.96375 6.02381C4.96375 3.5436 6.93099 1.57143 9.405 1.57143ZM17.2425 10.7381C17.2425 10.5794 17.1395 10.4762 16.9812 10.4762L1.82875 10.4762C1.67046 10.4762 1.5675 10.5794 1.5675 10.7381L1.5675 20.1667C1.5675 20.3254 1.67046 20.4286 1.82875 20.4286L16.9812 20.4286C17.1395 20.4286 17.2425 20.3254 17.2425 20.1667L17.2425 10.7381ZM9.405 12.0476C8.11573 12.0476 7.05375 13.1123 7.05375 14.4048C7.05375 14.9406 7.27249 15.4065 7.57625 15.8043L7.57625 17.0238C7.57625 18.0259 8.40543 18.8571 9.405 18.8571C10.4046 18.8571 11.2337 18.0259 11.2337 17.0238L11.2337 15.8043C11.5375 15.4065 11.7562 14.9406 11.7562 14.4048C11.7562 13.1123 10.6943 12.0476 9.405 12.0476ZM10.1888 14.4048C10.1888 13.9615 9.84714 13.6191 9.405 13.6191C8.96286 13.6191 8.62125 13.9615 8.62125 14.4048C8.62125 14.6419 8.72073 14.8406 8.8825 14.9859C9.04716 15.1335 9.14375 15.3536 9.14375 15.5751L9.14375 17.0238C9.14375 17.1825 9.24671 17.2857 9.405 17.2857C9.56329 17.2857 9.66625 17.1825 9.66625 17.0238L9.66625 15.5751C9.66523 15.3536 9.76283 15.1335 9.9275 14.9859C10.0893 14.8406 10.1888 14.6419 10.1888 14.4048Z"
              fill-rule="evenodd"/>
    </g>
</svg>
