<?xml version="1.0" encoding="utf-8" ?>
<svg xmlns:xlink="http://www.w3.org/1999/xlink" xmlns="http://www.w3.org/2000/svg" width="19" height="22">
    <defs>
        <clipPath id="clip_0">
            <rect x="-453.0918" y="-310.1001" width="1297.7" height="729.59998" clip-rule="evenodd"/>
        </clipPath>
    </defs>
    <g clip-path="url(#clip_0)">
        <path fill="rgb(0,0,0)" fill-opacity="0.2" stroke="none" transform="matrix(0.95 0 0 0.95 0.0419922 0.550049)"
              d="M9.43 0C6.1059 0 3.40528 2.70021 3.40528 6.02381L3.40528 8.90476L1.83361 8.90476C0.831386 8.90476 0 9.73602 0 10.7381L0 20.1667C0 21.1687 0.831386 22 1.83361 22L17.0264 22C18.0286 22 18.86 21.1687 18.86 20.1667L18.86 10.7381C18.86 9.73602 18.0286 8.90476 17.0264 8.90476L15.4547 8.90476L15.4547 6.02381C15.4547 2.70021 12.7541 0 9.43 0ZM9.43 1.57143C11.9106 1.57143 13.8831 3.5436 13.8831 6.02381L13.8831 8.90476L4.97694 8.90476L4.97694 6.02381C4.97694 3.5436 6.94941 1.57143 9.43 1.57143ZM17.2883 10.7381C17.2883 10.5794 17.1851 10.4762 17.0264 10.4762L1.83361 10.4762C1.6749 10.4762 1.57167 10.5794 1.57167 10.7381L1.57167 20.1667C1.57167 20.3254 1.6749 20.4286 1.83361 20.4286L17.0264 20.4286C17.1851 20.4286 17.2883 20.3254 17.2883 20.1667L17.2883 10.7381ZM9.43 12.0476C8.13731 12.0476 7.0725 13.1123 7.0725 14.4048C7.0725 14.9406 7.29183 15.4065 7.59639 15.8043L7.59639 17.0238C7.59639 18.0259 8.42778 18.8571 9.43 18.8571C10.4322 18.8571 11.2636 18.0259 11.2636 17.0238L11.2636 15.8043C11.5682 15.4065 11.7875 14.9406 11.7875 14.4048C11.7875 13.1123 10.7227 12.0476 9.43 12.0476ZM10.2158 14.4048C10.2158 13.9615 9.87332 13.6191 9.43 13.6191C8.98669 13.6191 8.64417 13.9615 8.64417 14.4048C8.64417 14.6419 8.74392 14.8406 8.90611 14.9859C9.07121 15.1335 9.16806 15.3536 9.16806 15.5751L9.16806 17.0238C9.16806 17.1825 9.27129 17.2857 9.43 17.2857C9.58871 17.2857 9.69195 17.1825 9.69195 17.0238L9.69195 15.5751C9.69092 15.3536 9.78879 15.1335 9.95389 14.9859C10.1161 14.8406 10.2158 14.6419 10.2158 14.4048Z"
              fill-rule="evenodd"/>
    </g>
</svg>
