<?xml version="1.0" encoding="UTF-8"?>
<svg width="22px" height="23px" viewBox="0 0 22 23" version="1.1" xmlns="http://www.w3.org/2000/svg" xmlns:xlink="http://www.w3.org/1999/xlink">
    <!-- Generator: Sketch 45.2 (43514) - http://www.bohemiancoding.com/sketch -->
    <title>phone_registr</title>
    <desc>Created with Sketch.</desc>
    <defs></defs>
    <g id="Артем" stroke="none" stroke-width="1" fill="none" fill-rule="evenodd">
        <g id="registration" transform="translate(-464.000000, -390.000000)" fill-rule="nonzero" fill="#CBCBCB">
            <g id="registration-2" transform="translate(393.000000, 159.000000)">
                <g id="pass" transform="translate(71.000000, 231.000000)">
                    <path d="M4.75723896,0.964545925 C4.60119278,0.9561501 4.45121976,0.983349352 4.30458871,1.0148404 C4.01132659,1.07784395 3.70706488,1.19204325 3.39090578,1.35013689 C2.76181097,1.66471205 2.0935082,2.13568291 1.56353991,2.68294043 C1.56082535,2.68573009 1.5578667,2.68853317 1.5551575,2.69132284 C0.224026367,4.0284906 -0.171516275,5.83798382 0.0966177783,7.57826915 C0.365326262,9.32228031 1.27238829,11.025683 2.56942938,12.3227145 L10.6500747,20.4117422 C11.947103,21.7087764 13.658887,22.6158338 15.4029025,22.8845538 C17.1431583,23.1526837 18.9443112,22.7570875 20.2814664,21.4260141 C20.2843553,21.4230635 20.2869652,21.4203141 20.2898488,21.4176317 C20.8371125,20.8876755 21.3080715,20.2193894 21.6226523,19.5902658 C21.7807452,19.2741215 21.9033245,18.9698466 21.9663312,18.6765829 C22.029338,18.3833192 22.0740912,18.0654313 21.8489775,17.7377527 C21.8143508,17.6891388 21.7718552,17.6466432 21.7232413,17.6120166 L17.3811517,14.4602296 C17.166492,14.3055731 16.8711368,14.3304826 16.6854115,14.5189065 L15.7884934,15.4158246 C15.4057976,15.7984917 15.0185765,15.9650939 14.682015,15.9858286 C14.3454535,16.0064829 14.0294387,15.8948962 13.7012728,15.566708 L7.40608122,9.27989883 C7.07792279,8.95171868 6.96622775,8.62733408 6.98696061,8.29077419 C7.00769266,7.95421431 7.18265547,7.57537219 7.56534705,7.19267819 L8.46226516,6.29576009 C8.64807107,6.10787457 8.66941075,5.81267578 8.51255963,5.60001987 L5.36915506,1.25793035 C5.33276855,1.20561398 5.28735283,1.16019826 5.23503646,1.12381176 C5.07119879,1.01123797 4.91328515,0.97295516 4.75723896,0.964545925 Z M4.62312037,2.05425951 L7.38093399,5.85149224 L6.80254754,6.42987868 C6.2782809,6.95414827 5.96243108,7.57379228 5.92239426,8.22371489 C5.88235745,8.87363751 6.14389246,9.52650806 6.65166412,10.0343159 L12.9468557,16.3295075 C13.4546526,16.8373073 14.0991485,17.0987983 14.7490743,17.0587774 C15.3990002,17.0187295 16.0186385,16.6945113 16.5429105,16.1702417 L17.1129146,15.6002376 L20.9269121,18.3496688 C20.9278509,18.3768681 20.930021,18.3967981 20.9185297,18.4502578 C20.8841114,18.6104759 20.7964507,18.8453175 20.6670573,19.1040859 C20.4082707,19.6215959 19.9832075,20.2311247 19.5438141,20.6548322 C19.5409892,20.6575954 19.5381949,20.6603897 19.5354317,20.6632146 C18.4603311,21.7383361 17.0471187,22.048767 15.5621683,21.8199875 C14.0772179,21.5912348 12.5515739,20.7876633 11.4128743,19.6489427 L3.32384648,11.5682974 C2.18513481,10.4295956 1.3815949,8.903951 1.15280172,7.41900332 C0.924008536,5.93405565 1.24285779,4.52083191 2.31795701,3.44573994 C2.32078193,3.44297675 2.32357624,3.44018245 2.32633943,3.43735753 C2.75007988,2.99794745 3.35117529,2.57290148 3.86870327,2.31411429 C4.1274674,2.18472203 4.37072366,2.09705676 4.53091384,2.06264192 C4.57995671,2.0521002 4.59605631,2.05374986 4.62312037,2.05425951 Z" id="phone_registr"></path>
                </g>
            </g>
        </g>
    </g>
</svg>