<?xml version="1.0" encoding="utf-8" ?>
<svg xmlns:xlink="http://www.w3.org/1999/xlink" xmlns="http://www.w3.org/2000/svg" width="16" height="16">
    <defs>
        <clipPath id="clip_0">
            <rect x="-810" y="-22" width="1366" height="2167" clip-rule="evenodd"/>
        </clipPath>
    </defs>
    <g clip-path="url(#clip_0)">
        <path fill="rgb(191,191,191)" stroke="none"
              d="M12.9861 6.49155C12.9861 7.89266 12.5386 9.19519 11.7757 10.2604C11.6739 10.4026 15.5759 14.1263 15.772 14.2834Q15.8361 14.3607 15.8845 14.4463Q15.9329 14.532 15.9643 14.6237Q15.9957 14.7153 16.0091 14.8103Q16.0225 14.9054 16.0176 15.001Q16.0127 15.0967 15.9895 15.1902Q15.9664 15.2837 15.9258 15.3725Q15.8851 15.4612 15.8281 15.5426Q15.7711 15.624 15.6994 15.6958L14.9552 16.4398C14.9552 16.4398 10.3579 11.7088 10.1662 11.8408C9.11903 12.5621 7.85243 12.9831 6.49305 12.9831C2.90689 12.9831 0 10.0769 0 6.49155C0 2.90622 2.90689 0 6.49305 0C10.0792 0 12.9861 2.90622 12.9861 6.49155ZM15.772 14.2834C15.7927 14.3 15.7722 14.2769 15.7013 14.2057Q15.7386 14.2432 15.772 14.2834ZM6.49305 1.9974C4.00572 1.9974 1.99786 4.00479 1.99786 6.49155C1.99786 8.97832 4.00572 10.9857 6.49305 10.9857C8.98039 10.9857 10.9882 8.97832 10.9882 6.49155C10.9882 4.00479 8.98039 1.9974 6.49305 1.9974Z"
              fill-rule="evenodd"/>
    </g>
</svg>
