<?xml version="1.0" encoding="UTF-8"?>
<svg width="26px" height="26px" viewBox="0 0 26 26" version="1.1" xmlns="http://www.w3.org/2000/svg" xmlns:xlink="http://www.w3.org/1999/xlink">
    <!-- Generator: Sketch 45.2 (43514) - http://www.bohemiancoding.com/sketch -->
    <title>skype</title>
    <desc>Created with Sketch.</desc>
    <defs></defs>
    <g id="Артем" stroke="none" stroke-width="1" fill="none" fill-rule="evenodd">
        <g id="service_0" transform="translate(-543.000000, -514.000000)" fill-rule="nonzero" fill="#CDCDCD">
            <path d="M559.829049,539.815563 C559.477261,539.698666 558.950402,539.581769 558.657885,539.464323 C558.306645,539.289252 557.896683,539.289252 556.60917,539.347426 C555.379831,539.4056 554.735526,539.347426 553.857976,539.22998 C549.174415,538.411153 545.427677,535.015654 544.081441,530.332642 C543.847098,529.454543 543.788924,528.986406 543.788924,526.878969 C543.788924,524.595362 543.730201,524.420291 543.437685,523.483469 C541.740209,518.858632 545.193883,514 550.111237,514 C551.106233,514 552.335572,514.293066 553.038051,514.643756 C553.506736,514.878099 553.799253,514.936273 555.613625,514.936273 C557.252926,514.936273 557.896683,514.994996 558.716059,515.229339 C562.404624,516.166161 565.389611,518.566115 566.97019,521.902891 C567.965186,523.951606 568.316974,526.059592 568.082083,528.458998 C567.965186,529.747608 567.965186,529.864505 568.257702,530.625159 C569.194524,533.376901 568.316425,536.537509 566.033368,538.411153 C565.33034,538.996735 563.92593,539.640492 563.047831,539.874834 C562.169183,540.050454 560.764774,540.050454 559.886126,539.816111 L559.829049,539.816111 L559.829049,539.815563 Z M558.247922,535.30817 C560.180289,534.898757 561.877215,533.727592 562.52152,532.323183 C563.340897,530.625159 563.106554,528.634618 561.994661,527.405279 C561.057839,526.35156 559.652881,525.766527 556.316104,524.947151 C554.091221,524.420291 553.564362,524.185949 553.096225,523.659089 C552.686263,523.190404 552.62754,522.839713 552.979328,522.312854 C553.330568,521.727271 554.208667,521.376032 555.379283,521.317858 C557.077307,521.200961 557.83796,521.610374 558.832956,523.190953 C559.594158,524.362117 560.354811,524.654634 561.350905,524.185949 C562.638417,523.542192 562.52152,521.434755 561.116013,520.205416 C559.769778,519.093523 558.306645,518.624838 555.847419,518.624838 C553.271845,518.624838 551.515098,519.151697 550.344482,520.322313 C549.40766,521.259135 549.232589,521.785994 549.232589,523.249127 C549.232589,524.770982 549.408209,525.239119 550.403205,526.117767 C551.456924,527.112763 552.335023,527.464551 555.495631,528.225204 C557.720514,528.752064 558.306096,529.04458 558.832407,529.630163 C559.067298,529.923228 559.184195,530.157022 559.184195,530.683881 C559.184195,531.269464 559.125472,531.386361 558.657336,531.855046 C557.954857,532.556976 556.901138,532.849493 555.554902,532.791868 C553.974324,532.674422 553.271845,532.206286 552.452469,530.566985 C551.866886,529.455092 551.39875,529.045129 550.637548,529.045129 C548.939524,529.045129 548.35449,530.450088 549.232589,532.26446 C549.993791,533.845587 551.515647,534.899306 553.447465,535.308719 C554.61808,535.543062 557.194203,535.543062 558.306645,535.308719 L558.247922,535.308719 L558.247922,535.30817 Z" id="skype"></path>
        </g>
    </g>
</svg>