<?xml version="1.0" encoding="UTF-8"?>
<svg width="19px" height="29px" viewBox="0 0 19 29" version="1.1" xmlns="http://www.w3.org/2000/svg" xmlns:xlink="http://www.w3.org/1999/xlink">
    <!-- Generator: Sketch 45.2 (43514) - http://www.bohemiancoding.com/sketch -->
    <title>slidearrow_next_hover</title>
    <desc>Created with Sketch.</desc>
    <defs></defs>
    <g id="Артем" stroke="none" stroke-width="1" fill="none" fill-rule="evenodd">
        <g id="service-page-" transform="translate(-1149.000000, -776.000000)" fill="#296CE0">
            <g id="arrow" transform="translate(578.000000, 598.000000)">
                <path d="M570.135265,183.770482 L579.773028,193.973947 L579.773028,193.973947 C580.152264,194.375443 580.785172,194.393488 581.186667,194.014252 C581.200482,194.001203 581.213923,193.987762 581.226972,193.973947 L590.864735,183.770482 L590.864735,183.770482 C591.243971,183.368987 591.876878,183.350942 592.278374,183.730177 C592.292453,183.743476 592.306143,183.757181 592.319426,183.771274 L594.353563,185.929509 L594.353563,185.929509 C594.716604,186.314699 594.716604,186.91607 594.353563,187.30126 L581.227719,201.227884 L581.227719,201.227884 C580.848921,201.629792 580.216033,201.648527 579.814125,201.269728 C579.799767,201.256196 579.785813,201.242242 579.772281,201.227884 L566.646437,187.30126 L566.646437,187.30126 C566.283396,186.91607 566.283396,186.314699 566.646437,185.929509 L568.680574,183.771274 L568.680574,183.771274 C569.059373,183.369366 569.69226,183.350632 570.094168,183.72943 C570.108262,183.742714 570.121967,183.756403 570.135265,183.770482 Z" id="slidearrow_next_hover" transform="translate(580.500000, 192.500000) rotate(-90.000000) translate(-580.500000, -192.500000) "></path>
            </g>
        </g>
    </g>
</svg>