<?xml version="1.0" encoding="UTF-8"?>
<svg width="19px" height="29px" viewBox="0 0 19 29" version="1.1" xmlns="http://www.w3.org/2000/svg" xmlns:xlink="http://www.w3.org/1999/xlink">
    <!-- Generator: Sketch 45.2 (43514) - http://www.bohemiancoding.com/sketch -->
    <title>slidearrow_next</title>
    <desc>Created with Sketch.</desc>
    <defs></defs>
    <g id="Артем" stroke="none" stroke-width="1" fill="none" fill-rule="evenodd" opacity="0.303238226">
        <g id="service-page-" transform="translate(-608.000000, -776.000000)" fill="#296CE0">
            <g id="arrow" transform="translate(578.000000, 598.000000)">
                <path d="M29.1352652,183.770482 L38.773028,193.973947 L38.773028,193.973947 C39.1522638,194.375443 39.7851716,194.393488 40.1866671,194.014252 C40.2004823,194.001203 40.2139227,193.987762 40.226972,193.973947 L49.8647348,183.770482 L49.8647348,183.770482 C50.2439706,183.368987 50.8768784,183.350942 51.2783739,183.730177 C51.292453,183.743476 51.3061428,183.757181 51.3194259,183.771274 L53.3535626,185.929509 L53.3535626,185.929509 C53.7166037,186.314699 53.7166037,186.91607 53.3535626,187.30126 L40.2277191,201.227884 L40.2277191,201.227884 C39.8489207,201.629792 39.2160329,201.648527 38.8141247,201.269728 C38.7997671,201.256196 38.785813,201.242242 38.7722809,201.227884 L25.6464374,187.30126 L25.6464374,187.30126 C25.2833963,186.91607 25.2833963,186.314699 25.6464374,185.929509 L27.6805741,183.771274 L27.6805741,183.771274 C28.0593725,183.369366 28.6922603,183.350632 29.0941684,183.72943 C29.108262,183.742714 29.1219667,183.756403 29.1352652,183.770482 Z" id="slidearrow_next" transform="translate(39.500000, 192.500000) rotate(-90.000000) translate(-39.500000, -192.500000) "></path>
            </g>
        </g>
    </g>
</svg>