<?xml version="1.0" encoding="UTF-8"?>
<svg width="19px" height="29px" viewBox="0 0 19 29" version="1.1" xmlns="http://www.w3.org/2000/svg" xmlns:xlink="http://www.w3.org/1999/xlink">
    <!-- Generator: Sketch 45.2 (43514) - http://www.bohemiancoding.com/sketch -->
    <title>slide_arrow_back_hover</title>
    <desc>Created with Sketch.</desc>
    <defs></defs>
    <g id="Артем" stroke="none" stroke-width="1" fill="none" fill-rule="evenodd">
        <g id="service-page-" transform="translate(-1119.000000, -776.000000)" fill="#296CE0">
            <g id="arrow" transform="translate(578.000000, 598.000000)">
                <path d="M540.135265,183.770482 L549.773028,193.973947 L549.773028,193.973947 C550.152264,194.375443 550.785172,194.393488 551.186667,194.014252 C551.200482,194.001203 551.213923,193.987762 551.226972,193.973947 L560.864735,183.770482 L560.864735,183.770482 C561.243971,183.368987 561.876878,183.350942 562.278374,183.730177 C562.292453,183.743476 562.306143,183.757181 562.319426,183.771274 L564.353563,185.929509 L564.353563,185.929509 C564.716604,186.314699 564.716604,186.91607 564.353563,187.30126 L551.227719,201.227884 L551.227719,201.227884 C550.848921,201.629792 550.216033,201.648527 549.814125,201.269728 C549.799767,201.256196 549.785813,201.242242 549.772281,201.227884 L536.646437,187.30126 L536.646437,187.30126 C536.283396,186.91607 536.283396,186.314699 536.646437,185.929509 L538.680574,183.771274 L538.680574,183.771274 C539.059373,183.369366 539.69226,183.350632 540.094168,183.72943 C540.108262,183.742714 540.121967,183.756403 540.135265,183.770482 Z" id="slide_arrow_back_hover" transform="translate(550.500000, 192.500000) scale(-1, 1) rotate(-90.000000) translate(-550.500000, -192.500000) "></path>
            </g>
        </g>
    </g>
</svg>