<?xml version="1.0" encoding="UTF-8"?>
<svg width="19px" height="29px" viewBox="0 0 19 29" version="1.1" xmlns="http://www.w3.org/2000/svg" xmlns:xlink="http://www.w3.org/1999/xlink">
    <!-- Generator: Sketch 45.2 (43514) - http://www.bohemiancoding.com/sketch -->
    <title>slidearrow_back</title>
    <desc>Created with Sketch.</desc>
    <defs></defs>
    <g id="Артем" stroke="none" stroke-width="1" fill="none" fill-rule="evenodd" opacity="0.303238226">
        <g id="service-page-" transform="translate(-578.000000, -776.000000)" fill="#296CE0">
            <g id="arrow" transform="translate(578.000000, 598.000000)">
                <path d="M-0.864734827,183.770482 L8.77302801,193.973947 L8.77302801,193.973947 C9.15226378,194.375443 9.78517157,194.393488 10.1866671,194.014252 C10.2004823,194.001203 10.2139227,193.987762 10.226972,193.973947 L19.8647348,183.770482 L19.8647348,183.770482 C20.2439706,183.368987 20.8768784,183.350942 21.2783739,183.730177 C21.292453,183.743476 21.3061428,183.757181 21.3194259,183.771274 L23.3535626,185.929509 L23.3535626,185.929509 C23.7166037,186.314699 23.7166037,186.91607 23.3535626,187.30126 L10.2277191,201.227884 L10.2277191,201.227884 C9.84892067,201.629792 9.2160329,201.648527 8.81412473,201.269728 C8.79976705,201.256196 8.78581299,201.242242 8.77228088,201.227884 L-4.35356256,187.30126 L-4.35356256,187.30126 C-4.71660373,186.91607 -4.71660373,186.314699 -4.35356256,185.929509 L-2.31942594,183.771274 L-2.31942594,183.771274 C-1.94062749,183.369366 -1.30773972,183.350632 -0.905831551,183.72943 C-0.891738012,183.742714 -0.878033323,183.756403 -0.864734827,183.770482 Z" id="slidearrow_back" transform="translate(9.500000, 192.500000) scale(-1, 1) rotate(-90.000000) translate(-9.500000, -192.500000) "></path>
            </g>
        </g>
    </g>
</svg>