<?xml version="1.0" encoding="UTF-8"?>
<svg width="25px" height="19px" viewBox="0 0 25 19" version="1.1" xmlns="http://www.w3.org/2000/svg" xmlns:xlink="http://www.w3.org/1999/xlink">
    <!-- Generator: Sketch 46.2 (44496) - http://www.bohemiancoding.com/sketch -->
    <title>Combined Shape</title>
    <desc>Created with Sketch.</desc>
    <defs></defs>
    <g id="Алексей" stroke="none" stroke-width="1" fill="none" fill-rule="evenodd">
        <g id="Результаты_плитка" transform="translate(-1133.000000, -104.000000)" fill-rule="nonzero" fill="#319b42">
            <g id="result" transform="translate(347.000000, 48.000000)">
                <path d="M790.794366,62.8244226 C791.101595,62.8244226 791.362887,62.93208 791.57804,63.1471122 C791.793194,63.3621444 791.900649,63.6233558 791.900649,63.9307868 L791.900649,66.1437977 C791.900649,66.4509865 791.793194,66.7120768 791.57804,66.9271493 C791.362887,67.1422622 791.101595,67.2498389 790.794366,67.2498389 L787.106283,67.2498389 C786.799054,67.2498389 786.537762,67.1422622 786.322609,66.9271493 C786.107496,66.7120768 786,66.4509865 786,66.1437977 L786,63.9307868 C786,63.6233558 786.107496,63.3621444 786.322609,63.1471122 C786.537762,62.9319589 786.799054,62.8244226 787.106283,62.8244226 L790.794366,62.8244226 Z M790.794366,56.0370702 C791.101595,56.0370702 791.362887,56.1446872 791.57804,56.3597598 C791.793194,56.5750341 791.900649,56.8363263 791.900649,57.1435555 L791.900649,59.3564452 C791.900649,59.6638762 791.793194,59.9250876 791.57804,60.1401198 C791.362887,60.355152 791.101595,60.4628094 790.794366,60.4628094 L787.106283,60.4628094 C786.799054,60.4628094 786.537762,60.355152 786.322609,60.1401198 C786.107496,59.925128 786,59.6637551 786,59.3563241 L786,57.143394 C786,56.8361648 786.107496,56.5748727 786.322609,56.3597194 C786.537762,56.1445661 786.799054,56.0370702 787.106283,56.0370702 L790.794366,56.0370702 Z M790.794366,69.6114925 C791.101595,69.6114925 791.362887,69.7192306 791.57804,69.9343032 C791.793194,70.1493757 791.900649,70.4106275 791.900649,70.7178567 L791.900649,72.9309886 C791.900649,73.2381774 791.793194,73.4995907 791.57804,73.7145018 C791.362887,73.9295743 791.101595,74.0370702 790.794366,74.0370702 L787.106283,74.0370702 C786.799054,74.0370702 786.537762,73.9297358 786.322609,73.7145018 C786.107496,73.4995907 786,73.2381774 786,72.9309886 L786,70.7178567 C786,70.4106275 786.107496,70.1493757 786.322609,69.9341821 C786.537762,69.7189481 786.799054,69.6114925 787.106283,69.6114925 L790.794366,69.6114925 Z M808.887494,62.8244226 C809.25704,62.8244226 809.570751,62.9319589 809.829258,63.1471122 C810.088057,63.3621444 810.21719,63.6233558 810.21719,63.9307868 L810.21719,66.1437977 C810.21719,66.4509865 810.088057,66.7120768 809.829404,66.9271493 C809.571091,67.1422622 809.256991,67.2498389 808.887833,67.2498389 L795.591796,67.2498389 C795.222445,67.2498389 794.908442,67.1422622 794.650032,66.9271493 C794.391476,66.7120768 794.262343,66.4509865 794.262343,66.1437977 L794.262343,63.9307868 C794.262343,63.6233558 794.391476,63.3622655 794.650032,63.1471122 C794.908588,62.9319589 795.222445,62.8244226 795.591796,62.8244226 L808.887494,62.8244226 Z M808.887494,69.6114925 C809.25704,69.6114925 809.570751,69.7192306 809.829258,69.9341821 C810.088057,70.1491335 810.21719,70.4105064 810.21719,70.7176952 L810.21719,72.9307061 C810.21719,73.2379352 810.088057,73.4993081 809.829404,73.7145018 C809.571091,73.9294532 809.256991,74.0369087 808.887833,74.0369087 L795.591796,74.0369087 C795.222445,74.0369087 794.908442,73.9295743 794.650032,73.7145018 C794.391476,73.4994292 794.262343,73.2379352 794.262343,72.9307061 L794.262343,70.7176952 C794.262343,70.4105064 794.391476,70.1493757 794.650032,69.9341821 C794.908588,69.7189481 795.222445,69.6114925 795.591796,69.6114925 L808.887494,69.6114925 Z M809.829258,56.3598809 C810.088057,56.5750341 810.21719,56.8362859 810.21719,57.1435555 L810.21719,59.3564856 C810.21719,59.6639166 810.088057,59.925128 809.829404,60.1401602 C809.570751,60.3551924 809.256991,60.4628497 808.887833,60.4628497 L795.591796,60.4628497 C795.222445,60.4628497 794.908442,60.3551924 794.650032,60.1401602 C794.391476,59.9249665 794.262343,59.6639166 794.262343,59.3564856 L794.262343,57.1435555 C794.262343,56.8363263 794.391476,56.5750341 794.650032,56.3598809 C794.908588,56.1447276 795.222445,56.0372317 795.591796,56.0372317 L808.887494,56.0372317 C809.256991,56.0372317 809.570751,56.1448487 809.829258,56.3598809 Z" id="Combined-Shape"></path>
            </g>
        </g>
    </g>
</svg>