<?xml version="1.0" encoding="UTF-8"?>
<svg width="22px" height="18px" viewBox="0 0 22 18" version="1.1" xmlns="http://www.w3.org/2000/svg" xmlns:xlink="http://www.w3.org/1999/xlink">
    <!-- Generator: Sketch 46.2 (44496) - http://www.bohemiancoding.com/sketch -->
    <title>Combined Shape</title>
    <desc>Created with Sketch.</desc>
    <defs></defs>
    <g id="Алексей" stroke="none" stroke-width="1" fill="none" fill-rule="evenodd">
        <g id="Результаты_плитка" transform="translate(-1168.000000, -104.000000)" fill-rule="nonzero" fill="#319b42">
            <g id="result" transform="translate(347.000000, 48.000000)">
                <path d="M828.312635,67 C828.781238,67 829.179775,67.1702894 829.507939,67.5104213 C829.836103,67.8505532 830,68.2637301 830,68.750016 L830,72.2504948 C830,72.7363976 829.836103,73.1493829 829.507939,73.4895787 C829.179775,73.8298383 828.781238,74 828.312635,74 L822.687365,74 C822.218762,74 821.820225,73.8298383 821.492061,73.4895787 C821.163959,73.1493829 821,72.7363976 821,72.2504948 L821,68.750016 C821,68.2637301 821.163959,67.8505532 821.492061,67.5104213 C821.820225,67.1700979 822.218762,67 822.687365,67 L828.312635,67 Z M828.312635,56 C828.781238,56 829.179775,56.1702132 829.507939,56.5103841 C829.836103,56.8508742 830,57.2641487 830,57.7500798 L830,61.2501117 C830,61.7363621 829.836103,62.1495088 829.507939,62.4896159 C829.179775,62.829723 828.781238,63 828.312635,63 L822.687365,63 C822.218762,63 821.820225,62.829723 821.492061,62.4896159 C821.163959,62.1495727 821,61.7361705 821,61.2499202 L821,57.7498244 C821,57.2638933 821.163959,56.8506188 821.492061,56.5103202 C821.820225,56.1700216 822.218762,56 822.687365,56 L828.312635,56 Z M841.312635,67 C841.781238,67 842.179775,67.1702894 842.507939,67.5104213 C842.836103,67.8505532 843,68.2637301 843,68.750016 L843,72.2504948 C843,72.7363976 842.836103,73.1493829 842.507939,73.4895787 C842.179775,73.8298383 841.781238,74 841.312635,74 L835.687365,74 C835.218762,74 834.820225,73.8298383 834.492061,73.4895787 C834.163959,73.1493829 834,72.7363976 834,72.2504948 L834,68.750016 C834,68.2637301 834.163959,67.8505532 834.492061,67.5104213 C834.820225,67.1700979 835.218762,67 835.687365,67 L841.312635,67 Z M841.312635,56 C841.781238,56 842.179775,56.1702132 842.507939,56.5103841 C842.836103,56.8508742 843,57.2641487 843,57.7500798 L843,61.2501117 C843,61.7363621 842.836103,62.1495088 842.507939,62.4896159 C842.179775,62.829723 841.781238,63 841.312635,63 L835.687365,63 C835.218762,63 834.820225,62.829723 834.492061,62.4896159 C834.163959,62.1495727 834,61.7361705 834,61.2499202 L834,57.7498244 C834,57.2638933 834.163959,56.8506188 834.492061,56.5103202 C834.820225,56.1700216 835.218762,56 835.687365,56 L841.312635,56 Z" id="Combined-Shape"></path>
            </g>
        </g>
    </g>
</svg>