<?xml version="1.0" encoding="UTF-8"?>
<svg width="32px" height="19px" viewBox="0 0 32 19" version="1.1" xmlns="http://www.w3.org/2000/svg" xmlns:xlink="http://www.w3.org/1999/xlink">
    <!-- Generator: Sketch 45.2 (43514) - http://www.bohemiancoding.com/sketch -->
    <title>vk_hover</title>
    <desc>Created with Sketch.</desc>
    <defs></defs>
    <g id="Артем" stroke="none" stroke-width="1" fill="none" fill-rule="evenodd">
        <g id="service_0" transform="translate(-659.000000, -557.000000)" fill-rule="nonzero" fill="#319b42">
            <path d="M690.869684,573.508847 C690.830887,573.425236 690.79472,573.355882 690.761124,573.300317 C690.205239,572.299151 689.142957,571.07029 687.574921,569.613385 L687.541792,569.580023 L687.525199,569.563663 L687.50843,569.546894 L687.491603,569.546894 C686.779948,568.868485 686.329292,568.412336 686.140569,568.178799 C685.795259,567.733927 685.7179,567.283622 685.906623,566.827356 C686.039956,566.48263 686.540802,565.754616 687.407992,564.642319 C687.86414,564.052838 688.225402,563.580388 688.492185,563.224444 C690.416281,560.66646 691.25046,559.031875 690.994545,558.320045 L690.895158,558.1537 C690.828375,558.053554 690.656012,557.961939 690.378303,557.878387 C690.099951,557.79501 689.744183,557.781221 689.310354,557.836786 L684.506159,557.869973 C684.428333,557.842395 684.317202,557.844966 684.172417,557.878387 C684.027808,557.911807 683.955474,557.928576 683.955474,557.928576 L683.871863,557.970352 L683.805489,558.020542 C683.749865,558.053729 683.688691,558.112099 683.621907,558.195534 C683.555475,558.278678 683.49991,558.376253 683.455504,558.487441 C682.932455,559.8331 682.337774,561.084221 681.670349,562.240748 C681.25884,562.930375 680.880927,563.528036 680.535792,564.034083 C680.191124,564.539953 679.901964,564.912666 679.668602,565.151579 C679.434889,565.390725 679.223963,565.582311 679.034539,565.727038 C678.845408,565.871823 678.701032,565.932997 678.601061,565.910619 C678.500857,565.888241 678.406495,565.866038 678.317159,565.843836 C678.161565,565.74369 678.036412,565.607494 677.94205,565.435131 C677.84728,565.262768 677.783476,565.045824 677.750114,564.784475 C677.716927,564.522951 677.697295,564.298002 677.691686,564.108871 C677.686486,563.919972 677.688881,563.652781 677.700158,563.308055 C677.711727,562.963153 677.716927,562.729791 677.716927,562.607443 C677.716927,562.184774 677.725165,561.726054 677.7417,561.231168 C677.758527,560.736282 677.772141,560.344171 677.783535,560.055302 C677.79487,559.766141 677.800128,559.460211 677.800128,559.137688 C677.800128,558.815165 677.780496,558.562229 677.7417,558.378648 C677.703371,558.195301 677.644534,558.017329 677.567,557.84479 C677.488998,557.672427 677.37483,557.539094 677.22502,557.444441 C677.074918,557.349904 676.888299,557.274882 676.666213,557.219142 C676.076732,557.085751 675.326106,557.013592 674.413984,557.002374 C672.34557,556.980171 671.016505,557.113738 670.427082,557.402898 C670.193545,557.525072 669.98221,557.692001 669.793254,557.90316 C669.593021,558.147916 669.565092,558.281482 669.709643,558.303451 C670.377009,558.403422 670.849459,558.642568 671.127519,559.020657 L671.227723,559.221007 C671.305666,559.365558 671.383492,559.621473 671.461377,559.988402 C671.539145,560.35533 671.589335,560.761231 671.61142,561.205869 C671.666927,562.017845 671.666927,562.712906 671.61142,563.29111 C671.555738,563.869549 671.503153,564.319855 671.452963,564.642378 C671.402774,564.964901 671.327752,565.22625 671.227723,565.426367 C671.127519,565.626541 671.060852,565.74889 671.027431,565.793295 C670.994069,565.837701 670.966257,565.865688 670.944171,565.876672 C670.79962,565.932062 670.649284,565.960283 670.49369,565.960283 C670.337862,565.960283 670.148906,565.88234 669.926528,565.72657 C669.704209,565.570801 669.473477,565.356837 669.23433,565.084328 C668.995184,564.811761 668.72548,564.430868 668.425101,563.941591 C668.124955,563.452314 667.813533,562.87405 667.49101,562.206801 L667.224169,561.722899 C667.057356,561.411594 666.829487,560.958309 666.540326,560.363452 C666.25099,559.768361 665.99525,559.192727 665.772931,558.636667 C665.684062,558.40313 665.550553,558.225333 665.37264,558.102984 L665.289146,558.052795 C665.233639,558.008389 665.144536,557.961238 665.022305,557.910989 C664.899898,557.8608 664.772174,557.824808 664.638607,557.802664 L660.067833,557.835851 C659.600758,557.835851 659.283844,557.941664 659.116973,558.152999 L659.05019,558.252969 C659.016827,558.308651 659,558.397579 659,558.519986 C659,558.642334 659.033362,558.792495 659.100146,558.970292 C659.767395,560.538503 660.493014,562.050915 661.277003,563.507762 C662.060991,564.964609 662.742264,566.138138 663.32041,567.027297 C663.898673,567.917099 664.488096,568.756887 665.088679,569.546251 C665.689262,570.335907 666.086807,570.841953 666.281314,571.064272 C666.476055,571.287 666.62902,571.453521 666.740209,571.564709 L667.157327,571.965 C667.424227,572.231959 667.816163,572.551677 668.33331,572.924157 C668.850574,573.29687 669.423228,573.663798 670.051565,574.025527 C670.680018,574.386671 671.411129,574.681383 672.245307,574.909311 C673.079369,575.137473 673.891169,575.22903 674.680826,575.184858 L676.599255,575.184858 C676.988328,575.151262 677.283098,575.028913 677.483448,574.817754 L677.549822,574.734143 C677.594461,574.667769 677.636237,574.564643 677.6748,574.425877 C677.71383,574.286876 677.733228,574.133736 677.733228,573.967157 C677.721835,573.48904 677.758235,573.058132 677.841437,572.674493 C677.92458,572.290971 678.019351,572.00181 678.125339,571.807069 C678.231269,571.612504 678.350813,571.44832 678.483854,571.315221 C678.617187,571.18183 678.712191,571.101024 678.767932,571.073212 C678.823322,571.045225 678.867552,571.026236 678.900914,571.014842 C679.167814,570.925915 679.481924,571.012038 679.843711,571.27362 C680.205206,571.534969 680.544264,571.857668 680.861412,572.24119 C681.178385,572.625063 681.559219,573.055737 682.003974,573.533854 C682.449021,574.012147 682.838152,574.367682 683.17166,574.60157 L683.505168,574.801745 C683.727896,574.935311 684.017057,575.05766 684.373001,575.168849 C684.728303,575.279979 685.039608,575.307791 685.306916,575.252226 L689.577253,575.185618 C689.99963,575.185618 690.328289,575.115679 690.561417,574.976912 C690.795013,574.837912 690.933779,574.684772 690.978535,574.518193 C691.023174,574.351439 691.02557,574.162249 690.987007,573.950739 C690.947452,573.739755 690.90848,573.592224 690.869684,573.508847 Z" id="vk_hover"></path>
        </g>
    </g>
</svg>