<?xml version="1.0" encoding="UTF-8"?>
<svg width="30px" height="26px" viewBox="0 0 30 26" version="1.1" xmlns="http://www.w3.org/2000/svg" xmlns:xlink="http://www.w3.org/1999/xlink">
    <!-- Generator: Sketch 45.2 (43514) - http://www.bohemiancoding.com/sketch -->
    <title>wechat</title>
    <desc>Created with Sketch.</desc>
    <defs></defs>
    <g id="Артем" stroke="none" stroke-width="1" fill="none" fill-rule="evenodd">
        <g id="service_0" transform="translate(-599.000000, -513.000000)" fill-rule="nonzero" fill="#CDCDCD">
            <path d="M618.89414,521.119219 C616.236082,521.258089 613.924703,522.06386 612.048155,523.884311 C610.152177,525.723535 609.286686,527.97728 609.523258,530.771134 C608.484317,530.642474 607.53803,530.50086 606.586363,530.420722 C606.257687,530.393058 605.867645,530.432359 605.589248,530.589451 C604.665135,531.110897 603.779226,531.699638 602.729198,532.356001 C602.921858,531.484582 603.046566,530.721514 603.26733,529.987538 C603.429692,529.448088 603.354494,529.147844 602.857528,528.796554 C599.666716,526.543797 598.321714,523.1724 599.32827,519.701434 C600.259518,516.490423 602.546417,514.543069 605.653797,513.52795 C609.895076,512.14255 614.661534,513.555724 617.240552,516.923059 C618.17202,518.139401 618.743195,519.504602 618.89414,521.119219 Z M611.733635,518.811353 C611.077821,518.823429 610.523661,519.38198 610.535297,520.019352 C610.547263,520.679997 611.090884,521.196832 611.765251,521.188709 C612.441375,521.180585 612.954149,520.658261 612.947782,519.983674 C612.942183,519.321492 612.400977,518.799168 611.733635,518.811353 Z M606.660792,520.037685 C606.685273,519.402838 606.135175,518.830894 605.481775,518.811792 C604.812787,518.792142 604.262579,519.303379 604.243038,519.962597 C604.223278,520.630706 604.734295,521.166095 605.408114,521.18322 C606.076114,521.200126 606.636092,520.68823 606.660792,520.037685 Z M626.175621,539 C625.333952,538.625217 624.561882,538.062934 623.739863,537.977087 C622.921028,537.89157 622.060257,538.363945 621.203549,538.451548 C618.594012,538.718529 616.256177,537.991249 614.328472,536.208561 C610.662211,532.817514 611.186073,527.617982 615.427791,524.839057 C619.197682,522.369268 624.726439,523.192605 627.384388,526.619549 C629.703891,529.609906 629.431312,533.579484 626.599694,536.091647 C625.78031,536.818708 625.485446,537.416999 626.011173,538.375472 C626.108217,538.552434 626.119305,538.776492 626.175621,539 L626.175621,539 Z M616.594842,529.723856 C617.13067,529.724405 617.571868,529.305052 617.592177,528.775812 C617.613584,528.215504 617.162944,527.745544 616.601868,527.743238 C616.046391,527.740714 615.581041,528.21726 615.600362,528.769225 C615.618585,529.296599 616.062857,529.723197 616.594842,529.723856 Z M622.771071,527.745434 C622.251162,527.741811 621.809414,528.167421 621.788227,528.69271 C621.765723,529.254444 622.20231,529.715732 622.758227,529.717159 C623.29592,529.718916 623.720762,529.312298 623.740302,528.777239 C623.76116,528.214187 623.324353,527.749276 622.771071,527.745434 L622.771071,527.745434 Z" id="wechat"></path>
        </g>
    </g>
</svg>