<?xml version="1.0" encoding="UTF-8"?>
<svg width="50px" height="50px" viewBox="0 0 50 50" version="1.1" xmlns="http://www.w3.org/2000/svg" xmlns:xlink="http://www.w3.org/1999/xlink">
    <!-- Generator: Sketch 45.2 (43514) - http://www.bohemiancoding.com/sketch -->
    <title>world-grid</title>
    <desc>Created with Sketch.</desc>
    <defs></defs>
    <g id="Алексей" stroke="none" stroke-width="1" fill="none" fill-rule="evenodd" fill-opacity="0.5">
        <g id="Главная" transform="translate(-588.000000, -444.000000)" fill-rule="nonzero" fill="#FFFFFF">
            <g id="65-стран-copy" transform="translate(588.000000, 433.000000)">
                <g id="world-grid" transform="translate(0.000000, 11.000000)">
                    <path d="M42.6776458,7.32235421 C37.9558315,2.60043197 31.6777538,0 25,0 C18.3222462,0 12.0441685,2.60043197 7.32235421,7.32235421 C2.60053996,12.0442765 0,18.3222462 0,25 C0,31.6777538 2.60043197,37.9558315 7.32235421,42.6776458 C12.0442765,47.39946 18.3222462,50 25,50 C31.6777538,50 37.9558315,47.399568 42.6776458,42.6776458 C47.39946,37.9557235 50,31.6777538 50,25 C50,18.3222462 47.399568,12.0441685 42.6776458,7.32235421 Z M46.350324,34.5572354 L42.6259179,34.5572354 C43.4903888,31.8095032 43.9761339,28.8560475 44.049568,25.8099352 L48.3647948,25.8099352 C48.2612311,28.8710583 47.5723542,31.8300216 46.350324,34.5572354 Z M1.63520518,25.8099352 L5.95043197,25.8099352 C6.0237581,28.8560475 6.50950324,31.8095032 7.37408207,34.5572354 L3.64967603,34.5572354 C2.42764579,31.8300216 1.7387689,28.8710583 1.63520518,25.8099352 Z M3.64967603,15.4427646 L7.37408207,15.4427646 C6.50961123,18.1904968 6.02386609,21.1439525 5.95043197,24.1900648 L1.63520518,24.1900648 C1.7387689,21.1289417 2.42764579,18.1699784 3.64967603,15.4427646 Z M35.4153348,24.1900648 C35.3761339,21.1424406 35.1165227,18.1882289 34.6551836,15.4427646 L40.9157667,15.4427646 C41.8170626,18.1293737 42.349676,21.0838013 42.4290497,24.1900648 L35.4153348,24.1900648 Z M30.4395248,43.1965443 L25.8099352,43.1965443 L25.8099352,36.1771058 L32.7020518,36.1771058 C32.2686825,38.225594 31.712743,40.1214903 31.0435205,41.8059395 C30.8493521,42.2944924 30.6475162,42.7576674 30.4395248,43.1965443 L30.4395248,43.1965443 Z M25.8099352,48.2708423 L25.8099352,44.8164147 L29.5734341,44.8164147 C28.4188985,46.7217063 27.1232181,47.9186825 25.8099352,48.2708423 L25.8099352,48.2708423 Z M20.4265659,44.8164147 L24.1900648,44.8164147 L24.1900648,48.2708423 C22.8767819,47.9186825 21.5811015,46.7217063 20.4265659,44.8164147 Z M18.9564795,41.8059395 C18.287257,40.1214903 17.7312095,38.2257019 17.2979482,36.1771058 L24.1900648,36.1771058 L24.1900648,43.1965443 L19.5604752,43.1965443 C19.3524838,42.7576674 19.1506479,42.2944924 18.9564795,41.8059395 Z M19.5604752,6.80345572 L24.1900648,6.80345572 L24.1900648,13.8228942 L17.2979482,13.8228942 C17.7313175,11.774406 18.287257,9.87850972 18.9564795,8.19406048 C19.1506479,7.70550756 19.3524838,7.24233261 19.5604752,6.80345572 Z M24.1900648,1.72915767 L24.1900648,5.18358531 L20.4265659,5.18358531 C21.5811015,3.27829374 22.8767819,2.08131749 24.1900648,1.72915767 Z M29.5734341,5.18358531 L25.8099352,5.18358531 L25.8099352,1.72915767 C27.1232181,2.08131749 28.4188985,3.27829374 29.5734341,5.18358531 Z M31.0435205,8.19406048 C31.712743,9.87850972 32.2687905,11.7742981 32.7020518,13.8228942 L25.8099352,13.8228942 L25.8099352,6.80345572 L30.4395248,6.80345572 C30.6475162,7.24233261 30.8493521,7.70550756 31.0435205,8.19406048 Z M24.1900648,15.4427646 L24.1900648,24.1900648 L16.2046436,24.1900648 C16.2448164,21.1298056 16.512095,18.1726782 16.9866091,15.4427646 L24.1900648,15.4427646 L24.1900648,15.4427646 Z M24.1900648,25.8099352 L24.1900648,34.5572354 L16.9867171,34.5572354 C16.512203,31.8273218 16.2449244,28.8701944 16.2047516,25.8099352 L24.1900648,25.8099352 L24.1900648,25.8099352 Z M25.8099352,34.5572354 L25.8099352,25.8099352 L33.7953564,25.8099352 C33.7551836,28.8701944 33.487905,31.8273218 33.0133909,34.5572354 L25.8099352,34.5572354 L25.8099352,34.5572354 Z M25.8099352,24.1900648 L25.8099352,15.4427646 L33.0132829,15.4427646 C33.487797,18.1726782 33.7550756,21.1298056 33.7952484,24.1900648 L25.8099352,24.1900648 L25.8099352,24.1900648 Z M34.3546436,13.8228942 C33.8926566,11.5542117 33.287149,9.45410367 32.5488121,7.59600432 C32.4410367,7.32462203 32.3305616,7.0612311 32.2183585,6.80345572 L35.937473,6.80345572 C37.7173866,8.72991361 39.2105832,11.1141469 40.3150108,13.8228942 L34.3546436,13.8228942 L34.3546436,13.8228942 Z M31.4368251,5.18358531 C30.8616631,4.10950324 30.2422246,3.19222462 29.587041,2.44211663 C31.2512959,3.05097192 32.8170626,3.98239741 34.2447084,5.18358531 L31.4368251,5.18358531 Z M18.5631749,5.18358531 L15.7553996,5.18358531 C17.1830454,3.98239741 18.7487041,3.05097192 20.413067,2.44211663 C19.7577754,3.19222462 19.1383369,4.10950324 18.5631749,5.18358531 Z M17.7816415,6.80345572 C17.6694384,7.0612311 17.5589633,7.32462203 17.4511879,7.59600432 C16.712959,9.45410367 16.1073434,11.5542117 15.6453564,13.8228942 L9.6849892,13.8228942 C10.7894168,11.1141469 12.2825054,8.72991361 14.062527,6.80345572 L17.7816415,6.80345572 Z M15.3448164,15.4427646 C14.8834773,18.1882289 14.6238661,21.1424406 14.5846652,24.1900648 L7.57095032,24.1900648 C7.65032397,21.0838013 8.18293737,18.1293737 9.08423326,15.4427646 L15.3448164,15.4427646 L15.3448164,15.4427646 Z M7.57095032,25.8099352 L14.5846652,25.8099352 C14.6238661,28.8575594 14.8834773,31.8117711 15.3448164,34.5572354 L9.08423326,34.5572354 C8.18293737,31.8706263 7.65032397,28.9161987 7.57095032,25.8099352 L7.57095032,25.8099352 Z M15.6453564,36.1771058 C16.1073434,38.4457883 16.712851,40.5458963 17.4511879,42.4039957 C17.5589633,42.675378 17.6694384,42.9387689 17.7816415,43.1965443 L14.062527,43.1965443 C12.2826134,41.2700864 10.7894168,38.8858531 9.6849892,36.1771058 L15.6453564,36.1771058 Z M18.5631749,44.8164147 C19.1383369,45.8904968 19.7577754,46.8077754 20.412959,47.5578834 C18.7487041,46.9490281 17.1829374,46.0176026 15.7552916,44.8164147 L18.5631749,44.8164147 Z M31.4368251,44.8164147 L34.2446004,44.8164147 C32.8169546,46.0176026 31.2512959,46.9490281 29.586933,47.5578834 C30.2422246,46.8077754 30.8616631,45.8904968 31.4368251,44.8164147 Z M32.2183585,43.1965443 C32.3305616,42.9387689 32.4410367,42.675378 32.5488121,42.4039957 C33.287041,40.5458963 33.8926566,38.4457883 34.3546436,36.1771058 L40.3150108,36.1771058 C39.2105832,38.8858531 37.7174946,41.2700864 35.937473,43.1965443 L32.2183585,43.1965443 L32.2183585,43.1965443 Z M34.6551836,34.5572354 C35.1165227,31.8117711 35.3761339,28.8575594 35.4153348,25.8099352 L42.4290497,25.8099352 C42.349676,28.9161987 41.8170626,31.8706263 40.9157667,34.5572354 L34.6551836,34.5572354 Z M44.049568,24.1900648 C43.9762419,21.1439525 43.4904968,18.1904968 42.6259179,15.4427646 L46.350324,15.4427646 C47.5724622,18.1699784 48.2612311,21.1289417 48.3647948,24.1900648 L44.049568,24.1900648 Z M45.5461123,13.8228942 L42.0637149,13.8228942 C41.1719222,11.4821814 39.9931965,9.31792657 38.5516199,7.40723542 C38.3963283,7.20151188 38.238121,7.0011879 38.0785097,6.80345572 L39.6826134,6.80345572 C40.3232181,7.32235421 40.9411447,7.87667387 41.5321814,8.46771058 C43.1413607,10.0767819 44.4855292,11.8796976 45.5461123,13.8228942 L45.5461123,13.8228942 Z M37.4218143,5.18358531 L36.6346652,5.18358531 C36.2477322,4.7912527 35.8508639,4.4199784 35.4448164,4.07008639 C36.1201944,4.40799136 36.7798056,4.77948164 37.4218143,5.18358531 L37.4218143,5.18358531 Z M13.3653348,5.18358531 L12.5781857,5.18358531 C13.2201944,4.77948164 13.8798056,4.40799136 14.5551836,4.07008639 C14.1491361,4.4199784 13.7521598,4.7912527 13.3653348,5.18358531 Z M8.46771058,8.46771058 C9.05885529,7.87667387 9.67667387,7.32235421 10.3173866,6.80345572 L11.9214903,6.80345572 C11.761879,7.0011879 11.6035637,7.20151188 11.4483801,7.40723542 C10.0068035,9.31792657 8.82818575,11.4821814 7.9362851,13.8228942 L4.45388769,13.8228942 C5.51447084,11.8796976 6.85863931,10.0767819 8.46771058,8.46771058 Z M4.45388769,36.1771058 L7.9362851,36.1771058 C8.82807775,38.5178186 10.0068035,40.6820734 11.4483801,42.5927646 C11.6036717,42.7984881 11.761879,42.9988121 11.9214903,43.1965443 L10.3173866,43.1965443 C9.67678186,42.6776458 9.05885529,42.1233261 8.46781857,41.5322894 C6.85863931,39.9232181 5.51447084,38.1203024 4.45388769,36.1771058 Z M12.5781857,44.8164147 L13.3653348,44.8164147 C13.7522678,45.2087473 14.1491361,45.5800216 14.5551836,45.9299136 C13.8798056,45.5920086 13.2201944,45.2205184 12.5781857,44.8164147 L12.5781857,44.8164147 Z M36.6346652,44.8164147 L37.4218143,44.8164147 C36.7798056,45.2205184 36.1201944,45.5920086 35.4448164,45.9299136 C35.8508639,45.5800216 36.2478402,45.2087473 36.6346652,44.8164147 Z M41.5322894,41.5322894 C40.9412527,42.1233261 40.3233261,42.6776458 39.6827214,43.1965443 L38.0786177,43.1965443 C38.2382289,42.9988121 38.3965443,42.7984881 38.5517279,42.5927646 C39.9933045,40.6820734 41.1719222,38.5178186 42.0638229,36.1771058 L45.5462203,36.1771058 C44.4855292,38.1203024 43.1413607,39.9232181 41.5322894,41.5322894 Z" id="Shape"></path>
                </g>
            </g>
        </g>
    </g>
</svg>