<?xml version="1.0" encoding="UTF-8"?>
<!DOCTYPE svg PUBLIC "-//W3C//DTD SVG 1.1//EN" "http://www.w3.org/Graphics/SVG/1.1/DTD/svg11.dtd">
<!-- Creator: CorelDRAW X8 -->
<svg xmlns="http://www.w3.org/2000/svg" xml:space="preserve" width="151.068mm" height="41.075mm" version="1.1" style="shape-rendering:geometricPrecision; text-rendering:geometricPrecision; image-rendering:optimizeQuality; fill-rule:evenodd; clip-rule:evenodd"
viewBox="0 0 15107 4108"
 xmlns:xlink="http://www.w3.org/1999/xlink">
 <defs>
  <style type="text/css">
   <![CDATA[
    .fil0 {fill:#354A3A}
    .fil3 {fill:white}
    .fil2 {fill:#FEFEFE;fill-rule:nonzero}
    .fil1 {fill:#354A3A;fill-rule:nonzero}
    .fil4 {fill:url(#id0)}
   ]]>
  </style>
  <linearGradient id="id0" gradientUnits="userSpaceOnUse" x1="7685.68" y1="1915.84" x2="6545.89" y2="600.56">
   <stop offset="0" style="stop-opacity:1; stop-color:#4D4D4D"/>
   <stop offset="1" style="stop-opacity:1; stop-color:#0B542F"/>
  </linearGradient>
 </defs>
 <g id="Слой_x0020_1">
  <metadata id="CorelCorpID_0Corel-Layer"/>
  <polygon class="fil0" points="0,2808 15107,2808 15107,4108 0,4108 "/>
  <path class="fil1" d="M1153 909c0,78 -27,131 -84,158 -39,18 -106,28 -198,28l-433 0 0 -376 433 0c94,0 161,10 200,29 55,28 82,82 82,161zm351 974c-39,-2 -78,-25 -105,-64 -26,-35 -46,-69 -67,-104l-250 -395c234,-41 351,-178 351,-411 0,-157 -46,-270 -135,-335 -80,-59 -213,-90 -394,-90l-803 0 0 35c39,12 60,36 60,75l0 1213c0,35 -21,61 -60,76l0 32 399 0 0 -32c-41,-15 -62,-39 -62,-76l0 -474 344 0 261 419c30,47 44,77 44,92 0,20 -16,33 -48,39l0 32 465 0 0 -32zm1537 -1364c39,12 60,36 60,75l0 724c0,211 -64,332 -195,362 -46,10 -103,17 -172,17 -66,0 -121,-7 -167,-17 -83,-20 -140,-69 -170,-149 -20,-53 -30,-129 -30,-225l0 -712c0,-39 21,-63 62,-75l0 -35 -403 0 0 35c41,12 62,36 62,75l0 802c0,198 50,337 153,421 99,82 259,119 482,119 227,0 389,-37 488,-117 99,-79 149,-221 149,-423l0 -802c0,-39 18,-63 57,-75l0 -35 -376 0 0 35zm2172 957c0,-139 -45,-244 -135,-315 -80,-64 -201,-102 -362,-121 -149,-16 -245,-28 -289,-39 -39,-8 -66,-18 -85,-28 -36,-23 -55,-58 -55,-107 0,-110 101,-165 301,-165 146,0 277,43 394,126 48,35 55,48 55,99l25 16 151 -337 -25 -15c-20,15 -34,23 -46,23 -11,0 -43,-13 -96,-35 -34,-16 -69,-33 -103,-47 -39,-16 -76,-31 -115,-41 -68,-20 -151,-31 -247,-31 -168,0 -298,39 -397,117 -103,80 -156,194 -156,339 0,142 42,242 126,301 85,59 211,98 379,117l146 16c81,8 140,22 175,37 57,26 87,67 87,124 0,62 -39,111 -115,146 -62,26 -131,41 -206,41 -94,0 -193,-23 -291,-64 -122,-51 -181,-110 -181,-186l-28 -14 -137 351 27 17c18,-17 30,-25 37,-25 7,0 29,11 64,29 167,90 335,131 504,131 172,0 314,-35 422,-111 117,-83 176,-200 176,-349z"/>
  <path class="fil1" d="M10167 459c-11,47 -34,70 -68,70l-1075 0c-35,0 -58,-23 -69,-70l-30 0 0 373 30 0c14,-45 36,-68 69,-68l396 0 0 1088c0,35 -20,61 -59,76l0 32 401 0 0 -32c-39,-15 -60,-39 -60,-76l0 -1088 397 0c34,0 57,23 68,68l33 0 0 -373 -33 0zm1969 1469c-42,-15 -62,-41 -62,-76l0 -1213c0,-39 20,-65 62,-75l0 -35 -402 0 0 35c42,12 62,36 62,75l0 460 -742 0 0 -460c0,-39 20,-63 59,-75l0 -35 -399 0 0 35c39,12 60,36 60,75l0 1213c0,37 -21,61 -60,76l0 32 399 0 0 -32c-39,-15 -59,-39 -59,-76l0 -517 742 0 0 517c0,37 -20,61 -62,76l0 32 402 0 0 -32zm1264 -1033l204 503 -417 0 208 -503 5 0zm802 1033c-30,-6 -55,-25 -75,-51 -10,-15 -23,-41 -42,-80l-488 -1104c-11,-27 -18,-52 -18,-70 0,-31 18,-49 55,-59l0 -35 -454 0 0 35c34,12 53,34 53,67 0,23 -7,51 -21,84l-472 1100c-28,66 -64,102 -103,113l0 32 426 0 0 -32c-44,-15 -64,-35 -64,-64 0,-16 7,-39 18,-67l87 -203 585 0 85 203c11,28 18,51 18,65 0,35 -21,55 -60,66l0 32 470 0 0 -32zm905 0c-41,-15 -62,-39 -62,-76l0 -1213c0,-39 21,-65 62,-75l0 -35 -399 0 0 35c39,10 60,36 60,75l0 1213c0,35 -21,61 -60,76l0 32 399 0 0 -32z"/>
  <path class="fil2" d="M3803 3735l0 -490 -239 0 0 -65 574 0 0 65 -239 0 0 490 -96 0zm1021 0l0 -555 321 0c65,0 114,5 148,15 33,10 60,28 80,53 20,25 30,53 30,83 0,40 -16,73 -50,100 -33,27 -84,44 -154,51 26,10 45,19 58,28 28,20 55,44 80,74l125 151 -120 0 -96 -115c-28,-34 -51,-59 -69,-77 -18,-18 -34,-30 -49,-37 -14,-7 -29,-12 -43,-15 -11,-2 -29,-2 -54,-2l-111 0 0 246 -96 0zm96 -310l206 0c44,0 78,-3 103,-10 24,-7 43,-18 56,-34 13,-15 19,-32 19,-50 0,-26 -12,-47 -37,-64 -25,-17 -64,-26 -118,-26l-229 0 0 184zm1138 310l279 -555 105 0 296 555 -110 0 -83 -168 -306 0 -79 168 -102 0zm209 -228l247 0 -75 -154c-23,-46 -40,-85 -52,-116 -10,37 -24,72 -40,107l-80 163zm1131 228l0 -555 250 0c57,0 100,3 130,8 41,7 77,21 106,40 38,25 67,56 86,95 19,38 28,82 28,132 0,42 -6,79 -19,112 -13,32 -29,59 -49,80 -21,22 -43,39 -67,51 -23,12 -52,21 -86,28 -34,6 -73,9 -117,9l-262 0zm97 -65l154 0c48,0 86,-3 113,-10 27,-7 49,-17 65,-29 22,-17 40,-41 53,-70 13,-30 19,-66 19,-108 0,-58 -13,-102 -37,-134 -25,-31 -55,-52 -91,-62 -26,-8 -67,-12 -124,-12l-152 0 0 425zm1236 65l0 -555 96 0 0 555 -96 0zm849 0l0 -555 98 0 381 436 0 -436 92 0 0 555 -99 0 -380 -436 0 436 -92 0zm1656 -218l0 -65 307 0 0 206c-47,29 -95,50 -146,65 -50,14 -101,21 -154,21 -71,0 -136,-11 -194,-35 -58,-23 -102,-57 -132,-101 -30,-44 -44,-93 -44,-148 0,-54 14,-104 44,-151 29,-47 72,-82 127,-104 56,-23 119,-34 192,-34 52,0 99,6 142,19 42,13 76,31 99,54 25,24 43,54 55,91l-86 19c-11,-29 -25,-51 -41,-67 -16,-16 -39,-29 -69,-39 -30,-10 -63,-14 -100,-14 -44,0 -81,5 -114,15 -31,10 -57,24 -77,40 -19,17 -35,35 -45,55 -19,35 -28,72 -28,112 0,50 11,91 33,125 22,33 55,58 97,74 43,16 88,24 136,24 41,0 82,-6 121,-18 40,-13 70,-26 90,-40l0 -104 -213 0z"/>
  <circle class="fil3" cx="7168" cy="1132" r="1132"/>
  <path class="fil4" d="M7406 381c0,40 -10,79 -20,109 -18,53 -58,119 -92,165 -10,13 -18,24 -28,36l-15 17c-3,4 -4,5 -7,8 -41,51 -91,93 -137,139l-312 314c-51,58 -131,171 -165,239 -72,145 -86,268 -2,409 6,10 12,19 19,28 48,64 81,90 162,116 19,6 131,35 151,36 -4,-5 -15,-11 -22,-15 -37,-18 -47,-36 -47,-79 0,-40 35,-108 57,-141l27 -40c17,-26 37,-50 56,-74l45 -55c6,-7 11,-10 16,-17l400 -394c7,-6 9,-8 16,-15l52 -48c66,-66 132,-137 178,-219 73,-131 95,-264 8,-394 -72,-108 -184,-173 -297,-229 -7,-3 -14,-6 -20,-9 -26,-13 -53,-22 -78,-36 2,7 14,20 21,30 7,11 12,21 18,34 9,23 16,54 16,85zm40 1624c22,0 93,-23 115,-31 52,-21 52,-21 102,-46 9,-4 14,-7 23,-12 8,-5 15,-9 24,-14 21,-14 66,-44 85,-62 7,-6 13,-10 20,-17 19,-20 20,-15 45,-46l18 -19c34,-43 55,-67 83,-122 5,-9 8,-13 13,-23 24,-59 43,-100 57,-165 2,-9 6,-21 6,-31 -5,6 -6,16 -10,25 -12,27 -13,27 -24,49 -9,18 -33,51 -45,67l-32 41c-44,54 -96,101 -146,149l-119 101 -210 152c0,1 -1,1 -1,1 -4,3 -1,2 -4,3zm-1148 -984l83 -184 87 -137 58 -75c7,-9 13,-16 20,-24 4,-6 5,-7 10,-13 6,-5 7,-6 12,-12l98 -102 109 -93c45,-37 127,-94 179,-123 3,-2 2,-1 4,-3 4,-2 2,-1 4,-3 -63,0 -204,70 -255,103l-79 54c-10,7 -16,12 -26,19 -8,7 -16,13 -25,20l-48 40c-53,48 -106,112 -139,174 -50,91 -77,167 -86,275l-6 84zm49 356c0,100 25,191 75,266 12,17 35,52 51,62 -8,-35 -11,-47 -15,-84 -1,-11 1,-22 -1,-33 -9,-81 24,-201 52,-278 16,-41 43,-96 67,-135 26,-44 92,-139 127,-173l49 -54c11,-11 21,-21 33,-33 42,-42 92,-86 137,-130 11,-12 21,-22 33,-33 23,-23 44,-45 68,-68l86 -96c4,-4 4,-5 8,-9 45,-51 118,-147 118,-222 0,-57 -55,-98 -100,-118 -5,-2 -16,-7 -22,-9 -13,25 -28,51 -44,74l-80 100c-10,11 -17,21 -29,31l-85 77c-4,3 -5,3 -9,7l-57 47c-62,53 -103,93 -163,152 -56,56 -115,136 -155,203 -73,120 -144,291 -144,456zm831 657c25,0 38,0 63,-7 53,-15 177,-129 231,-174l317 -285c28,-25 74,-74 98,-104l24 -34c120,-182 154,-412 84,-633 -17,-52 -52,-139 -100,-171 0,26 12,68 7,129 -1,11 1,22 -1,34 -5,35 -4,51 -13,94 -21,104 -49,169 -96,257 -54,99 -144,197 -229,268 -7,6 -12,10 -18,16l-152 132c-31,29 -61,59 -88,90l-50 57c-6,7 -11,12 -16,19 -6,7 -10,12 -16,20 -6,8 -9,13 -15,21 -35,46 -86,137 -90,194 -2,18 -3,47 4,61 4,8 16,9 25,11 10,3 18,5 31,5z"/>
 </g>
</svg>
