<svg xmlns="http://www.w3.org/2000/svg" viewBox="0 0 23.96 23.96"><defs><style>.cls-1{fill:#c7c8cb;}</style></defs><title>chat</title><g id="Layer_2" data-name="Layer 2"><g id="Layer_1-2" data-name="Layer 1"><path class="cls-1" d="M24,24H22.44s-7.46-.06-10.5-.06a11.95,11.95,0,1,1,12-12c0,2.73.06,10.5.06,10.5Zm-12-21a8.95,8.95,0,0,0,0,17.89c2.19,0,6.65,0,9,.05,0-2.41-.05-7-.05-9A9,9,0,0,0,11.94,3Z"/><rect class="cls-1" x="6.95" y="8.95" width="10.5" height="3" rx="1.5" ry="1.5"/><rect class="cls-1" x="6.95" y="12.95" width="10.5" height="3" rx="1.5" ry="1.5"/></g></g></svg>