<svg xmlns="http://www.w3.org/2000/svg" viewBox="0 0 23.96 23.96"><defs><style>.cls-1{fill:#7dc244;}</style></defs><title>chat_hover</title><g id="Layer_2" data-name="Layer 2"><g id="Layer_1-2" data-name="Layer 1"><g id="Layer_2-2" data-name="Layer 2"><g id="Layer_1-2-2" data-name="Layer 1-2"><path class="cls-1" d="M24,24H22.4s-7.46-.06-10.5-.06a12,12,0,1,1,12-12c0,2.73.06,10.5.06,10.5ZM12,3a8.95,8.95,0,0,0,0,17.89c2.19,0,6.65,0,9,0,0-2.41-.05-7-.05-9A9,9,0,0,0,11.9,3Z"/><path class="cls-1" d="M8.41,8.91h7.5a1.5,1.5,0,0,1,1.5,1.5h0a1.5,1.5,0,0,1-1.5,1.5H8.41a1.5,1.5,0,0,1-1.5-1.5h0A1.5,1.5,0,0,1,8.41,8.91Z"/><path class="cls-1" d="M8.41,12.91h7.5a1.5,1.5,0,0,1,1.5,1.5h0a1.5,1.5,0,0,1-1.5,1.5H8.41a1.5,1.5,0,0,1-1.5-1.5h0A1.5,1.5,0,0,1,8.41,12.91Z"/></g></g></g></g></svg>