<svg xmlns="http://www.w3.org/2000/svg" xmlns:xlink="http://www.w3.org/1999/xlink" viewBox="0 0 27.03 24.09"><defs><style>.cls-1{fill:none;}.cls-2{clip-path:url(#clip-path);}.cls-3{fill:#f73131;}.cls-4{fill:#f7f7f7;}.cls-5{fill:#3c3b6e;}.cls-6{fill:#fff;}</style><clipPath id="clip-path"><rect class="cls-1" x="0.03" y="0.09" width="27" height="24" rx="7" ry="7"/></clipPath></defs><title>usa</title><g id="Layer_2" data-name="Layer 2"><g id="Layer_1-2" data-name="Layer 1"><g id="Layer_2-2" data-name="Layer 2"><g id="Layer_1-2-2" data-name="Layer 1-2"><g class="cls-2"><rect class="cls-3" x="0.03" width="27" height="24.09"/><path d="M0,2.46H27m0,4.17H0M0,10.8H27M27,15H0m0,4.16H27m0,4.17H0"/><path class="cls-4" d="M27,24.09H0V22.52H27Zm0-4.17H0V18.35H27Zm0-4.17H0V14.18H27Zm0-4.16H0V10H27Zm0-4.17H0V5.84H27Zm0-4.17H0V1.67H27Z"/><rect class="cls-5" x="0.03" y="0.09" width="12.73" height="14.09"/><g id="s5"><g id="s4"><path id="s" class="cls-6" d="M.87,3.26l.49,1.49L.09,3.83H1.66L.39,4.75Z"/><path id="s-2" data-name="s" class="cls-6" d="M.87,6.14l.49,1.5L.09,6.71H1.66L.39,7.64Z"/><path id="s-3" data-name="s" class="cls-6" d="M.87,9l.49,1.49L.09,9.6H1.66l-1.27.92Z"/></g><path id="s-4" data-name="s" class="cls-6" d="M.87,11.92l.49,1.49L.09,12.49H1.66l-1.27.92Z"/></g><g id="s9"><g id="s4-2" data-name="s4"><path id="s-5" data-name="s" class="cls-6" d="M2.57,1.81,3.05,3.3,1.78,2.38H3.35L2.08,3.3Z"/><path id="s-6" data-name="s" class="cls-6" d="M2.57,4.7l.48,1.49L1.78,5.27H3.35l-1.27.92Z"/><path id="s-7" data-name="s" class="cls-6" d="M2.57,7.59l.48,1.49L1.78,8.16H3.35l-1.27.92Z"/><path id="s-8" data-name="s" class="cls-6" d="M2.57,10.47,3.05,12,1.78,11H3.35L2.08,12Z"/></g></g><g id="s18"><g id="s5-2" data-name="s5"><g id="s4-3" data-name="s4"><path id="s-9" data-name="s" class="cls-6" d="M4.27.37l.48,1.49L3.48.94H5.05l-1.27.92Z"/><path id="s-10" data-name="s" class="cls-6" d="M4.27,3.26l.48,1.49L3.48,3.83H5.05l-1.27.92Z"/><path id="s-11" data-name="s" class="cls-6" d="M4.27,6.14l.48,1.5L3.48,6.71H5.05l-1.27.93Z"/><path id="s-12" data-name="s" class="cls-6" d="M4.27,9l.48,1.49L3.48,9.6H5.05l-1.27.92Z"/></g><path id="s-13" data-name="s" class="cls-6" d="M4.27,11.92l.48,1.49-1.27-.92H5.05l-1.27.92Z"/></g><g id="s9-2" data-name="s9"><g id="s4-4" data-name="s4"><path id="s-14" data-name="s" class="cls-6" d="M6,1.81,6.45,3.3,5.18,2.38H6.75L5.48,3.3Z"/><path id="s-15" data-name="s" class="cls-6" d="M6,4.7l.49,1.49L5.18,5.27H6.75l-1.27.92Z"/><path id="s-16" data-name="s" class="cls-6" d="M6,7.59l.49,1.49L5.18,8.16H6.75l-1.27.92Z"/><path id="s-17" data-name="s" class="cls-6" d="M6,10.47,6.45,12,5.18,11H6.75L5.48,12Z"/></g></g></g><g id="s5-3" data-name="s5"><g id="s4-5" data-name="s4"><path id="s-18" data-name="s" class="cls-6" d="M7.66.37l.49,1.49L6.88.94H8.45l-1.27.92Z"/><path id="s-19" data-name="s" class="cls-6" d="M7.66,3.26l.49,1.49L6.88,3.83H8.45l-1.27.92Z"/><path id="s-20" data-name="s" class="cls-6" d="M7.66,6.14l.49,1.5L6.88,6.71H8.45l-1.27.93Z"/><path id="s-21" data-name="s" class="cls-6" d="M7.66,9l.49,1.49L6.88,9.6H8.45l-1.27.92Z"/></g><path id="s-22" data-name="s" class="cls-6" d="M7.66,11.92l.49,1.49-1.27-.92H8.45l-1.27.92Z"/></g><g id="s9-3" data-name="s9"><g id="s4-6" data-name="s4"><path id="s-23" data-name="s" class="cls-6" d="M9.36,1.81,9.85,3.3,8.58,2.38h1.56L8.88,3.3Z"/><path id="s-24" data-name="s" class="cls-6" d="M9.36,4.7l.49,1.49L8.58,5.27h1.56l-1.26.92Z"/><path id="s-25" data-name="s" class="cls-6" d="M9.36,7.59l.49,1.49L8.58,8.16h1.56l-1.26.92Z"/><path id="s-26" data-name="s" class="cls-6" d="M9.36,10.47,9.85,12,8.58,11h1.56L8.88,12Z"/></g></g><g id="s5-4" data-name="s5"><g id="s4-7" data-name="s4"><path id="s-27" data-name="s" class="cls-6" d="M11.06.37l.48,1.49L10.27.94h1.57l-1.27.92Z"/><path id="s-28" data-name="s" class="cls-6" d="M11.06,3.26l.48,1.49-1.27-.92h1.57l-1.27.92Z"/><path id="s-29" data-name="s" class="cls-6" d="M11.06,6.14l.48,1.5-1.27-.93h1.57l-1.27.93Z"/><path id="s-30" data-name="s" class="cls-6" d="M11.06,9l.48,1.49L10.27,9.6h1.57l-1.27.92Z"/></g><path id="s-31" data-name="s" class="cls-6" d="M11.06,11.92l.48,1.49-1.27-.92h1.57l-1.27.92Z"/></g></g></g></g></g></g></svg>