<?xml version="1.0" encoding="UTF-8"?>
<svg width="504px" height="504px" viewBox="0 0 504 504" version="1.1" xmlns="http://www.w3.org/2000/svg" xmlns:xlink="http://www.w3.org/1999/xlink">
    <!-- Generator: Sketch 45.2 (43514) - http://www.bohemiancoding.com/sketch -->
    <title>block</title>
    <desc>Created with Sketch.</desc>
    <defs></defs>
    <g id="Артем" stroke="none" stroke-width="1" fill="none" fill-rule="evenodd" opacity="0.0488224653">
        <g id="blocked" transform="translate(-431.000000, -93.000000)" fill-rule="nonzero" fill="#296CE0">
            <g id="block" transform="translate(431.000000, 93.000000)">
                <path d="M495.213,100.721 L449.888,100.721 L332.38,218.229 L360.918,218.229 L360.918,235.016 L325.666,235.016 L208.157,352.525 L308.039,352.525 L425.547,235.017 L411.278,235.017 L411.278,218.23 L427.226,218.23 L503.606,141.85 L503.606,109.116 C503.607,104.918 500.249,100.721 495.213,100.721 Z M394.492,235.016 L377.705,235.016 L377.705,218.229 L394.492,218.229 L394.492,235.016 Z" id="Shape"></path>
                <path d="M411.279,75.541 C421.351,67.987 428.066,56.236 428.066,41.967 C428.066,18.466 409.6,0 386.098,0 C362.596,0 344.131,18.466 344.131,41.967 C344.131,55.397 350.846,67.987 360.918,75.541 L360.918,100.721 L326.505,100.721 L208.997,218.229 L308.879,218.229 L426.387,100.721 L411.279,100.721 L411.279,75.541 Z M394.492,100.721 L377.705,100.721 L377.705,83.095 C380.223,83.934 383.58,83.934 386.098,83.934 C388.616,83.934 391.973,83.934 394.491,83.095 L394.491,100.721 L394.492,100.721 Z" id="Shape"></path>
                <path d="M8.393,100.721 C3.357,100.721 0,104.078 0,109.114 L0,170.386 L69.666,100.72 L8.393,100.72 L8.393,100.721 Z" id="Shape"></path>
                <path d="M450.728,218.229 L495.213,218.229 C500.249,218.229 503.606,214.872 503.606,209.836 L503.606,165.351 L450.728,218.229 Z" id="Shape"></path>
                <path d="M142.689,100.721 L142.689,75.541 C152.761,67.987 159.476,56.236 159.476,41.967 C159.475,18.466 141.01,0 117.508,0 C94.007,0 75.541,18.466 75.541,41.967 C75.541,55.397 82.256,67.987 92.328,75.541 L92.328,102.4 L0,194.728 L0,209.836 C0,214.872 4.197,218.229 8.393,218.229 L70.505,218.229 L188.013,100.721 L142.689,100.721 Z M125.902,100.721 L109.115,100.721 L109.115,83.095 C111.633,83.934 114.99,83.934 117.508,83.934 C120.026,83.934 123.383,83.934 125.901,83.095 L125.901,100.721 L125.902,100.721 Z" id="Shape"></path>
                <path d="M495.213,235.016 L449.888,235.016 L332.38,352.525 L377.705,352.525 L377.705,394.492 L125.902,394.492 L125.902,352.525 L184.656,352.525 L302.164,235.017 L212.354,235.017 L111.633,335.738 L88.131,335.738 L188.852,235.017 L142.688,235.017 L142.688,218.23 L184.655,218.23 L302.163,100.722 L212.353,100.722 L111.633,201.443 L100.722,201.443 C95.686,201.443 92.329,204.8 92.329,209.836 L92.329,235.856 L0,328.184 L0,344.132 C0,349.168 3.357,352.525 8.393,352.525 L70.505,352.525 L75.541,347.489 L75.541,495.214 C75.541,500.25 78.898,503.607 83.934,503.607 L117.508,503.607 C122.544,503.607 125.901,500.25 125.901,495.214 L125.901,461.64 L377.704,461.64 L377.704,495.214 C377.704,500.25 381.061,503.607 386.097,503.607 L419.671,503.607 C424.707,503.607 428.064,500.25 428.064,495.214 L428.064,351.685 L503.605,276.144 L503.605,243.41 C503.607,239.213 500.249,235.016 495.213,235.016 Z M109.115,218.229 L125.902,218.229 L125.902,235.016 L109.115,235.016 L109.115,218.229 L109.115,218.229 Z M109.115,402.885 L109.115,453.246 L109.115,486.82 L92.328,486.82 L92.328,352.525 L94.846,352.525 L109.115,352.525 L109.115,402.885 L109.115,402.885 Z M411.279,486.82 L394.492,486.82 L394.492,453.246 L394.492,402.885 L394.492,352.524 L411.279,352.524 L411.279,486.82 Z" id="Shape"></path>
                <path d="M8.393,235.016 C3.357,235.016 0,238.373 0,243.409 L0,304.681 L69.666,235.015 L8.393,235.015 L8.393,235.016 Z" id="Shape"></path>
                <path d="M450.728,352.525 L495.213,352.525 C500.249,352.525 503.606,349.168 503.606,344.132 L503.606,299.647 L450.728,352.525 Z" id="Shape"></path>
            </g>
        </g>
    </g>
</svg>