<svg xmlns="http://www.w3.org/2000/svg" viewBox="0 0 650.74 350.42"><defs><style>.cls-1{fill:#7dc244;}</style></defs><title>Ресурс 1</title><g id="Слой_2" data-name="Слой 2"><g id="Layer_1" data-name="Layer 1"><path class="cls-1" d="M100.12,75.09A99.72,99.72,0,0,0,50.06,88.52V0H0V175.21A100.11,100.11,0,1,0,100.12,75.09m0,150.19a50.07,50.07,0,1,1,50-50.07,50.07,50.07,0,0,1-50,50.07"/><path class="cls-1" d="M325.36,75.09a99.74,99.74,0,0,0-50.05,13.43V0H225.26V175.21A100.12,100.12,0,1,0,325.36,75.09m0,150.19a50.07,50.07,0,1,1,50.06-50.07,50.08,50.08,0,0,1-50.06,50.07"/><path class="cls-1" d="M550.63,75.09A100.13,100.13,0,0,0,450.51,175.22v175.2h50.05V261.91A100.12,100.12,0,1,0,550.63,75.09m0,150.19a50.07,50.07,0,1,1,50.06-50.07,50.07,50.07,0,0,1-50.06,50.07"/></g></g></svg>