<?xml version="1.0" encoding="utf-8"?>
<!-- Generator: Adobe Illustrator 16.0.0, SVG Export Plug-In . SVG Version: 6.00 Build 0)  -->
<!DOCTYPE svg PUBLIC "-//W3C//DTD SVG 1.1//EN" "http://www.w3.org/Graphics/SVG/1.1/DTD/svg11.dtd">
<svg version="1.1" id="Layer_1" xmlns="http://www.w3.org/2000/svg" xmlns:xlink="http://www.w3.org/1999/xlink" x="0px" y="0px"
	 width="300px" height="38px" viewBox="0 0 300 38" enable-background="new 0 0 300 38" xml:space="preserve">
<path fill="#2671DE" d="M19.396,8.768c-1.871,0-3.623,0.504-5.133,1.377V1.068H9.13v17.966c0,5.669,4.596,10.265,10.266,10.265
	c5.669,0,10.265-4.596,10.265-10.265C29.661,13.364,25.065,8.768,19.396,8.768 M19.396,24.168c-2.835,0-5.133-2.299-5.133-5.134
	c0-2.836,2.298-5.133,5.133-5.133c2.834,0,5.132,2.297,5.132,5.133C24.528,21.869,22.23,24.168,19.396,24.168"/>
<path fill="#2671DE" d="M42.493,8.768c-1.87,0-3.623,0.504-5.132,1.377V1.068h-5.133v17.966c0,5.669,4.596,10.265,10.265,10.265
	c5.67,0,10.267-4.596,10.267-10.265C52.76,13.364,48.164,8.768,42.493,8.768 M42.493,24.168c-2.834,0-5.132-2.299-5.132-5.134
	c0-2.836,2.298-5.133,5.132-5.133c2.835,0,5.133,2.297,5.133,5.133C47.626,21.869,45.329,24.168,42.493,24.168"/>
<path fill="#2671DE" d="M65.592,8.768c-5.669,0-10.266,4.597-10.266,10.267V37h5.132v-9.076c1.511,0.873,3.263,1.375,5.133,1.375
	c5.669,0,10.266-4.596,10.266-10.265C75.858,13.364,71.261,8.768,65.592,8.768 M65.592,24.168c-2.835,0-5.133-2.299-5.133-5.134
	c0-2.836,2.298-5.133,5.133-5.133s5.133,2.297,5.133,5.133C70.725,21.869,68.427,24.168,65.592,24.168"/>
<path fill="#505456" d="M80.991,24.168V13.901h5.048c1.878,0,2.924,1.17,2.924,2.616c0,1.293-0.831,2.155-1.785,2.355
	c1.092,0.17,1.986,1.264,1.986,2.523c0,1.586-1.062,2.771-2.986,2.771H80.991z M87.116,16.825c0-0.769-0.523-1.338-1.447-1.338
	h-2.877v2.662h2.877C86.593,18.149,87.116,17.596,87.116,16.825 M87.316,21.152c0-0.771-0.539-1.418-1.57-1.418h-2.955v2.848h2.955
	C86.731,22.582,87.316,22.043,87.316,21.152"/>
<polygon fill="#505456" points="91.174,24.168 91.174,13.901 98.207,13.901 98.207,15.488 92.974,15.488 92.974,18.149 
	98.099,18.149 98.099,19.736 92.974,19.736 92.974,22.582 98.207,22.582 98.207,24.168 "/>
<path fill="#505456" d="M99.593,22.721l1-1.385c0.708,0.754,1.816,1.416,3.247,1.416c1.478,0,2.063-0.723,2.063-1.4
	c0-2.156-5.987-0.816-5.987-4.604c0-1.692,1.493-3.001,3.74-3.001c1.601,0,2.894,0.509,3.848,1.433l-1.031,1.338
	c-0.8-0.801-1.893-1.17-2.971-1.17c-1.062,0-1.739,0.509-1.739,1.277c0,1.909,5.971,0.723,5.971,4.557c0,1.709-1.2,3.17-3.97,3.17
	C101.87,24.352,100.5,23.689,99.593,22.721"/>
<polygon fill="#505456" points="111.404,24.168 111.404,15.488 108.295,15.488 108.295,13.901 116.313,13.901 116.313,15.488 
	113.205,15.488 113.205,24.168 "/>
<path fill="#505456" d="M119.501,19.043c0-3.063,2.171-5.311,5.249-5.311c3.079,0,5.249,2.248,5.249,5.311
	c0,3.063-2.17,5.309-5.249,5.309C121.672,24.352,119.501,22.105,119.501,19.043 M128.151,19.043c0-2.125-1.339-3.709-3.402-3.709
	c-2.077,0-3.4,1.584-3.4,3.709c0,2.109,1.323,3.709,3.4,3.709C126.812,22.752,128.151,21.152,128.151,19.043"/>
<polygon fill="#505456" points="131.667,24.168 131.667,13.901 138.701,13.901 138.701,15.488 133.469,15.488 133.469,18.149 
	138.594,18.149 138.594,19.734 133.469,19.734 133.469,24.168 "/>
<path fill="#505456" d="M144.274,24.168V13.901h5.048c1.876,0,2.923,1.17,2.923,2.616c0,1.293-0.832,2.155-1.786,2.355
	c1.094,0.17,1.987,1.264,1.987,2.523c0,1.586-1.063,2.771-2.987,2.771H144.274z M150.4,16.825c0-0.769-0.524-1.338-1.448-1.338
	h-2.878v2.662h2.878C149.875,18.149,150.4,17.596,150.4,16.825 M150.599,21.152c0-0.771-0.539-1.418-1.57-1.418h-2.955v2.848h2.955
	C150.013,22.582,150.599,22.043,150.599,21.152"/>
<path fill="#505456" d="M154.135,20.119v-6.218h1.816v6.157c0,1.631,0.908,2.693,2.633,2.693c1.709,0,2.615-1.063,2.615-2.693
	v-6.157h1.814v6.204c0,2.555-1.459,4.246-4.43,4.246C155.598,24.352,154.135,22.643,154.135,20.119"/>
<path fill="#505456" d="M164.352,22.721l1-1.385c0.709,0.754,1.814,1.416,3.248,1.416c1.477,0,2.063-0.723,2.063-1.4
	c0-2.156-5.988-0.816-5.988-4.604c0-1.692,1.494-3.001,3.74-3.001c1.6,0,2.893,0.509,3.848,1.433l-1.029,1.338
	c-0.803-0.801-1.895-1.17-2.971-1.17c-1.064,0-1.74,0.509-1.74,1.277c0,1.909,5.971,0.723,5.971,4.557
	c0,1.709-1.201,3.17-3.971,3.17C166.629,24.352,165.26,23.689,164.352,22.721"/>
<rect x="174.131" y="13.901" fill="#505456" width="1.801" height="10.267"/>
<polygon fill="#505456" points="185.258,24.168 179.902,16.841 179.902,24.168 178.104,24.168 178.104,13.901 179.949,13.901 
	185.197,21.027 185.197,13.901 186.996,13.901 186.996,24.168 "/>
<polygon fill="#505456" points="189.193,24.168 189.193,13.901 196.227,13.901 196.227,15.488 190.992,15.488 190.992,18.149 
	196.119,18.149 196.119,19.734 190.992,19.734 190.992,22.582 196.227,22.582 196.227,24.168 "/>
<path fill="#505456" d="M197.305,22.721l1-1.385c0.709,0.754,1.816,1.416,3.248,1.416c1.477,0,2.063-0.723,2.063-1.4
	c0-2.156-5.988-0.816-5.988-4.604c0-1.692,1.494-3.001,3.742-3.001c1.598,0,2.895,0.509,3.846,1.433l-1.031,1.338
	c-0.801-0.801-1.893-1.17-2.971-1.17c-1.063,0-1.736,0.509-1.736,1.277c0,1.909,5.969,0.723,5.969,4.557
	c0,1.709-1.199,3.17-3.971,3.17C199.584,24.352,198.213,23.689,197.305,22.721"/>
<path fill="#505456" d="M206.299,22.721l1.002-1.385c0.709,0.754,1.816,1.416,3.248,1.416c1.477,0,2.063-0.723,2.063-1.4
	c0-2.156-5.988-0.816-5.988-4.604c0-1.692,1.492-3.001,3.74-3.001c1.6,0,2.895,0.509,3.848,1.433l-1.031,1.338
	c-0.801-0.801-1.893-1.17-2.971-1.17c-1.061,0-1.74,0.509-1.74,1.277c0,1.909,5.973,0.723,5.973,4.557
	c0,1.709-1.199,3.17-3.973,3.17C208.578,24.352,207.207,23.689,206.299,22.721"/>
<path fill="#505456" d="M220.496,24.168V13.901h4.508c2.154,0,3.355,1.477,3.355,3.218c0,1.738-1.217,3.217-3.355,3.217h-2.709
	v3.832H220.496z M226.51,17.119c0-0.985-0.736-1.632-1.752-1.632h-2.463v3.264h2.463C225.773,18.75,226.51,18.104,226.51,17.119"/>
<path fill="#505456" d="M235.703,24.168l-0.756-1.971h-4.707l-0.756,1.971h-2.043l4.031-10.267h2.246l4.033,10.267H235.703z
	 M232.596,15.717l-1.848,4.896h3.693L232.596,15.717z"/>
<path fill="#505456" d="M244.879,24.168l-2.281-3.832h-1.783v3.832h-1.801V13.901h4.51c2.031,0,3.355,1.323,3.355,3.218
	c0,1.831-1.201,2.816-2.432,3.018l2.508,4.031H244.879z M245.031,17.119c0-0.985-0.738-1.632-1.756-1.632h-2.461v3.264h2.461
	C244.293,18.75,245.031,18.104,245.031,17.119"/>
<polygon fill="#505456" points="250.914,24.168 250.914,15.488 247.805,15.488 247.805,13.901 255.822,13.901 255.822,15.488 
	252.715,15.488 252.715,24.168 "/>
<polygon fill="#505456" points="264.221,24.168 258.863,16.841 258.863,24.168 257.061,24.168 257.061,13.901 258.91,13.901 
	264.16,21.027 264.16,13.901 265.959,13.901 265.959,24.168 "/>
<polygon fill="#505456" points="268.156,24.168 268.156,13.901 275.188,13.901 275.188,15.488 269.955,15.488 269.955,18.149 
	275.082,18.149 275.082,19.734 269.955,19.734 269.955,22.582 275.188,22.582 275.188,24.168 "/>
<path fill="#505456" d="M282.961,24.168l-2.277-3.832h-1.787v3.832h-1.799V13.901h4.51c2.031,0,3.355,1.323,3.355,3.218
	c0,1.831-1.201,2.816-2.434,3.018l2.51,4.031H282.961z M283.115,17.119c0-0.985-0.738-1.632-1.754-1.632h-2.465v3.264h2.465
	C282.377,18.75,283.115,18.104,283.115,17.119"/>
<path fill="#505456" d="M285.924,22.721l1-1.385c0.707,0.754,1.814,1.416,3.248,1.416c1.477,0,2.063-0.723,2.063-1.4
	c0-2.156-5.988-0.816-5.988-4.604c0-1.692,1.494-3.001,3.74-3.001c1.604,0,2.895,0.509,3.846,1.433l-1.029,1.338
	c-0.799-0.801-1.895-1.17-2.971-1.17c-1.063,0-1.738,0.509-1.738,1.277c0,1.909,5.971,0.723,5.971,4.557
	c0,1.709-1.201,3.17-3.973,3.17C288.203,24.352,286.832,23.689,285.924,22.721"/>
</svg>
