<?xml version="1.0" encoding="UTF-8"?>
<svg width="21px" height="21px" viewBox="0 0 21 21" version="1.1" xmlns="http://www.w3.org/2000/svg" xmlns:xlink="http://www.w3.org/1999/xlink">
    <!-- Generator: Sketch 46.2 (44496) - http://www.bohemiancoding.com/sketch -->
    <title>pencil</title>
    <desc>Created with Sketch.</desc>
    <defs></defs>
    <g id="Алексей" stroke="none" stroke-width="1" fill="none" fill-rule="evenodd">
        <g id="message" transform="translate(-476.000000, -398.000000)" fill-rule="nonzero" fill="#CBCBCB">
            <g transform="translate(392.000000, 183.000000)" id="pencil">
                <g transform="translate(84.000000, 215.000000)">
                    <path d="M1.10675904,20.4818948 C1.16578846,20.4818948 1.22481787,20.4818948 1.28384729,20.4523801 L7.45242126,18.6519829 C7.74756834,18.5634388 8.01320071,18.4158653 8.21980367,18.2092623 L19.4944221,6.93464385 C20.9996722,5.42939374 20.9996722,3.00918769 19.4944221,1.50393758 C17.989172,-0.00131252683 15.568966,-0.00131252683 14.0637158,1.50393758 L2.7890974,12.778556 C2.58249444,12.985159 2.4349209,13.2507914 2.34637678,13.5459384 L0.545979591,19.7145124 C0.486950175,19.9211154 0.545979591,20.157233 0.693553131,20.3048066 C0.811611963,20.4228654 0.959185503,20.4818948 1.10675904,20.4818948 Z M7.74756834,16.9991593 L4.02871513,13.2507914 C4.02871513,13.2507914 4.02871513,13.2507914 4.02871513,13.2507914 L13.2077893,4.07171718 C13.2077893,4.07171718 13.2077893,4.07171718 13.2077893,4.10123188 L16.9561572,7.8495998 L7.74756834,16.9991593 Z M14.8901277,2.35986411 C15.4213924,1.82859937 16.1002307,1.5924817 16.779069,1.5924817 C17.4579073,1.5924817 18.1367456,1.85811408 18.6680103,2.35986411 C19.7010251,3.39287889 19.7010251,5.07521725 18.6680103,6.10823203 L17.7825691,6.96415856 L14.0342011,3.24530535 C14.0342011,3.24530535 14.0342011,3.24530535 14.0046864,3.24530535 L14.8901277,2.35986411 Z M3.34987685,14.2542914 L6.71455356,17.6189681 L1.96268557,19.0061594 L3.34987685,14.2542914 Z"></path>
                </g>
            </g>
        </g>
    </g>
</svg>