<svg xmlns="http://www.w3.org/2000/svg" width="18" height="19" viewBox="0 0 18 19">
    <path fill="#2671DE" fill-rule="nonzero" d="M16.398 2.065c.88.027 1.602.754 1.602 1.648v13.04c0 .909-.74 1.658-1.65 1.658H1.65c-.911 0-1.65-.747-1.65-1.658V3.713c0-.894.723-1.621 1.602-1.648V4.29c0 1.006.817 1.816 1.823 1.816h1.15c1.006 0 1.834-.81 1.834-1.816V2.057h5.182V4.29c0 1.006.828 1.816 1.834 1.816h1.15c1.006 0 1.823-.81 1.823-1.816V2.065zm-.534 13.876V9.205a.713.713 0 0 0-.714-.713H2.818a.713.713 0 0 0-.713.713v6.736c0 .393.32.713.713.713H15.15c.394 0 .714-.32.714-.713zM6.48 10.183v1.439a.412.412 0 0 1-.412.412H4.629a.412.412 0 0 1-.412-.412v-1.439c0-.227.185-.412.412-.412h1.439c.227 0 .412.185.412.412zm3.6 0v1.439a.412.412 0 0 1-.412.412H8.23a.412.412 0 0 1-.412-.412v-1.439c0-.227.185-.412.412-.412h1.44c.226 0 .411.185.411.412zm3.703 0v1.439a.412.412 0 0 1-.412.412h-1.439a.412.412 0 0 1-.412-.412v-1.439c0-.227.185-.412.412-.412h1.439c.227 0 .412.185.412.412zm-7.303 3.6v1.44a.412.412 0 0 1-.412.411H4.629a.412.412 0 0 1-.412-.412v-1.438c0-.228.185-.413.412-.413h1.439c.227 0 .412.185.412.413zm3.6 0v1.44a.412.412 0 0 1-.412.411H8.23a.412.412 0 0 1-.412-.412v-1.438c0-.228.185-.413.412-.413h1.44c.226 0 .411.185.411.413zm3.703 0v1.44a.412.412 0 0 1-.412.411h-1.439a.412.412 0 0 1-.412-.412v-1.438c0-.228.185-.413.412-.413h1.439c.227 0 .412.185.412.413zM3.397 4.938a.624.624 0 0 1-.62-.63V.63c0-.348.277-.63.62-.63h1.126c.343 0 .62.282.62.63v3.678c0 .348-.277.63-.62.63H3.397zm9.977 0a.624.624 0 0 1-.62-.63V.63c0-.348.278-.63.62-.63H14.5c.342 0 .619.282.619.63v3.678c0 .348-.277.63-.62.63h-1.126z"/>
</svg>
