<svg xmlns="http://www.w3.org/2000/svg" width="24" height="22" viewBox="0 0 24 22">
    <path fill="none" fill-rule="nonzero" stroke="#319b42" d="M20.118 3.595l-.737-.287-1.753-.675-2.003-.78-1.803-.7-1.577-.614a1.352 1.352 0 0 0-.987 0L3.395 3.595c-.412.207-.66.64-.631 1.1v13.597h-.881a1.127 1.127 0 1 0 0 2.24H21.63a1.127 1.127 0 0 0 0-2.24h-.879V4.694a1.151 1.151 0 0 0-.633-1.1zM10.87 16.794l-6.325.164v-1.577l6.334-.496-.01 1.909zm0-3.81l-6.325.827v-1.578l6.334-1.158-.01 1.909zm0-3.81L4.546 10.66V9.083l6.334-1.82-.01 1.91zm0-3.81L4.546 7.512V5.965L10.871 3.5v1.863z"/>
</svg>