<?xml version="1.0" encoding="UTF-8"?>
<svg width="16px" height="16px" viewBox="0 0 16 16" version="1.1" xmlns="http://www.w3.org/2000/svg" xmlns:xlink="http://www.w3.org/1999/xlink">
    <!-- Generator: Sketch 45.2 (43514) - http://www.bohemiancoding.com/sketch -->
    <title>delet</title>
    <desc>Created with Sketch.</desc>
    <defs></defs>
    <g id="Артем" stroke="none" stroke-width="1" fill="none" fill-rule="evenodd">
        <g id="service_0" transform="translate(-879.000000, -381.000000)" fill-rule="nonzero" fill="#D4D4D4">
            <g id="lang" transform="translate(456.000000, 324.000000)">
                <path d="M430.988571,57 C426.576571,57 423,60.5777143 423,64.9902857 C423,69.4022857 426.576571,72.98 430.988571,72.98 C435.402857,72.98 438.98,69.4017143 438.98,64.9902857 C438.98,60.5777143 435.402857,57 430.988571,57 Z M434.424,67.1537143 L433.151429,68.4245714 C433.151429,68.4245714 431.138286,66.2645714 430.988,66.2645714 C430.84,66.2645714 428.826286,68.4245714 428.826286,68.4245714 L427.553143,67.1537143 C427.553143,67.1537143 429.715429,65.1697143 429.715429,64.9931429 C429.715429,64.8137143 427.553143,62.8291429 427.553143,62.8291429 L428.826286,61.5554286 C428.826286,61.5554286 430.856571,63.7165714 430.988,63.7165714 C431.120571,63.7165714 433.151429,61.5554286 433.151429,61.5554286 L434.424,62.8291429 C434.424,62.8291429 432.261143,64.8422857 432.261143,64.9931429 C432.261143,65.1365714 434.424,67.1537143 434.424,67.1537143 Z" id="delet"></path>
            </g>
        </g>
    </g>
</svg>