<?xml version="1.0" encoding="UTF-8"?>
<svg width="16px" height="16px" viewBox="0 0 16 16" version="1.1" xmlns="http://www.w3.org/2000/svg" xmlns:xlink="http://www.w3.org/1999/xlink">
    <!-- Generator: Sketch 45.2 (43514) - http://www.bohemiancoding.com/sketch -->
    <title>delet_hover</title>
    <desc>Created with Sketch.</desc>
    <defs></defs>
    <g id="Артем" stroke="none" stroke-width="1" fill="none" fill-rule="evenodd">
        <g id="service_0" transform="translate(-879.000000, -431.000000)" fill-rule="nonzero" fill="#319b42">
            <g id="lang" transform="translate(456.000000, 324.000000)">
                <path d="M430.988571,107 C426.576571,107 423,110.577714 423,114.990286 C423,119.402286 426.576571,122.98 430.988571,122.98 C435.402857,122.98 438.98,119.401714 438.98,114.990286 C438.98,110.577714 435.402857,107 430.988571,107 Z M434.424,117.153714 L433.151429,118.424571 C433.151429,118.424571 431.138286,116.264571 430.988,116.264571 C430.84,116.264571 428.826286,118.424571 428.826286,118.424571 L427.553143,117.153714 C427.553143,117.153714 429.715429,115.169714 429.715429,114.993143 C429.715429,114.813714 427.553143,112.829143 427.553143,112.829143 L428.826286,111.555429 C428.826286,111.555429 430.856571,113.716571 430.988,113.716571 C431.120571,113.716571 433.151429,111.555429 433.151429,111.555429 L434.424,112.829143 C434.424,112.829143 432.261143,114.842286 432.261143,114.993143 C432.261143,115.136571 434.424,117.153714 434.424,117.153714 Z" id="delet_hover"></path>
            </g>
        </g>
    </g>
</svg>