<svg xmlns="http://www.w3.org/2000/svg" xmlns:xlink="http://www.w3.org/1999/xlink" width="20" height="19" viewBox="0 0 20 19">
    <defs>
        <path id="a" d="M298 166l-1.26-1.217c-4.68-4-7.74-6.696-7.74-10 0-2.696 2.16-4.783 4.95-4.783 1.53 0 3.06.696 4.05 1.826.99-1.13 2.52-1.826 4.05-1.826 2.79 0 4.95 2.087 4.95 4.783 0 3.304-3.06 6-7.74 10L298 166z"/>
    </defs>
    <g fill="none" fill-rule="nonzero" transform="translate(-288 -149)">
        <use fill="#F72C2C" fill-rule="evenodd" xlink:href="#a"/>
        <path stroke="#FFF" d="M298 151.108a6.013 6.013 0 0 1 4.05-1.608c3.062 0 5.45 2.307 5.45 5.283 0 3.07-1.7 5.067-7.893 10.36L298 166.694l-.347-.335-1.238-1.197c-6.216-5.313-7.915-7.31-7.915-10.38 0-2.976 2.388-5.283 5.45-5.283 1.487 0 2.974.599 4.05 1.608z"/>
    </g>
</svg>
