<?xml version="1.0" encoding="UTF-8"?>
<svg width="22px" height="22px" viewBox="0 0 22 22" version="1.1" xmlns="http://www.w3.org/2000/svg" xmlns:xlink="http://www.w3.org/1999/xlink">
    <!-- Generator: Sketch 45.2 (43514) - http://www.bohemiancoding.com/sketch -->
    <title>link_blue</title>
    <desc>Created with Sketch.</desc>
    <defs></defs>
    <g id="Артем" stroke="none" stroke-width="1" fill="none" fill-rule="evenodd">
        <g id="service-page-" transform="translate(-560.000000, -455.000000)" fill-rule="nonzero" fill="#CBCBCB">
            <g id="link" transform="translate(560.000000, 455.000000)">
                <path d="M13.4196998,8.54522027 C13.7163782,8.84262768 13.8710214,9.25316569 13.8443041,9.67236647 C13.8225185,10.028269 13.6715634,10.3640156 13.4197856,10.6165224 C12.8400663,11.1695244 11.9282027,11.1695244 11.3484834,10.6165224 C11.3442378,10.6122768 11.3399922,10.6080312 11.3357466,10.6037856 C10.4747446,9.74981676 9.08454191,9.75552047 8.2305731,10.6165224 L3.57201949,15.2824094 C2.71406238,16.1403665 2.71406238,17.531384 3.57201949,18.3893411 C4.42997661,19.2472982 5.82099415,19.2472982 6.67895127,18.3893411 L9.44190253,15.6227446 C9.5462846,15.5176764 9.70375828,15.4858558 9.84077583,15.5422495 C10.5844016,15.8446745 11.3800468,15.998846 12.1828538,15.9960156 L12.3292203,15.9960156 C12.4275127,15.9954581 12.5219454,16.0344405 12.5911618,16.1042573 C12.7334542,16.2477505 12.7325107,16.4794581 12.5890175,16.6217934 L8.74652242,20.4642885 C6.74563743,22.4651735 3.50155945,22.4651735 1.50067446,20.4642885 C-0.500210526,18.4634035 -0.500210526,15.2193255 1.50067446,13.2184405 L6.15922807,8.55988694 C6.44964522,8.26736842 6.77398441,8.0105731 7.12534113,7.79503314 C8.79875634,6.77299805 10.9087407,6.7957271 12.5597271,7.85357115 C12.871115,8.05157115 13.1595595,8.28353606 13.4196998,8.54522027 Z M20.4642885,1.50067446 C22.4651735,3.50155945 22.4651735,6.74563743 20.4642885,8.74652242 L15.8275205,13.4380546 C15.1722378,14.0935517 14.3514191,14.5589825 13.4525068,14.7847719 L13.4122378,14.7847719 L13.2,14.8286862 L13.0828811,14.8506433 L12.8303743,14.8872242 L12.7059649,14.8872242 C12.6108031,14.9091813 12.5266199,14.9091813 12.4461248,14.9091813 L12.1680156,14.9091813 L11.9118635,14.9091813 C11.7293021,14.9018908 11.5472982,14.8847797 11.3665809,14.8579337 C11.2165692,14.8323314 11.0701598,14.8030409 10.9237934,14.76646 L10.7078674,14.707922 C10.6310175,14.6859649 10.5578129,14.6566745 10.4736725,14.6310721 C10.3895322,14.6054698 10.3199727,14.5725341 10.2394776,14.5432437 C10.1589825,14.5139532 10.0857778,14.4810175 10.0089279,14.4444366 C9.4642885,14.1920585 8.96870955,13.8451618 8.5451345,13.4197856 C8.24845614,13.1223782 8.09381287,12.7118402 8.12061598,12.2926394 C8.14240156,11.9367368 8.29335673,11.6009903 8.5451345,11.3484834 C9.1248538,10.7954815 10.0367173,10.7954815 10.6164366,11.3484834 C10.6206823,11.352729 10.6249279,11.3569747 10.6291735,11.3612203 C11.4901326,12.2151891 12.8803782,12.2094854 13.734347,11.3484834 L14.9310097,10.1408421 L14.9603002,10.1079064 L18.3929435,6.68259649 C19.2509006,5.82463938 19.2509006,4.43362183 18.3929435,3.57566472 C17.5349864,2.7177076 16.1439688,2.7177076 15.2860117,3.57566472 L12.5194152,6.34226121 C12.4150331,6.44732943 12.2575595,6.4791501 12.1205419,6.42275634 C11.3783743,6.11921637 10.5839727,5.96384405 9.78210916,5.96530214 L9.64672125,5.96530214 C9.49722417,5.96817544 9.36102144,5.87978947 9.30274074,5.74208577 C9.24377388,5.60476803 9.27417934,5.44545029 9.37959064,5.33952437 L13.2184405,1.50067446 C15.2193255,-0.500210526 18.4634035,-0.500210526 20.4642885,1.50067446 Z" id="link_blue"></path>
            </g>
        </g>
    </g>
</svg>