<?xml version="1.0" encoding="UTF-8"?>
<svg width="20px" height="20px" viewBox="0 0 20 20" version="1.1" xmlns="http://www.w3.org/2000/svg" xmlns:xlink="http://www.w3.org/1999/xlink">
    <!-- Generator: Sketch 45.2 (43514) - http://www.bohemiancoding.com/sketch -->
    <title>phone</title>
    <desc>Created with Sketch.</desc>
    <defs></defs>
    <g id="Артем" stroke="none" stroke-width="1" fill="none" fill-rule="evenodd">
        <g id="profile" transform="translate(-173.000000, -498.000000)" fill-rule="nonzero" fill="#CBCBCB">
            <g id="right" transform="translate(85.000000, 105.000000)">
                <g id="contact" transform="translate(88.000000, 360.000000)">
                    <path d="M4.30886875,33.001401 C4.45072892,33.0090457 4.59428678,33.0438483 4.74323011,33.1461881 C4.79079045,33.1792667 4.83207747,33.2205537 4.86515611,33.2681141 L7.72279663,37.2154682 C7.86538855,37.4087917 7.84598885,37.6771543 7.67707438,37.8479593 L6.86169429,38.6633394 C6.51379285,39.011243 6.35473575,39.3556449 6.33588843,39.6616085 C6.31704038,39.967572 6.41858132,40.2624671 6.71690717,40.5608127 L12.4398086,46.2760937 C12.7381413,46.5744467 13.0254274,46.6758891 13.3313924,46.6571125 C13.6373574,46.6382627 13.9893766,46.4868063 14.3372819,46.138927 L15.152662,45.3235469 C15.3215031,45.1522525 15.5900079,45.1296075 15.7851531,45.2702043 L19.7325072,48.1354652 C19.7767017,48.166944 19.8153341,48.2055763 19.8468128,48.2497708 C20.0514617,48.5476604 20.010777,48.8366494 19.9534981,49.1032528 C19.8962192,49.3698562 19.7847835,49.6464697 19.6410627,49.9338736 C19.3550802,50.5058041 18.9269356,51.1133369 18.4294231,51.5951153 C18.4268017,51.5975538 18.424429,51.6000533 18.4218028,51.6027357 C17.2062072,52.8128024 15.5687954,53.1724353 13.9867447,52.9286809 C12.4012761,52.68439 10.8451087,51.8597923 9.66599219,50.6806703 L2.31995095,43.3270087 C1.14082269,42.1478892 0.31622084,40.5993413 0.0719404006,39.0138766 C-0.17181783,37.431799 0.18776639,35.7868052 1.3978856,34.5711982 C1.40034851,34.5686621 1.4030382,34.5661138 1.40550598,34.5635778 C1.88729533,34.0660709 2.4948433,33.6379156 3.06674767,33.3519382 C3.35416504,33.2082167 3.6307666,33.1043992 3.89736852,33.0471232 C4.03066948,33.018495 4.16700859,32.9937684 4.30886875,33.001401 Z" id="phone"></path>
                </g>
            </g>
        </g>
    </g>
</svg>