<?xml version="1.0" encoding="utf-8" ?>
<svg xmlns:xlink="http://www.w3.org/1999/xlink" xmlns="http://www.w3.org/2000/svg" width="22" height="22">
    <defs>
        <clipPath id="clip_0">
            <rect x="-446.45276" y="-312.4845" width="1311.36" height="875.51996" clip-rule="evenodd"/>
        </clipPath>
    </defs>
    <g clip-path="url(#clip_0)">
        <path fill="#319b42" stroke="none" transform="matrix(0.96 0 0 0.96 -0.0360107 0.439941)"
              d="M4.27736 0.0518339C4.42366 0.0203439 4.57329 -0.00685456 4.72898 0.00154101C4.88468 0.00994999 5.04223 0.0482316 5.2057 0.160802C5.25789 0.197187 5.30321 0.242602 5.33951 0.294916L8.47577 4.63687C8.63226 4.84952 8.61097 5.14471 8.42559 5.33259L7.53071 6.22948C7.14889 6.61216 6.97432 6.99099 6.95364 7.32754C6.93295 7.66409 7.04439 7.98847 7.37181 8.31664L13.6527 14.6033C13.9801 14.9314 14.2954 15.043 14.6312 15.0224C14.967 15.0016 15.3533 14.835 15.7352 14.4524L16.63 13.5555C16.8153 13.3671 17.11 13.3422 17.3242 13.4968L21.6564 16.6485C21.7049 16.6831 21.7473 16.7256 21.7819 16.7742C22.0065 17.1019 21.9618 17.4198 21.899 17.713C21.8361 18.0063 21.7138 18.3106 21.5561 18.6267C21.2422 19.2558 20.7723 19.9241 20.2263 20.454C20.2234 20.4567 20.2208 20.4594 20.2179 20.4624C18.8838 21.7934 17.0868 22.189 15.3505 21.9209C13.6104 21.6522 11.9025 20.7451 10.6084 19.4481L2.54615 11.3594C1.25205 10.0624 0.347052 8.35902 0.0789546 6.61506C-0.18857 4.87483 0.206074 3.06539 1.53418 1.72826C1.53688 1.72548 1.53983 1.72267 1.54254 1.71988C2.07131 1.17264 2.73809 0.701686 3.36576 0.38712C3.6812 0.229031 3.98477 0.114836 4.27736 0.0518339ZM7.34672 4.88834L4.59517 1.09122L4.58754 1.09105C4.56472 1.09051 4.54733 1.09009 4.50317 1.0996C4.34335 1.13402 4.10064 1.22168 3.84247 1.35107C3.32612 1.60985 2.72639 2.03488 2.30361 2.47428C2.30085 2.4771 2.29806 2.4799 2.29525 2.48266C1.22259 3.55772 0.904465 4.9709 1.13274 6.4558C1.36101 7.9407 2.16272 9.4663 3.29885 10.605L11.3695 18.6854C12.5056 19.824 14.0278 20.6276 15.5094 20.8563C16.9909 21.0851 18.4009 20.7747 19.4736 19.6996C19.4763 19.6968 19.4791 19.694 19.482 19.6912C19.9203 19.2675 20.3444 18.658 20.6026 18.1405C20.7317 17.8818 20.8192 17.6469 20.8535 17.4867C20.864 17.4382 20.8631 17.4173 20.8622 17.3935L20.8619 17.3861L17.0566 14.6368L16.4879 15.2068C15.9648 15.731 15.3466 16.0552 14.6981 16.0953C14.0497 16.1353 13.4066 15.8738 12.9 15.366L6.6191 9.07103C6.11249 8.56324 5.85154 7.91039 5.89149 7.26049C5.93144 6.61058 6.24657 5.99096 6.76964 5.46671L7.34672 4.88834Z"
              fill-rule="evenodd"/>
    </g>
</svg>
