<?xml version="1.0" encoding="UTF-8"?>
<svg width="16px" height="21px" viewBox="0 0 16 21" version="1.1" xmlns="http://www.w3.org/2000/svg" xmlns:xlink="http://www.w3.org/1999/xlink">
    <!-- Generator: Sketch 46.2 (44496) - http://www.bohemiancoding.com/sketch -->
    <title>Combined Shape</title>
    <desc>Created with Sketch.</desc>
    <defs></defs>
    <g id="Алексей" stroke="none" stroke-width="1" fill="none" fill-rule="evenodd">
        <g id="Главная-результаты" transform="translate(-903.000000, -622.000000)" fill-rule="nonzero" fill="#ffffff">
            <g id="result" transform="translate(169.000000, 164.000000)">
                <g id="3" transform="translate(694.000000, 110.000000)">
                    <g id="name" transform="translate(33.000000, 341.063335)">
                        <path d="M14.9702602,17.1812937 C12.6555539,17.1812937 10.7790335,14.9021561 10.7790335,12.0906766 C10.7790335,9.27913755 11.3952416,7 14.9702602,7 C18.5452788,7 19.161368,9.27913755 19.161368,12.0906766 C19.161368,14.9021561 17.2848476,17.1812937 14.9702602,17.1812937 Z M22.8771747,24.7485204 C22.8821115,25.0617993 22.8847286,25.1159851 22.8860372,25.0880297 C22.8858587,25.1710632 22.8857398,25.2931152 22.8857398,25.4686394 C22.8857398,25.4686394 21.7202974,27.8178439 14.9702007,27.8178439 C8.21998513,27.8178439 7.05466171,25.4686394 7.05466171,25.4686394 C7.05466171,25.1954498 7.05430483,25.0387807 7.05400743,24.9540818 C7.05531599,24.9992862 7.05870632,24.9788253 7.0660223,24.5894126 C7.15524164,19.8205204 7.83378439,18.4456506 12.6751227,17.5718959 C12.6751227,17.5718959 13.3642528,18.4498736 14.9702007,18.4498736 C16.5761487,18.4498736 17.2651599,17.5718959 17.2651599,17.5718959 C22.1599108,18.4552862 22.7995539,19.850855 22.8771747,24.7485204 Z" id="Combined-Shape"></path>
                    </g>
                </g>
            </g>
        </g>
    </g>
</svg>