<svg xmlns="http://www.w3.org/2000/svg" viewBox="0 0 287.16 186.27"><defs><style>.cls-1{fill:#7dc244;}</style></defs><title>bbp_by_eng</title><g id="Layer_2" data-name="Layer 2"><g id="Layer_1-2" data-name="Layer 1"><path class="cls-1" d="M44.18,29.14a44.07,44.07,0,0,0-22.09,5.92V0H0V73.32A44.18,44.18,0,1,0,44.18,29.14m0,66.27A22.09,22.09,0,1,1,66.26,73.32,22.09,22.09,0,0,1,44.18,95.41"/><path class="cls-1" d="M143.58,29.14a44,44,0,0,0-22.09,5.92V0H99.4V73.32a44.18,44.18,0,1,0,44.18-44.18m0,66.27a22.09,22.09,0,1,1,22.08-22.09,22.09,22.09,0,0,1-22.08,22.09"/><path class="cls-1" d="M243,29.14A44.18,44.18,0,0,0,198.8,73.32v71.31h22.09V111.57A44.18,44.18,0,1,0,243,29.14m0,66.27a22.09,22.09,0,1,1,22.09-22.09A22.09,22.09,0,0,1,243,95.41"/><path class="cls-1" d="M5.42,175.75v3.52H.23V147.91H5.42v12.46a9.07,9.07,0,0,1,7.69-4.25c5.37,0,10.57,4.25,10.57,11.85s-5.15,11.77-10.57,11.77A9.26,9.26,0,0,1,5.42,175.75Zm13-7.86c0-4.38-3-7.26-6.49-7.26S5.29,163.55,5.29,168s3.1,7.26,6.62,7.26S18.4,172.44,18.4,167.89Z"/><path class="cls-1" d="M25.48,184.9,27.24,181a6.38,6.38,0,0,0,3.05.86c1.47,0,2.37-.64,3.23-2.62l-9.45-22.68h5.54l6.44,16.84,5.89-16.84h5.41l-9,23.33c-1.8,4.63-3.82,6.35-7.48,6.35A10.59,10.59,0,0,1,25.48,184.9Z"/><path class="cls-1" d="M60.85,174.89,64,171.11c2.88,2.49,5.75,3.91,9.49,3.91,3.27,0,5.33-1.5,5.33-3.87,0-2.15-1.21-3.3-6.79-4.64-6.4-1.5-10-3.39-10-9,0-5.15,4.3-8.72,10.27-8.72a16.66,16.66,0,0,1,10.91,3.78l-2.84,4a13.63,13.63,0,0,0-8.16-3.09c-3.09,0-4.89,1.59-4.89,3.65,0,2.32,1.37,3.35,7.13,4.72,6.35,1.55,9.66,3.82,9.66,8.89,0,5.63-4.42,9-10.74,9A18.54,18.54,0,0,1,60.85,174.89Z"/><path class="cls-1" d="M93.24,175.75v3.52H88V147.91h5.2v12.46a9.07,9.07,0,0,1,7.69-4.25c5.37,0,10.57,4.25,10.57,11.85s-5.16,11.77-10.57,11.77A9.25,9.25,0,0,1,93.24,175.75Zm13-7.86c0-4.38-3-7.26-6.48-7.26s-6.62,2.92-6.62,7.34,3.09,7.26,6.62,7.26S106.21,172.44,106.21,167.89Z"/><path class="cls-1" d="M113.86,167.93c0-6.49,4.6-11.81,11.08-11.81,7.22,0,10.87,5.67,10.87,12.2a13,13,0,0,1-.09,1.46H119.06a6.33,6.33,0,0,0,6.53,5.75,8.23,8.23,0,0,0,6.14-2.7l3.05,2.7a11.47,11.47,0,0,1-9.28,4.26C118.93,179.79,113.86,175,113.86,167.93Zm16.8-1.59c-.35-3.35-2.32-6-5.76-6-3.18,0-5.41,2.45-5.89,6Z"/><path class="cls-1" d="M139.33,156.59h5.2v5.11c1.42-3.39,4-5.71,8-5.54v5.5h-.3c-4.55,0-7.73,3-7.73,9v8.63h-5.2Z"/><path class="cls-1" d="M160.55,175.75v3.52h-5.19V147.91h5.19v12.46a9.07,9.07,0,0,1,7.69-4.25c5.37,0,10.57,4.25,10.57,11.85s-5.16,11.77-10.57,11.77A9.25,9.25,0,0,1,160.55,175.75Zm13-7.86c0-4.38-3-7.26-6.48-7.26s-6.62,2.92-6.62,7.34,3.1,7.26,6.62,7.26S173.52,172.44,173.52,167.89Z"/><path class="cls-1" d="M196.29,179.27v-2.79a9.16,9.16,0,0,1-7.34,3.26c-4.3,0-8.08-2.44-8.08-7.08,0-5,3.91-7.44,9.19-7.44a19,19,0,0,1,6.27.95v-.43c0-3.13-2-4.85-5.58-4.85a15.84,15.84,0,0,0-6.49,1.41l-1.41-4.16a19.4,19.4,0,0,1,8.63-1.89c6.7,0,10,3.52,10,9.58v13.44Zm.13-9.49a14.75,14.75,0,0,0-5.2-.9c-3.26,0-5.19,1.33-5.19,3.6s1.93,3.36,4.38,3.36c3.43,0,6-1.94,6-4.77Z"/><path class="cls-1" d="M205.92,156.59h5.19v3.52a8.18,8.18,0,0,1,7.09-4c5.11,0,8.08,3.43,8.08,8.72v14.43h-5.2V166.38c0-3.52-1.76-5.54-4.85-5.54s-5.12,2.11-5.12,5.63v12.8h-5.19Z"/><path class="cls-1" d="M230.83,147.91H236v18.73l9.4-10h6.32l-9,9.24,9.32,13.44h-6l-6.83-9.79L236,172.79v6.48h-5.2Z"/></g></g></svg>