<svg xmlns="http://www.w3.org/2000/svg" viewBox="0 0 287.28 185.87"><defs><style>.cls-1{fill:#7dc244;}</style></defs><title>bbp_by</title><g id="Layer_2" data-name="Layer 2"><g id="Layer_1-2" data-name="Layer 1"><path class="cls-1" d="M44.18,29.14a44.07,44.07,0,0,0-22.09,5.92V0H0V73.32A44.18,44.18,0,1,0,44.18,29.14m0,66.27A22.09,22.09,0,1,1,66.26,73.32,22.09,22.09,0,0,1,44.18,95.41"/><path class="cls-1" d="M143.58,29.14a44,44,0,0,0-22.09,5.92V0H99.4V73.32a44.18,44.18,0,1,0,44.18-44.18m0,66.27a22.09,22.09,0,1,1,22.08-22.09,22.09,22.09,0,0,1-22.08,22.09"/><path class="cls-1" d="M243,29.14A44.18,44.18,0,0,0,198.8,73.32v71.31h22.09V111.57A44.18,44.18,0,1,0,243,29.14m0,66.27a22.09,22.09,0,1,1,22.09-22.09A22.09,22.09,0,0,1,243,95.41"/><path class="cls-1" d="M0,167.73a11.84,11.84,0,0,1,12.1-11.84A11.82,11.82,0,1,1,12,179.52,11.72,11.72,0,0,1,0,167.73Zm19,0a7,7,0,0,0-7-7.29c-4.16,0-6.82,3.26-6.82,7.29A7,7,0,0,0,12.12,175C16.32,175,19,171.72,19,167.73Z"/><path class="cls-1" d="M34.39,160.82H27.1v-4.46H46.91v4.46H39.62V179H34.39Z"/><path class="cls-1" d="M62.23,164a15.19,15.19,0,0,1,15.48-15.53,15.61,15.61,0,0,1,11.75,4.68l-3.38,3.9c-2.41-2.23-5-3.73-8.41-3.73-5.75,0-9.91,4.72-9.91,10.68s4.16,10.68,9.91,10.68c3.69,0,6-1.5,8.62-3.91l3.39,3.43a15.49,15.49,0,0,1-12.18,5.32A15.12,15.12,0,0,1,62.23,164Z"/><path class="cls-1" d="M92.21,166.31c0-7,.82-14.11,9.05-15.82l12.35-2.58.86,4.16-12.35,2.71c-4.38.94-5.71,3.43-6,6.43,1.16-2,4-4.25,8.7-4.25a10.92,10.92,0,0,1,10.81,11,11.54,11.54,0,0,1-11.79,11.53C96.54,179.52,92.21,174.68,92.21,166.31Zm18.27,1.76a6.72,6.72,0,0,0-6.6-7c-3.82,0-6.48,3.09-6.48,7a6.68,6.68,0,0,0,6.56,7C107.86,175,110.48,171.93,110.48,168.07Z"/><path class="cls-1" d="M118,167.69c0-6.48,4.59-11.8,11.06-11.8,7.21,0,10.86,5.66,10.86,12.18,0,.34,0,1.2-.09,1.46H123.18a6.32,6.32,0,0,0,6.52,5.75,8.22,8.22,0,0,0,6.13-2.71l3,2.71a11.48,11.48,0,0,1-9.27,4.24C123.05,179.52,118,174.76,118,167.69Zm16.77-1.59c-.34-3.35-2.32-6-5.75-6-3.17,0-5.4,2.44-5.87,6Z"/><path class="cls-1" d="M143.42,156.36h5.19v3.78a9.05,9.05,0,0,1,7.68-4.25c5.36,0,10.55,4.25,10.55,11.84s-5.15,11.75-10.55,11.75a9.24,9.24,0,0,1-7.68-4v10.38h-5.19Zm18.15,11.28c0-4.37-3-7.24-6.48-7.24s-6.6,2.91-6.6,7.33,3.08,7.25,6.6,7.25S161.57,172.19,161.57,167.64Z"/><path class="cls-1" d="M169.76,166.31c0-7,.82-14.11,9.05-15.82l12.35-2.58.86,4.16-12.35,2.71c-4.38.94-5.71,3.43-6,6.43,1.15-2,4-4.25,8.7-4.25a10.92,10.92,0,0,1,10.81,11,11.54,11.54,0,0,1-11.79,11.53C174.09,179.52,169.76,174.68,169.76,166.31ZM188,168.07a6.72,6.72,0,0,0-6.6-7c-3.82,0-6.48,3.09-6.48,7a6.68,6.68,0,0,0,6.56,7C185.41,175,188,171.93,188,168.07Z"/><path class="cls-1" d="M210.63,179v-2.79a9.15,9.15,0,0,1-7.33,3.26c-4.29,0-8.06-2.45-8.06-7.08,0-5,3.9-7.42,9.18-7.42a19,19,0,0,1,6.26,1v-.43c0-3.13-2-4.85-5.58-4.85a15.67,15.67,0,0,0-6.47,1.42l-1.42-4.16a19.35,19.35,0,0,1,8.62-1.89c6.69,0,9.95,3.52,9.95,9.56V179Zm.13-9.48a14.92,14.92,0,0,0-5.19-.9c-3.26,0-5.19,1.33-5.19,3.6s1.93,3.35,4.38,3.35c3.43,0,6-1.93,6-4.76Z"/><path class="cls-1" d="M220.24,156.36h5.19v9.18h10v-9.18h5.19V179h-5.19v-9.14h-10V179h-5.19Z"/><path class="cls-1" d="M245.42,156.36h5.15v10.85l9.86-10.85h6.09l-8.79,9.52L267.25,179h-6.13l-6.86-9.35-3.69,3.9V179h-5.15Z"/><path class="cls-1" d="M282.14,179v-2.79a9.19,9.19,0,0,1-7.34,3.26c-4.29,0-8.06-2.45-8.06-7.08,0-5,3.9-7.42,9.18-7.42a19,19,0,0,1,6.26,1v-.43c0-3.13-2-4.85-5.58-4.85a15.71,15.71,0,0,0-6.47,1.42l-1.42-4.16a19.35,19.35,0,0,1,8.62-1.89c6.69,0,9.95,3.52,9.95,9.56V179Zm.13-9.48a15,15,0,0,0-5.19-.9c-3.26,0-5.19,1.33-5.19,3.6s1.93,3.35,4.37,3.35c3.43,0,6-1.93,6-4.76Z"/></g></g></svg>