<svg xmlns="http://www.w3.org/2000/svg" viewBox="0 0 1155.28 154.63"><defs><style>.cls-1{fill:#7dc244;}.cls-2{fill:#505456;}</style></defs><title>Ресурс 2</title><g id="Слой_2" data-name="Слой 2"><g id="Layer_1" data-name="Layer 1"><path class="cls-1" d="M44.18,33.14a44,44,0,0,0-22.09,5.92V0H0V77.32A44.18,44.18,0,1,0,44.18,33.14m0,66.27A22.1,22.1,0,1,1,66.26,77.32,22.09,22.09,0,0,1,44.18,99.41"/><path class="cls-1" d="M143.57,33.14a43.93,43.93,0,0,0-22.08,5.92V0H99.4V77.32a44.18,44.18,0,1,0,44.17-44.18m0,66.27a22.1,22.1,0,1,1,22.1-22.09,22.09,22.09,0,0,1-22.1,22.09"/><path class="cls-1" d="M243,33.14A44.18,44.18,0,0,0,198.8,77.32v77.31h22.09V115.57A44.17,44.17,0,1,0,243,33.14m0,66.27a22.1,22.1,0,1,1,22.09-22.09A22.09,22.09,0,0,1,243,99.41"/><path class="cls-2" d="M309.92,53.45h33.7v7.17H317.8V71h12.58c9.94,0,16.4,5,16.4,13.68,0,9-6.46,14-16.78,14H309.92Zm18.33,38.09c6.85,0,10.59-1.62,10.59-7.17,0-4.39-3.29-6.65-9.17-6.65H317.8V91.54Z"/><path class="cls-2" d="M367.89,53.13h7.36l19.87,45.51h-8.39l-4.58-10.91H360.79l-4.65,10.91H348Zm11.36,27.56-7.81-18.07-7.75,18.07Z"/><path class="cls-2" d="M399,53.45h7.94V72.23H428.5V53.45h7.94V98.63H428.5v-19H406.94v19H399Z"/><path class="cls-2" d="M442.9,53.45h7.94V76.17l21.49-22.72h9.75L463.29,72.88l19.63,25.75H473.3L457.87,78.3l-7,7.23v13.1H442.9V53.45Z"/><path class="cls-2" d="M502.61,53.45H536.3v7.17H510.48V71h12.59c9.94,0,16.39,5,16.39,13.68,0,9-6.45,14-16.78,14H502.61V53.45Zm18.33,38.09c6.84,0,10.58-1.62,10.58-7.17,0-4.39-3.29-6.65-9.16-6.65H510.48V91.54Z"/><path class="cls-2" d="M543.27,53.45h7.81v33l22.85-33h7.43V98.63h-7.81V65.72L550.76,98.63h-7.49V53.45Z"/><path class="cls-2" d="M620.41,64.81c0,5.81-3.68,8.84-7.68,10.52,5,1.55,8.84,5,8.84,10.85,0,7.48-6.52,13.23-16.59,13.23-8.78,0-14.52-2.58-19.56-7.42l4.33-5.49a20.85,20.85,0,0,0,15,6c4.77,0,8.84-2.52,8.84-6.77,0-4.65-4.45-6.59-10.33-6.59h-5.1V72.56h5c5.74,0,9.29-2.32,9.29-6.58,0-3.81-3.48-6.33-8.52-6.33a17.08,17.08,0,0,0-12.65,5l-4.26-5.16c4.33-4.13,9.43-6.84,17.43-6.84C613.89,52.68,620.41,57.78,620.41,64.81Z"/><path class="cls-2" d="M627,53.45h7.94V72.23h21.55V53.45h7.94V98.63h-7.94v-19H634.94v19H627V53.45Z"/><path class="cls-2" d="M670.89,53.45h33.5v7.1H678.83V72.3h22.65v7.1H678.83V91.54h25.88v7.1H670.89Z"/><path class="cls-2" d="M705.68,76c0-12.84,9.62-23.36,23.3-23.36,8.33,0,13.37,2.9,17.69,7l-5.1,5.87C738,62.23,734.08,60,728.92,60,720.27,60,714,67.07,714,76.05s6.26,16.07,14.91,16.07c5.55,0,9.1-2.26,13-5.88l5.1,5.17c-4.71,4.9-9.87,8-18.33,8C715.5,99.41,705.68,89.15,705.68,76Z"/><path class="cls-2" d="M751.84,75h19.1v7.68h-19.1Z"/><path class="cls-2" d="M776.5,53.45h36.85V98.63h-7.94v-38h-21v38H776.5Z"/><path class="cls-2" d="M835.82,53.13h7.35l19.88,45.51h-8.39l-4.58-10.91H828.72l-4.65,10.91h-8.13Zm11.36,27.56-7.81-18.07-7.75,18.07Z"/><path class="cls-2" d="M866.93,53.45h17.81c10.53,0,17.17,6,17.17,15.23,0,10.14-8.13,15.43-18.07,15.43h-9V98.63h-7.94V53.45ZM884.1,77c6,0,9.75-3.36,9.75-8.2,0-5.29-3.81-8.07-9.75-8.07h-9.23V77Z"/><path class="cls-2" d="M917.28,60.81H903V53.45h36.66v7.36H925.28V98.63h-8Z"/><path class="cls-2" d="M944.14,53.45h7.93V72.23h21.56V53.45h7.94V98.63h-7.94v-19H952.07v19h-7.93Z"/><path class="cls-2" d="M988,53.45h33.5v7.1H996V72.3h22.65v7.1H996V91.54h25.88v7.1H988Z"/><path class="cls-2" d="M1027.4,53.45h17.82c10.52,0,17.17,6,17.17,15.23,0,10.14-8.14,15.43-18.07,15.43h-9V98.63h-7.94V53.45ZM1044.57,77c6,0,9.75-3.36,9.75-8.2,0-5.29-3.81-8.07-9.75-8.07h-9.22V77Z"/><path class="cls-2" d="M1065.94,76c0-12.71,9.81-23.36,23.69-23.36S1113.19,63.2,1113.19,76s-9.81,23.37-23.69,23.37S1065.94,88.89,1065.94,76Zm38.92,0c0-8.77-6.39-16.07-15.36-16.07s-15.23,7.17-15.23,16.07,6.39,16.08,15.36,16.08S1104.86,85,1104.86,76Z"/><path class="cls-2" d="M1117.65,53.45h20.26c5.17,0,9.23,1.42,11.82,4a10.22,10.22,0,0,1,3,7.62c0,5.42-3.1,8.33-6.45,10.07,5.29,1.81,9,4.84,9,11.1,0,8.07-6.65,12.39-16.72,12.39h-20.91V53.45Zm18.65,19c5.1,0,8.52-2,8.52-6.26,0-3.55-2.84-5.74-7.94-5.74h-11.42v12Zm2.33,19.11c5.42,0,8.71-2.13,8.71-6.33,0-3.81-3-6.06-9.3-6.06h-12.58V91.6Z"/><path class="cls-1" d="M311,129.82a9.69,9.69,0,1,1,9.64,9.46A9.5,9.5,0,0,1,311,129.82Zm15.22,0a5.62,5.62,0,0,0-5.58-5.85c-3.34,0-5.47,2.61-5.47,5.85a5.63,5.63,0,0,0,5.54,5.85C324.1,135.67,326.24,133,326.24,129.82Z"/><path class="cls-1" d="M338.61,124.28h-5.86V120.7h15.91v3.58H342.8v14.59h-4.2V124.28Z"/><path class="cls-1" d="M361,126.82a12.19,12.19,0,0,1,12.43-12.46,12.57,12.57,0,0,1,9.43,3.75l-2.72,3.14a9.59,9.59,0,0,0-6.75-3c-4.61,0-7.95,3.79-7.95,8.57s3.34,8.57,7.95,8.57c3,0,4.86-1.2,6.92-3.13L383,135a12.44,12.44,0,0,1-9.77,4.26A12.13,12.13,0,0,1,361,126.82Z"/><path class="cls-1" d="M385,128.68c0-5.64.65-11.32,7.26-12.7l9.91-2.07.69,3.34L393,119.42c-3.51.76-4.58,2.76-4.79,5.17.93-1.59,3.2-3.41,7-3.41a8.77,8.77,0,0,1,8.68,8.85,9.27,9.27,0,0,1-9.47,9.26C388.49,139.28,385,135.39,385,128.68Zm14.66,1.41a5.39,5.39,0,0,0-5.3-5.61c-3.06,0-5.2,2.48-5.2,5.61a5.36,5.36,0,0,0,5.27,5.58A5.25,5.25,0,0,0,399.68,130.09Z"/><path class="cls-1" d="M405.71,129.78c0-5.19,3.68-9.46,8.88-9.46,5.78,0,8.71,4.54,8.71,9.77,0,.28,0,1-.07,1.17H409.87a5.09,5.09,0,0,0,5.24,4.62,6.61,6.61,0,0,0,4.92-2.17l2.44,2.17a9.2,9.2,0,0,1-7.43,3.4A9.08,9.08,0,0,1,405.71,129.78Zm13.46-1.27c-.28-2.69-1.86-4.78-4.62-4.78-2.54,0-4.33,2-4.71,4.78Z"/><path class="cls-1" d="M426.12,120.7h4.17v3a7.25,7.25,0,0,1,6.16-3.4c4.3,0,8.47,3.4,8.47,9.5s-4.13,9.43-8.47,9.43a7.41,7.41,0,0,1-6.16-3.2v8.33h-4.17Zm14.56,9c0-3.51-2.37-5.82-5.19-5.82s-5.31,2.34-5.31,5.89,2.48,5.82,5.31,5.82S440.68,133.4,440.68,129.75Z"/><path class="cls-1" d="M447.26,128.68c0-5.64.66-11.32,7.26-12.7l9.92-2.07.69,3.34-9.92,2.17c-3.51.76-4.58,2.76-4.78,5.17.93-1.59,3.2-3.41,7-3.41a8.76,8.76,0,0,1,8.67,8.85,9.27,9.27,0,0,1-9.47,9.26C450.74,139.28,447.26,135.39,447.26,128.68Zm14.67,1.41a5.4,5.4,0,0,0-5.31-5.61c-3.06,0-5.19,2.48-5.19,5.61a5.36,5.36,0,0,0,5.26,5.58A5.26,5.26,0,0,0,461.93,130.09Z"/><path class="cls-1" d="M480.07,138.87v-2.24a7.35,7.35,0,0,1-5.89,2.62c-3.44,0-6.47-2-6.47-5.68,0-4,3.13-6,7.37-6a15.2,15.2,0,0,1,5,.76V128c0-2.52-1.58-3.89-4.47-3.89a12.63,12.63,0,0,0-5.2,1.13l-1.14-3.34a15.67,15.67,0,0,1,6.92-1.51c5.37,0,8,2.82,8,7.68v10.77Zm.1-7.61a12,12,0,0,0-4.16-.72c-2.62,0-4.17,1.07-4.17,2.89s1.55,2.69,3.51,2.69c2.76,0,4.82-1.55,4.82-3.82v-1Z"/><path class="cls-1" d="M487.78,120.7H492v7.36h8V120.7h4.16v18.17H500v-7.33h-8v7.33h-4.17Z"/><path class="cls-1" d="M508,120.7h4.13v8.7l7.92-8.7h4.89l-7.06,7.64,7.64,10.53h-4.92l-5.51-7.5-3,3.13v4.37H508V120.7Z"/><path class="cls-1" d="M537.46,138.87v-2.24a7.35,7.35,0,0,1-5.89,2.62c-3.44,0-6.47-2-6.47-5.68,0-4,3.13-6,7.37-6a15.2,15.2,0,0,1,5,.76V128c0-2.52-1.58-3.89-4.47-3.89a12.63,12.63,0,0,0-5.2,1.13l-1.14-3.34a15.67,15.67,0,0,1,6.92-1.51c5.37,0,8,2.82,8,7.68v10.77Zm.1-7.61a12,12,0,0,0-4.16-.72c-2.62,0-4.17,1.07-4.17,2.89s1.55,2.69,3.51,2.69c2.76,0,4.82-1.55,4.82-3.82Z"/></g></g></svg>