<svg xmlns="http://www.w3.org/2000/svg" viewBox="0 0 1384 170.92"><defs><style>.cls-1{fill:#7dc244;}.cls-2{fill:#505456;}</style></defs><title>Ресурс 1</title><g id="Слой_2" data-name="Слой 2"><g id="Layer_1" data-name="Layer 1"><path class="cls-1" d="M48.83,36.63a48.52,48.52,0,0,0-24.41,6.55V0H0V85.46A48.83,48.83,0,1,0,48.83,36.63m0,73.25A24.42,24.42,0,1,1,73.24,85.46a24.41,24.41,0,0,1-24.41,24.42"/><path class="cls-1" d="M158.7,36.63a48.52,48.52,0,0,0-24.41,6.55V0H109.87V85.46A48.84,48.84,0,1,0,158.7,36.63m0,73.25a24.42,24.42,0,1,1,24.42-24.42,24.41,24.41,0,0,1-24.42,24.42"/><path class="cls-1" d="M268.58,36.63a48.84,48.84,0,0,0-48.84,48.83v85.46h24.41V127.75a48.83,48.83,0,1,0,24.43-91.12m0,73.25A24.42,24.42,0,1,1,293,85.46a24.42,24.42,0,0,1-24.41,24.42"/><path class="cls-2" d="M342.57,59.08H365c5.71,0,10.2,1.57,13.06,4.42a11.28,11.28,0,0,1,3.35,8.42c0,6-3.42,9.21-7.13,11.13,5.85,2,9.92,5.35,9.92,12.27,0,8.92-7.35,13.7-18.48,13.7H342.57V59.08Zm20.62,21c5.64,0,9.42-2.21,9.42-6.92,0-3.93-3.14-6.35-8.78-6.35H351.2V80.13Zm2.57,21.12c6,0,9.63-2.36,9.63-7,0-4.21-3.35-6.7-10.27-6.7H351.2v13.7Z"/><path class="cls-2" d="M407.5,58.72h8.13l22,50.3h-9.28l-5.06-12H399.65l-5.14,12h-9Zm12.55,30.47-8.63-20-8.56,20Z"/><path class="cls-2" d="M441.89,59.08H450l26.76,34.53V59.08h8.63V109h-7.35L450.52,73.49V109h-8.63V59.08Z"/><path class="cls-2" d="M494,59.08h8.77V84.19l23.76-25.11h10.77L516.52,80.55,538.21,109H527.58L510.53,86.55l-7.78,8V109H494Z"/><path class="cls-2" d="M556.34,84.05c0-14,10.84-25.83,26.18-25.83s26,11.63,26,25.83-10.84,25.83-26.18,25.83S556.34,98.25,556.34,84.05Zm43,0c0-9.7-7.07-17.76-17-17.76s-16.84,7.92-16.84,17.76,7.06,17.77,17,17.77S599.36,93.9,599.36,84.05Z"/><path class="cls-2" d="M614.91,59.08h37.18v8h-28.4V80.7h25.19v8H623.69V109h-8.78Z"/><path class="cls-2" d="M674.56,59.08H697c5.7,0,10.2,1.57,13,4.42a11.29,11.29,0,0,1,3.36,8.42c0,6-3.43,9.21-7.14,11.13,5.85,2,9.92,5.35,9.92,12.27,0,8.92-7.35,13.7-18.48,13.7H674.56V59.08Zm20.62,21c5.64,0,9.42-2.21,9.42-6.92,0-3.93-3.14-6.35-8.77-6.35H683.2V80.13Zm2.57,21.12c6,0,9.63-2.36,9.63-7,0-4.21-3.35-6.7-10.27-6.7H683.2v13.7Z"/><path class="cls-2" d="M721,87.83V59.08h8.77V87.47c0,9.28,4.79,14.27,12.63,14.27S755,97,755,87.83V59.08h8.78V87.4c0,14.92-8.42,22.41-21.48,22.41S721,102.32,721,87.83Z"/><path class="cls-2" d="M768.17,101.74l5.28-6.27C778.23,99.6,783,102,789.22,102c5.42,0,8.85-2.5,8.85-6.42,0-3.57-2-5.5-11.27-7.71-10.63-2.5-16.63-5.64-16.63-15,0-8.56,7.14-14.49,17.06-14.49a27.74,27.74,0,0,1,18.12,6.28l-4.71,6.64c-4.5-3.36-9-5.14-13.56-5.14-5.14,0-8.13,2.64-8.13,6.07,0,3.85,2.28,5.56,11.84,7.85,10.56,2.56,16.05,6.35,16.05,14.76,0,9.35-7.34,14.92-17.83,14.92A30.75,30.75,0,0,1,768.17,101.74Z"/><path class="cls-2" d="M813.41,59.08h8.78V109h-8.78Z"/><path class="cls-2" d="M831.24,59.08h8.14l26.76,34.53V59.08h8.63V109h-7.35L839.88,73.49V109h-8.64Z"/><path class="cls-2" d="M883.33,59.08h37v7.85H892.11v13h25v7.85h-25v13.41h28.61V109H883.33V59.08Z"/><path class="cls-2" d="M923.5,101.74l5.28-6.27c4.78,4.13,9.56,6.49,15.77,6.49,5.42,0,8.85-2.5,8.85-6.42,0-3.57-2-5.5-11.28-7.71-10.63-2.5-16.62-5.64-16.62-15,0-8.56,7.14-14.49,17-14.49a27.7,27.7,0,0,1,18.12,6.28L956,71.28c-4.5-3.36-9-5.14-13.56-5.14-5.14,0-8.14,2.64-8.14,6.07,0,3.85,2.29,5.56,11.85,7.85,10.56,2.56,16,6.35,16,14.76,0,9.35-7.35,14.92-17.83,14.92A30.73,30.73,0,0,1,923.5,101.74Z"/><path class="cls-2" d="M964.17,101.74l5.28-6.27C974.23,99.6,979,102,985.22,102c5.42,0,8.85-2.5,8.85-6.42,0-3.57-2-5.5-11.27-7.71-10.63-2.5-16.63-5.64-16.63-15,0-8.56,7.14-14.49,17.06-14.49a27.74,27.74,0,0,1,18.12,6.28l-4.71,6.64c-4.5-3.36-9-5.14-13.56-5.14-5.14,0-8.13,2.64-8.13,6.07,0,3.85,2.28,5.56,11.84,7.85,10.56,2.56,16.05,6.35,16.05,14.76,0,9.35-7.34,14.92-17.83,14.92A30.75,30.75,0,0,1,964.17,101.74Z"/><path class="cls-2" d="M1026,59.08h19.7c11.63,0,19,6.63,19,16.84,0,11.2-9,17-20,17h-9.92v16H1026Zm19,26c6.64,0,10.78-3.71,10.78-9.06,0-5.85-4.21-8.92-10.78-8.92h-10.2v18Z"/><path class="cls-2" d="M1082.11,58.72h8.14l22,50.3H1103l-5.06-12h-23.62l-5.14,12h-9Zm12.56,30.47-8.63-20-8.56,20Z"/><path class="cls-2" d="M1116.51,59.08h22.26c11.7,0,18.55,6.28,18.55,15.91,0,8.2-4.92,13.13-11.92,15.12L1158.89,109h-10.35l-12.41-17.41h-10.85V109h-8.77V59.08Zm21.61,24.76c6.28,0,10.28-3.29,10.28-8.49,0-5.36-3.85-8.28-10.35-8.28h-12.77V83.84Z"/><path class="cls-2" d="M1176.08,67.21h-15.84V59.08h40.53v8.13h-15.84V109h-8.85V67.21Z"/><path class="cls-2" d="M1205.77,59.08h8.13l26.76,34.53V59.08h8.63V109h-7.35L1214.4,73.49V109h-8.63V59.08Z"/><path class="cls-2" d="M1257.85,59.08h37v7.85h-28.25v13h25v7.85h-25v13.41h28.61V109h-37.39V59.08Z"/><path class="cls-2" d="M1301.38,59.08h22.26c11.7,0,18.55,6.28,18.55,15.91,0,8.2-4.92,13.13-11.92,15.12L1343.76,109h-10.35L1321,91.61h-10.85V109h-8.77V59.08ZM1323,83.84c6.28,0,10.28-3.29,10.28-8.49,0-5.36-3.85-8.28-10.35-8.28h-12.77V83.84Z"/><path class="cls-2" d="M1345.33,101.74l5.28-6.27c4.78,4.13,9.56,6.49,15.77,6.49,5.42,0,8.84-2.5,8.84-6.42,0-3.57-2-5.5-11.27-7.71-10.63-2.5-16.62-5.64-16.62-15,0-8.56,7.13-14.49,17.05-14.49a27.7,27.7,0,0,1,18.12,6.28l-4.71,6.64c-4.49-3.36-9-5.14-13.55-5.14-5.14,0-8.14,2.64-8.14,6.07,0,3.85,2.29,5.56,11.85,7.85,10.56,2.56,16,6.35,16,14.76,0,9.35-7.35,14.92-17.84,14.92A30.72,30.72,0,0,1,1345.33,101.74Z"/><path class="cls-1" d="M347.55,150.51v3.12h-4.61V125.85h4.61v11a8,8,0,0,1,6.81-3.77c4.76,0,9.36,3.77,9.36,10.5s-4.57,10.43-9.36,10.43A8.2,8.2,0,0,1,347.55,150.51Zm11.49-7c0-3.89-2.63-6.44-5.75-6.44s-5.86,2.59-5.86,6.51,2.74,6.43,5.86,6.43S359,147.58,359,143.55Z"/><path class="cls-1" d="M365.32,158.61l1.56-3.42a5.61,5.61,0,0,0,2.7.76c1.3,0,2.09-.57,2.85-2.32l-8.37-20.09H369l5.71,14.92,5.21-14.92h4.8l-8,20.66c-1.6,4.11-3.39,5.63-6.63,5.63A9.3,9.3,0,0,1,365.32,158.61Z"/><path class="cls-1" d="M395.76,149.75l2.82-3.35a12.25,12.25,0,0,0,8.41,3.46c2.89,0,4.72-1.33,4.72-3.42,0-1.91-1.07-2.93-6-4.11-5.67-1.33-8.86-3-8.86-8,0-4.57,3.8-7.73,9.09-7.73a14.74,14.74,0,0,1,9.66,3.35l-2.51,3.54a12.06,12.06,0,0,0-7.23-2.74c-2.74,0-4.33,1.41-4.33,3.24,0,2.05,1.21,3,6.31,4.18,5.64,1.37,8.57,3.39,8.57,7.88,0,5-3.92,7.95-9.52,7.95A16.43,16.43,0,0,1,395.76,149.75Z"/><path class="cls-1" d="M424.46,150.51v3.12h-4.61V125.85h4.61v11a8,8,0,0,1,6.81-3.77c4.75,0,9.36,3.77,9.36,10.5s-4.57,10.43-9.36,10.43A8.19,8.19,0,0,1,424.46,150.51Zm11.49-7c0-3.89-2.63-6.44-5.75-6.44s-5.86,2.59-5.86,6.51,2.74,6.43,5.86,6.43S436,147.58,436,143.55Z"/><path class="cls-1" d="M442.72,143.58c0-5.74,4.07-10.46,9.82-10.46,6.39,0,9.62,5,9.62,10.81a12.71,12.71,0,0,1-.07,1.29H447.32a5.62,5.62,0,0,0,5.79,5.1,7.31,7.31,0,0,0,5.44-2.4l2.7,2.4a10.17,10.17,0,0,1-8.22,3.77C447.21,154.09,442.72,149.86,442.72,143.58Zm14.88-1.41c-.31-3-2.06-5.28-5.1-5.28-2.82,0-4.8,2.16-5.21,5.28Z"/><path class="cls-1" d="M465.28,133.54h4.61v4.53c1.26-3,3.58-5.07,7.12-4.91V138h-.27c-4,0-6.85,2.62-6.85,7.95v7.65h-4.61V133.54Z"/><path class="cls-1" d="M484.08,150.51v3.12h-4.6V125.85h4.6v11a8,8,0,0,1,6.81-3.77c4.76,0,9.37,3.77,9.37,10.5s-4.57,10.43-9.37,10.43A8.2,8.2,0,0,1,484.08,150.51Zm11.5-7c0-3.89-2.63-6.44-5.75-6.44S484,139.7,484,143.62s2.74,6.43,5.86,6.43S495.58,147.58,495.58,143.55Z"/><path class="cls-1" d="M515.74,153.63v-2.47a8.13,8.13,0,0,1-6.5,2.89c-3.81,0-7.16-2.17-7.16-6.28,0-4.45,3.46-6.58,8.15-6.58a17,17,0,0,1,5.55.83v-.38c0-2.77-1.75-4.3-4.94-4.3a14,14,0,0,0-5.75,1.26l-1.26-3.69a17.24,17.24,0,0,1,7.65-1.68c5.94,0,8.83,3.12,8.83,8.49v11.91Zm.12-8.41a13.1,13.1,0,0,0-4.61-.8c-2.89,0-4.6,1.18-4.6,3.2s1.71,3,3.88,3c3.05,0,5.33-1.72,5.33-4.23Z"/><path class="cls-1" d="M524.27,133.54h4.6v3.12a7.25,7.25,0,0,1,6.28-3.54c4.53,0,7.16,3,7.16,7.72v12.79H537.7V142.21c0-3.12-1.56-4.91-4.3-4.91s-4.53,1.87-4.53,5v11.34h-4.6V133.54Z"/><path class="cls-1" d="M546.34,125.85h4.6v16.59l8.34-8.9h5.59l-8,8.18,8.26,11.91h-5.33l-6-8.67-2.82,2.92v5.75h-4.6Z"/></g></g></svg>