<?xml version="1.0" encoding="UTF-8"?>
<svg width="629px" height="277px" viewBox="0 0 629 277" version="1.1" xmlns="http://www.w3.org/2000/svg" xmlns:xlink="http://www.w3.org/1999/xlink">
    <!-- Generator: sketchtool 51.1 (57501) - http://www.bohemiancoding.com/sketch -->
    <title>7185C443-0ED9-4611-95F6-C64EC0095ADB</title>
    <desc>Created with sketchtool.</desc>
    <defs></defs>
    <g id="websait" stroke="none" stroke-width="1" fill="none" fill-rule="evenodd">
        <g id="check_landing" transform="translate(-651.000000, -128.000000)" fill-rule="nonzero">
            <g id="check" transform="translate(651.000000, 128.000000)">
                <rect id="Rectangle-path" fill="#5F9CA4" x="238.72" y="159.17" width="55" height="3"></rect>
                <rect id="Rectangle-path" fill="#5F9CA4" x="238.72" y="169.67" width="97.61" height="2"></rect>
                <rect id="Rectangle-path" fill="#5F9CA4" x="238.72" y="179.67" width="94.61" height="2"></rect>
                <rect id="Rectangle-path" fill="#5F9CA4" x="238.72" y="189.67" width="83.61" height="2"></rect>
                <rect id="Rectangle-path" fill="#5F9CA4" x="238.72" y="199.67" width="97.61" height="2"></rect>
                <rect id="Rectangle-path" fill="#5F9CA4" x="238.72" y="209.67" width="91.61" height="2"></rect>
                <rect id="Rectangle-path" fill="#5F9CA4" x="238.72" y="219.67" width="97.61" height="2"></rect>
                <rect id="Rectangle-path" fill="#5F9CA4" x="238.72" y="230" width="83.61" height="2"></rect>
                <rect id="Rectangle-path" fill="#5F9CA4" x="238.72" y="240" width="97.61" height="2"></rect>
                <rect id="Rectangle-path" fill="#5F9CA4" x="238.72" y="250" width="91.61" height="2"></rect>
                <rect id="Rectangle-path" fill="#5F9CA4" x="238.72" y="260" width="97.61" height="2"></rect>
                <rect id="Rectangle-path" fill="#5F9CA4" x="380.72" y="133.17" width="55" height="3"></rect>
                <rect id="Rectangle-path" fill="#5F9CA4" x="380.72" y="143.67" width="67" height="2"></rect>
                <rect id="Rectangle-path" fill="#5F9CA4" x="380.72" y="153.67" width="64" height="2"></rect>
                <rect id="Rectangle-path" fill="#5F9CA4" x="380.72" y="163.67" width="53" height="2"></rect>
                <rect id="Rectangle-path" fill="#5F9CA4" x="380.72" y="173.67" width="67" height="2"></rect>
                <rect id="Rectangle-path" fill="#5F9CA4" x="380.72" y="183.67" width="61" height="2"></rect>
                <rect id="Rectangle-path" fill="#5F9CA4" x="380.72" y="193.67" width="67" height="2"></rect>
                <rect id="Rectangle-path" fill="#5F9CA4" x="470.05" y="173.17" width="55" height="3"></rect>
                <rect id="Rectangle-path" fill="#5F9CA4" x="470.05" y="183.67" width="67" height="2"></rect>
                <rect id="Rectangle-path" fill="#5F9CA4" x="470.05" y="193.67" width="64" height="2"></rect>
                <rect id="Rectangle-path" fill="#5F9CA4" x="470.05" y="203.67" width="53" height="2"></rect>
                <rect id="Rectangle-path" fill="#5F9CA4" x="470.05" y="213.67" width="67" height="2"></rect>
                <rect id="Rectangle-path" fill="#5F9CA4" x="470.05" y="223.67" width="61" height="2"></rect>
                <rect id="Rectangle-path" fill="#5F9CA4" x="470.05" y="233.67" width="67" height="2"></rect>
                <rect id="Rectangle-path" fill="#5F9CA4" x="553.53" y="162.5" width="77.8" height="3"></rect>
                <rect id="Rectangle-path" fill="#5F9CA4" x="553.53" y="173" width="89.8" height="2"></rect>
                <rect id="Rectangle-path" fill="#5F9CA4" x="553.53" y="183" width="86.8" height="2"></rect>
                <rect id="Rectangle-path" fill="#5F9CA4" x="553.53" y="193" width="75.8" height="2"></rect>
                <rect id="Rectangle-path" fill="#5F9CA4" x="553.53" y="203" width="89.8" height="2"></rect>
                <rect id="Rectangle-path" fill="#5F9CA4" x="553.53" y="213" width="83.8" height="2"></rect>
                <rect id="Rectangle-path" fill="#5F9CA4" x="553.53" y="223" width="89.8" height="2"></rect>
                <circle id="Oval" fill="#A6DAE9" transform="translate(410.505618, 87.335443) rotate(-1.140000) translate(-410.505618, -87.335443) " cx="410.505618" cy="87.335443" r="36.97"></circle>
                <g id="Group" transform="translate(383.000000, 65.000000)">
                    <path d="M27.47,59.85 C36.6721087,59.8900505 45.817939,58.4136088 54.54,55.48 L52.54,38.31 C52.3,36.2 48.9,34.51 44.65,34.23 C33.2657744,32.1699856 21.6042256,32.1699856 10.22,34.23 C5.97,34.51 2.57,36.23 2.33,38.31 L0.33,55.48 C9.07430853,58.4212115 18.2444173,59.8977544 27.47,59.85 Z" id="Shape" fill="#78796C"></path>
                    <path d="M27.47,59.85 C36.6721087,59.8900505 45.817939,58.4136088 54.54,55.48 L52.54,38.31 C52.3,36.2 48.9,34.51 44.65,34.23 C33.2657744,32.1699856 21.6042256,32.1699856 10.22,34.23 C5.97,34.51 2.57,36.23 2.33,38.31 L0.33,55.48 C9.07430853,58.4212115 18.2444173,59.8977544 27.47,59.85 Z" id="Shape" fill="#EC8558"></path>
                    <path d="M30.21,32.73 L26.1,43.2 L54.41,54.31 L52.58,38.31 C52.34,36.2 48.94,34.51 44.69,34.23 C39.9084126,33.3631249 35.0677477,32.8616748 30.21,32.73 Z" id="Shape" fill="#D46F41"></path>
                    <path d="M34.75,36.64 C34.75,40.5059932 31.6159932,43.64 27.75,43.64 C23.8840068,43.64 20.75,40.5059932 20.75,36.64 L20.75,29.5 C20.75,25.6340068 23.8840068,22.5 27.75,22.5 C31.6159932,22.5 34.75,25.6340068 34.75,29.5 L34.75,36.64 Z" id="Shape" fill="#DCDAC8"></path>
                    <path d="M32.54,41 C32.66,41.13 32.79,41.24 32.91,41.36 C34.0925434,40.0844629 34.7497232,38.4093688 34.75,36.67 L34.75,29.5 C34.3835747,25.9734736 31.4383348,23.2778012 27.8932273,23.2242421 C24.3481197,23.1706829 21.3227907,25.7761524 20.85,29.29 L32.54,41 Z" id="Shape" fill="#C0BEAE"></path>
                    <path d="M17.61,19.15 C18.1,21.99 17.79,23.87 17.06,24.15 C16.33,24.43 15.28,22.96 14.49,20.22 C13.7,17.48 13.82,14.76 14.86,14.46 C15.9,14.16 17.13,16.3 17.61,19.15 Z" id="Shape" fill="#DCDAC8"></path>
                    <path d="M37.13,19.57 C36.9,22.44 37.38,24.29 38.13,24.46 C38.88,24.63 39.8,23.12 40.33,20.32 C40.86,17.52 40.51,14.82 39.45,14.61 C38.39,14.4 37.34,16.69 37.13,19.57 Z" id="Shape" fill="#DCDAC8"></path>
                    <path d="M27.48,0.68 C20.42,0.16 13.92,8.33 15.86,20.51 C16.322783,23.6580204 17.1690732,26.7375764 18.38,29.68 C19.31,31.06 20.48,31.23 22.25,27.02 C22.78,26.02 25.09,25.2 27.25,25.2 L27.67,25.2 C29.85,25.2 32.15,26.05 32.67,27.02 C34.44,31.23 35.61,31.02 36.55,29.69 C37.7551637,26.742152 38.6012449,23.6599993 39.07,20.51 C41,8.33 34.53,0.16 27.48,0.68 Z" id="Shape" fill="#F2EFDC"></path>
                    <path d="M27.75,0.68 L27.75,25.2 C29.91,25.2 32.18,26.06 32.7,27.02 C34.47,31.23 35.64,31.02 36.58,29.69 C37.7851637,26.742152 38.6312449,23.6599993 39.1,20.51 C41,8.48 34.7,0.38 27.75,0.68 Z" id="Shape" fill="#DCDAC8"></path>
                    <path d="M39.19,20 C39.1317347,20.5481162 39.0415819,21.0923718 38.92,21.63 C38.4409155,23.8743094 37.5999326,26.0257396 36.43,28 C35.52,28.94 34.37,29.06 32.62,26.16 C32.1,25.49 29.83,24.91 27.69,24.91 L27.27,24.91 C25.12,24.91 22.86,25.49 22.34,26.16 C20.59,29.06 19.44,28.94 18.52,27.99 C17.3410374,26.0312386 16.4898373,23.8931051 16,21.66 C15.8727625,21.1201189 15.7825526,20.5721768 15.73,20.02 C15.111006,21.7619997 15.0550367,23.6544637 15.57,25.43 C17.57,32.5 17.41,35.95 27.44,35.8 C38.11,35.63 37.34,32.5 39.31,25.43 C39.840124,23.6521621 39.7981466,21.7526828 39.19,20 Z" id="Shape" fill="#2C5871"></path>
                    <path d="M38.92,21.66 C38.4378207,23.8939323 37.5969285,26.0349992 36.43,28 C35.52,28.94 34.37,29.06 32.62,26.16 C32.14,25.54 30.16,25 28.16,24.92 L28.16,35.8 C38.11,35.51 37.43,32.37 39.35,25.45 C39.8607921,23.6773194 39.8048516,21.7893282 39.19,20.05 C39.1309704,20.5914033 39.0408213,21.1289593 38.92,21.66 Z" id="Shape" fill="#0E303F"></path>
                    <path d="M30,27.53 L24.88,27.53 C24.88,27.53 23.88,29.71 24.14,30.24 C24.4,30.77 24.81,30.81 25.41,29.85 C25.5885305,29.5584302 25.7891164,29.2809531 26.01,29.02 C26.1736037,29.0602743 26.3415126,29.0804233 26.51,29.08 L28.37,29.08 C28.5351844,29.0803119 28.6997712,29.0601584 28.86,29.02 C29.0776755,29.2834492 29.2780933,29.5606939 29.46,29.85 C30.05,30.85 30.46,30.77 30.72,30.24 C30.98,29.71 30.16,27.8 30,27.53 Z" id="Shape" fill="#F2EFDC"></path>
                </g>
                <path d="M326.67,82.8 C326.674045,101.601225 315.351039,118.553221 297.981746,125.750006 C280.612453,132.946792 260.618152,128.970796 247.323678,115.676322 C234.029204,102.381848 230.053208,82.3875471 237.249994,65.0182542 C244.446779,47.6489612 261.398775,36.3259554 280.2,36.33 C292.52461,36.33 304.344437,41.2259324 313.059252,49.9407479 C321.774068,58.6555634 326.67,70.4753897 326.67,82.8 Z" id="Shape" fill="#CECBB9"></path>
                <g id="Group" transform="translate(240.000000, 55.000000)">
                    <path d="M39.75,75 C53.2190864,75.0591943 66.6232779,73.1317942 79.53,69.28 L76.64,46.79 C76.29,44.03 71.26,42.13 65.04,41.45 C48.2315735,39.5850295 31.2684265,39.5850295 14.46,41.45 C8.25,42.13 3.21,44.03 2.86,46.79 L0,69.27 C12.8963049,73.1235439 26.2903741,75.0543116 39.75,75 Z" id="Shape" fill="#6FC1D8"></path>
                    <path d="M79.53,69.27 L76.64,46.78 C76.29,44.02 71.26,42.12 65.04,41.44 C56.3336749,40.4778208 47.5792261,40.0170603 38.82,40.06 L30.91,51.44 L62.23,73.22 C68.080937,72.3042783 73.8614326,70.9844542 79.53,69.27 Z" id="Shape" fill="#5491AA"></path>
                    <path d="M50.71,45.39 C50.34,50.5 45.12,54.1 39.04,54.11 C32.96,54.11 27.74,50.48 27.38,45.37 L26.9,37.55 C26.54,32.47 31.97,27.72 39.06,27.73 C46.15,27.73 51.58,32.49 51.2,37.58 C51.0666667,40.1933333 50.9033333,42.7966667 50.71,45.39 Z" id="Shape" fill="#DCDAC8"></path>
                    <path d="M43,28.27 C40,29.68 37.95,34.69 38,40.61 C38,44.24 38,47.86 38,51.49 C38,52.38 38.05,53.24 38.14,54.08 C38.41,54.08 38.68,54.08 38.96,54.08 C45.04,54.08 50.26,50.47 50.63,45.36 L50.9,41.15 C51.0980896,38.4478241 50.779058,35.7326611 49.96,33.15 C48.3275046,30.7144906 45.8460885,28.9746471 43,28.27 Z" id="Shape" fill="#C0BEAE"></path>
                    <path d="M39.13,1 L39.05,1 C26.05,0.87 22.88,9.36 23.63,24.25 C23.884838,28.8611567 24.8984398,33.3987143 26.63,37.68 C27.06,38.77 33.51,46.44 35.48,46.44 C36.7050765,46.5831596 37.9367008,46.6632652 39.17,46.68 C40.3767287,46.6638436 41.5817527,46.5837312 42.78,46.44 C44.78,46.44 51.21,38.77 51.63,37.68 C53.3811409,33.4048392 54.3954879,28.8639461 54.63,24.25 C55.21,9.71 51,0.65 39.13,1 Z" id="Shape" fill="#0E303F"></path>
                    <path d="M27.41,28.26 C27.47,29.82 26.65,31.19 25.58,31.34 C24.51,31.49 23.58,30.34 23.49,28.81 L23.1,21.29 C23.01,19.73 23.85,18.29 24.97,18.16 C26.1,18 27.05,19.16 27.11,20.73 L27.41,28.26 Z" id="Shape" fill="#DCDAC8"></path>
                    <path d="M54.32,28.81 C54.23,30.36 53.32,31.49 52.23,31.34 C51.16,31.19 50.34,29.82 50.4,28.26 C50.5,25.7466667 50.5966667,23.2366667 50.69,20.73 C50.75,19.17 51.69,18 52.83,18.16 C53.95,18.32 54.83,19.73 54.71,21.29 L54.32,28.81 Z" id="Shape" fill="#DCDAC8"></path>
                    <path d="M51.39,21.37 C51.2180618,17.0268814 51.4255156,12.677043 52.01,8.37 C52.01,8.37 45.64,5.04 40.66,5.25 C40.0641016,5.28653629 39.4789162,5.42522185 38.93,5.66 C38.3807146,5.42634368 37.7957249,5.28770449 37.2,5.25 C32.2,5.04 25.81,8.35 25.84,8.37 C26.4248397,12.6770105 26.6322951,17.02688 26.46,21.37 C26.14,28.15 25.22,34.05 27.46,35.94 C29.7,37.83 33.55,42.16 38.63,42.38 L39.21,42.38 C44.3,42.17 48.12,37.83 50.39,35.94 C52.66,34.05 51.71,28.14 51.39,21.37 Z" id="Shape" fill="#F2EFDC"></path>
                    <path d="M53.29,8.37 C53.29,8.37 46.29,5.04 40.82,5.25 C40.3483116,5.28371683 39.8819846,5.37094346 39.43,5.51 C39.39,17.7966667 39.3566667,30.08 39.33,42.36 C44.87,42.1 49.04,37.81 51.51,35.93 C53.98,34.05 52.96,28.14 52.61,21.37 C52.4222477,17.0249 52.6499483,12.6717995 53.29,8.37 Z" id="Shape" fill="#DCDAC8"></path>
                    <path d="M24.42,21 C24.42,21 23.12,6.7 22.14,5.25 C21.16,3.8 34.57,0.83 38.55,0.81 C42.48,0.6 46.08,1.81 48.4,2.3 C50.72,2.79 39.66,11.39 39.8,11.49 C40.05,10.71 40.31,9.94 40.57,9.17 C39.73,9.81 38.89,10.45 38.07,11.1 C34.67,10.2066667 31.2266667,9.41666667 27.74,8.73 C27.74,10.61 27.79,12.48 27.82,14.35 C27.14,15.35 26.47,16.25 25.82,17.2 C25.66,18.44 25.51,19.68 25.37,20.92 L24.42,21 Z" id="Shape" fill="#0E303F"></path>
                    <path d="M53.45,21 C53.45,21 55.15,6.7 55.74,5.25 C56.42,3.56 43.3,0.84 39.33,0.81 C35.4,0.6 32.09,1.81 29.78,2.29 C28.35,2.49 41.42,1.89 45.11,4.2 C46.4,4.95 41.31,11.09 41.36,11.11 C44.2466667,10.25 47.17,9.46 50.13,8.74 C50.13,10.61 50.08,12.48 50.05,14.35 C50.73,15.35 51.4,16.25 52.05,17.21 L52.5,20.93 L53.45,21 Z" id="Shape" fill="#0E303F"></path>
                    <path d="M30.05,27.51 C28.4860108,27.5012262 26.9923379,26.859019 25.91,25.73 C24.9951128,24.7800283 24.5075212,23.4978432 24.56,22.18 L24.56,21.01 C24.5813252,20.7011855 24.6213991,20.3939525 24.68,20.09 L24.76,19.72 L25.12,19.61 C28.4223543,18.5395983 31.9572148,18.4080364 35.33,19.23 C35.87,19.36 37.52,20 37.56,21.1 L37.56,22.22 C37.6060372,23.4604197 37.1520766,24.6673783 36.3,25.57 C35.2041889,26.7379658 33.6905884,27.4246586 32.09,27.48 L30.05,27.51 Z M25.92,20.72 C25.92,20.83 25.92,20.95 25.92,21.05 L25.92,22.23 C25.8772464,23.2039514 26.2391814,24.1522212 26.92,24.85 C27.7627795,25.7189559 28.9195012,26.2126346 30.13,26.22 L32.21,26.22 C33.4570748,26.1754436 34.6360176,25.6398873 35.49,24.73 C36.1112572,24.0802274 36.4462224,23.2085974 36.42,22.31 L36.42,21.17 C36.0716209,20.8802068 35.6711178,20.6595907 35.24,20.52 L35.17,20.52 C32.1254607,19.7476617 28.9283112,19.8167892 25.92,20.72 Z" id="Shape" fill="#0E303F"></path>
                    <path d="M46.92,27.51 C45.3560108,27.5012262 43.8623379,26.859019 42.78,25.73 C41.8651128,24.7800283 41.3775212,23.4978432 41.43,22.18 L41.43,21.01 C41.4494878,20.7004341 41.4929514,20.3928454 41.56,20.09 L41.63,19.72 L41.99,19.6 C45.2942002,18.5380971 48.8276034,18.4100502 52.2,19.23 C52.75,19.36 54.4,20 54.43,21.1 L54.43,22.22 C54.4742444,23.4631095 54.0207219,24.6725029 53.17,25.58 C52.070599,26.7415791 50.55838,27.4240532 48.96,27.48 L46.92,27.51 Z M42.79,20.71 C42.79,20.83 42.79,20.95 42.79,21.05 L42.79,22.23 C42.7520031,23.203176 43.1132451,24.14963 43.79,24.85 C44.6327795,25.7189559 45.7895012,26.2126346 47,26.22 L49.08,26.22 C50.3271444,26.1721812 51.5068743,25.6414821 52.37,24.74 C52.9910965,24.0867579 53.3227404,23.2107853 53.29,22.31 L53.29,21.17 C52.9122938,20.8578413 52.4725916,20.6294689 52,20.5 L51.93,20.5 C48.9188124,19.7564674 45.7638614,19.8289554 42.79,20.71 Z" id="Shape" fill="#0E303F"></path>
                    <rect id="Rectangle-path" fill="#0E303F" x="36.57" y="20.78" width="5.63" height="2.46"></rect>
                    <path d="M46,33.92 C45.33,32.92 43.2,32.09 40.47,32.09 C40.47,32.09 39.47,32.71 39.47,32.69 C39.47,32.67 38.54,32.09 38.47,32.09 C35.74,32.09 33.53,32.94 32.87,33.92 C28.87,41.68 27.3,34.79 25.5,32.56 C28.5,39.56 31.35,44.77 39.15,45.88 C39.239931,45.8849833 39.330069,45.8849833 39.42,45.88 C39.51,45.88 41.86,45.59 41.95,45.59 C46.79,45.59 50.32,39.59 53.34,32.59 C51.57,34.79 50,41.68 46,33.92 Z" id="Shape" fill="#0E303F"></path>
                    <path d="M36.19,35.41 C36.1546261,35.5439715 36.1344985,35.6815101 36.13,35.82 C36.1607464,36.3544892 36.4045002,36.854338 36.80671,37.2076812 C37.2089198,37.5610243 37.7360032,37.7383597 38.27,37.7 L40.63,37.7 C41.1639968,37.7383597 41.6910802,37.5610243 42.09329,37.2076812 C42.4954998,36.854338 42.7392536,36.3544892 42.77,35.82 C42.7704477,35.6811138 42.7502263,35.5429339 42.71,35.41 L36.19,35.41 Z" id="Shape" fill="#F2EFDC"></path>
                </g>
                <g id="Group" transform="translate(227.000000, 25.000000)">
                    <path d="M120.28,60 C120.28,93.137085 93.417085,120 60.28,120 C27.142915,120 0.28,93.137085 0.28,60 C0.28,26.862915 27.142915,1.0658141e-14 60.28,3.55271368e-15 C93.417085,7.10542736e-15 120.28,26.862915 120.28,60 Z" id="Shape" fill="#CECBB9"></path>
                    <g transform="translate(8.000000, 25.000000)">
                        <path d="M51.73,95.93 C69.1098234,96.0076208 86.4060234,93.5208498 103.06,88.55 L99.34,59.55 C98.89,55.99 92.39,53.55 84.34,52.65 C62.6459019,50.2549842 40.7540981,50.2549842 19.06,52.65 C11.06,53.53 4.54,55.98 4.06,59.55 L0.34,88.55 C17.0131687,93.5269818 34.330061,96.013821 51.73,95.93 Z" id="Shape" fill="#6FC1D8"></path>
                        <path d="M103.06,88.55 L99.34,59.55 C98.89,55.99 92.39,53.55 84.34,52.65 C73.0995084,51.4157628 61.7979458,50.8214708 50.49,50.87 L40.28,65.56 L80.7,93.67 C88.2623247,92.480177 95.7334372,90.7694393 103.06,88.55 Z" id="Shape" fill="#5491AA"></path>
                        <path d="M65.88,57.73 C65.4,64.32 58.66,68.97 50.82,68.97 C42.97,68.97 36.24,64.29 35.77,57.7 C35.56,54.33 35.36,50.97 35.15,47.61 C34.68,41.05 41.69,34.92 50.84,34.94 C59.99,34.94 66.99,41.08 66.51,47.65 L65.88,57.73 Z" id="Shape" fill="#DCDAC8"></path>
                        <path d="M56,35.63 C52.17,37.45 49.48,43.91 49.54,51.55 L49.6,65.55 C49.6,66.69 49.66,67.81 49.77,68.88 C50.12,68.88 50.47,68.88 50.84,68.88 C58.68,68.88 65.42,64.23 65.9,57.64 C66.01,55.83 66.13,54.01 66.24,52.2 C66.4869424,48.7288761 66.0660091,45.2425982 65,41.93 C62.8938761,38.7779401 59.6825551,36.5300153 56,35.63 Z" id="Shape" fill="#C0BEAE"></path>
                        <path d="M50.94,0.4 L50.83,0.4 C34.01,0.23 29.96,11.2 30.93,30.4 C31.237652,36.3479721 32.5284569,42.2039012 34.75,47.73 C35.3,49.14 43.62,59.04 46.17,59.04 C47.32,59.04 49.27,59.47 50.94,59.36 C52.61,59.47 54.44,59.04 55.59,59.04 C58.14,59.04 66.47,49.14 67.02,47.73 C69.2564814,42.2089909 70.5445909,36.3499523 70.83,30.4 C71.68,11.67 66.2,0 50.94,0.4 Z" id="Shape" fill="#0E303F"></path>
                        <path d="M35.8,35.62 C35.88,37.62 34.8,39.4 33.44,39.62 C32.06,39.81 30.86,38.36 30.75,36.35 L30.24,26.65 C30.13,24.65 31.24,22.82 32.67,22.65 C34.11,22.44 35.35,23.94 35.42,25.96 C35.5533333,29.16 35.68,32.38 35.8,35.62 Z" id="Shape" fill="#DCDAC8"></path>
                        <path d="M70.53,36.32 C70.42,38.32 69.22,39.78 67.84,39.59 C66.46,39.4 65.4,37.59 65.48,35.59 C65.6,32.35 65.73,29.11 65.85,25.87 C65.93,23.87 67.17,22.35 68.61,22.56 C70.06,22.76 71.15,24.56 71.04,26.56 L70.53,36.32 Z" id="Shape" fill="#DCDAC8"></path>
                        <path d="M66.75,26.72 C66.5301785,21.1173791 66.7978529,15.5062538 67.55,9.95 C67.55,9.95 59.34,5.65 52.9,5.95 C52.1328108,5.99736107 51.3790091,6.17313546 50.67,6.47 C49.9606441,6.17420934 49.2070253,5.99847762 48.44,5.95 C42,5.67 33.74,9.95 33.78,9.95 C34.5321471,15.5062538 34.7998215,21.1173791 34.58,26.72 C34.16,35.46 32.98,43.08 35.87,45.51 C38.76,47.94 43.73,53.51 50.29,53.83 L51,53.83 C57.56,53.55 62.49,47.96 65.42,45.51 C68.35,43.06 67.17,35.46 66.75,26.72 Z" id="Shape" fill="#F2EFDC"></path>
                        <path d="M69.21,10 C69.21,10 60.21,5.7 53.12,6 C52.5090499,6.03833943 51.9048168,6.14911551 51.32,6.33 C51.2733333,22.1833333 51.23,38.0366667 51.19,53.89 C58.33,53.55 63.71,48.02 66.91,45.58 C70.11,43.14 68.78,35.53 68.33,26.79 C68.0878341,21.1780791 68.3825068,15.5558577 69.21,10 Z" id="Shape" fill="#DCDAC8"></path>
                        <path d="M32,26.25 C32,26.25 30.27,7.8 29,5.92 C27.73,4.04 45,0.22 50.17,0.19 C55.25,-0.08 59.89,1.46 62.88,2.12 C65.7,2.68 51.6,13.85 51.79,13.97 L52.79,10.97 C51.7,11.79 50.63,12.62 49.56,13.46 C45.18,12.32 40.74,11.32 36.24,10.46 L36.33,17.71 C35.4566667,18.93 34.5966667,20.1566667 33.75,21.39 C33.55,22.99 33.36,24.59 33.17,26.19 L32,26.25 Z" id="Shape" fill="#0E303F"></path>
                        <path d="M69.41,26.25 C69.41,26.25 71.6,7.8 72.41,5.93 C73.29,3.75 56.36,0.23 51.24,0.19 C46.16,-0.08 41.89,1.45 38.91,2.1 C37.05,2.36 53.91,1.58 58.69,4.56 C60.35,5.56 53.79,13.46 53.85,13.49 C57.5833333,12.3833333 61.3566667,11.3633333 65.17,10.43 C65.17,12.84 65.1,15.26 65.07,17.67 C65.95,18.9 66.81,20.12 67.66,21.36 C67.86,22.95 68.05,24.55 68.24,26.16 L69.41,26.25 Z" id="Shape" fill="#0E303F"></path>
                        <path d="M39.21,34.65 C37.1941404,34.6374323 35.2686927,33.8117254 33.87,32.36 C32.6882989,31.1313232 32.059756,29.4732704 32.13,27.77 L32.18,26.26 C32.2033033,25.8631755 32.2567913,25.4687017 32.34,25.08 L32.44,24.6 L32.9,24.45 C37.1594764,23.0791845 41.7168336,22.9233478 46.06,24 C46.77,24.17 48.9,25 48.94,26.41 L48.99,27.86 C49.0473642,29.4583616 48.4641971,31.0134739 47.37,32.18 C45.9558027,33.6847853 44.0038091,34.5691139 41.94,34.64 L39.21,34.65 Z M33.88,25.88 C33.8705555,26.0265146 33.8705555,26.1734854 33.88,26.32 L33.82,27.84 C33.7703059,29.0955677 34.2364025,30.3168128 35.11,31.22 C36.1865521,32.3335486 37.6613651,32.9738332 39.21,33 L41.89,33 C43.5138615,32.9269253 45.0408441,32.2066505 46.13,31 C46.9379388,30.1625888 47.3710461,29.0329006 47.33,27.87 L47.28,26.41 C46.8321474,26.0292774 46.3116225,25.743499 45.75,25.57 L45.67,25.57 C41.7826069,24.6207278 37.7121369,24.7277546 33.88,25.88 Z" id="Shape" fill="#0E303F"></path>
                        <path d="M61,34.65 C58.9841404,34.6374323 57.0586927,33.8117254 55.66,32.36 C54.4782989,31.1313232 53.849756,29.4732704 53.92,27.77 L53.98,26.26 C53.9959401,25.8630822 54.0461265,25.4682822 54.13,25.08 L54.23,24.6 L54.69,24.45 C58.9466499,23.0826489 63.4998344,22.9268365 67.84,24 C68.54,24.17 70.67,25 70.71,26.41 L70.77,27.86 C70.8273741,29.4632021 70.2403441,31.0226133 69.14,32.19 C67.7222145,33.6883988 65.7716022,34.5685093 63.71,34.64 L61,34.65 Z M55.67,25.88 C55.6605555,26.0265146 55.6605555,26.1734854 55.67,26.32 L55.61,27.84 C55.5603059,29.0955677 56.0264025,30.3168128 56.9,31.22 C57.9778223,32.331714 59.4518381,32.9716525 61,33 L63.68,33 C65.3000663,32.9231964 66.8225727,32.2033351 67.91,31 C68.7140142,30.1600964 69.1464612,29.0321306 69.11,27.87 L69.05,26.41 C68.6075572,26.0269193 68.0897703,25.7407739 67.53,25.57 L67.44,25.57 C63.5526069,24.6207278 59.4821369,24.7277546 55.65,25.88 L55.67,25.88 Z" id="Shape" fill="#0E303F"></path>
                        <rect id="Rectangle-path" fill="#0E303F" x="47.63" y="25.96" width="7.27" height="3.18"></rect>
                        <path d="M59.79,42.92 C58.94,41.65 56.18,40.56 52.66,40.56 C52.66,40.56 51.41,41.35 51.36,41.33 C51.31,41.31 50.16,40.56 50.12,40.56 C46.6,40.56 43.75,41.65 42.9,42.92 C37.69,52.92 35.71,44.04 33.38,41.17 C37.28,50.24 40.94,56.92 51,58.36 C51.1131007,58.3702693 51.2268993,58.3702693 51.34,58.36 C51.46,58.36 54.5,57.99 54.61,57.99 C60.86,57.99 65.41,50.26 69.31,41.19 C67,44 65,52.94 59.79,42.92 Z" id="Shape" fill="#0E303F"></path>
                        <path d="M47.14,44.84 C47.0921579,45.0159671 47.0686063,45.1976505 47.07,45.38 C47.1715281,46.8011107 48.3978541,47.8758182 49.82,47.79 L52.88,47.79 C54.3021459,47.8758182 55.5284719,46.8011107 55.63,45.38 C55.6281393,45.1971896 55.601222,45.0154976 55.55,44.84 L47.14,44.84 Z" id="Shape" fill="#F2EFDC"></path>
                    </g>
                    <path d="M252,62.31 C252,92.6856612 227.375661,117.31 197,117.31 C166.624339,117.31 142,92.6856612 142,62.31 C142,31.9343388 166.624339,7.31 197,7.31 C227.375661,7.31 252,31.9343388 252,62.31 Z" id="Shape" fill="#A6DAE9"></path>
                    <g transform="translate(156.000000, 30.000000)" id="Shape">
                        <path d="M40.94,88.13 C54.618472,88.1879533 68.2133151,85.9953457 81.18,81.64 L78.26,56.1 C77.91,52.96 72.85,50.46 66.53,50.04 C49.6043057,46.9749841 32.2656943,46.9749841 15.34,50.04 C9.02,50.46 3.97,52.96 3.61,56.1 L0.69,81.64 C13.6599074,85.9962517 27.2581886,88.188869 40.94,88.13 Z" fill="#78796C"></path>
                        <path d="M40.94,88.13 C54.618472,88.1879533 68.2133151,85.9953457 81.18,81.64 L78.26,56.1 C77.91,52.96 72.85,50.46 66.53,50.04 C49.6043057,46.9749841 32.2656943,46.9749841 15.34,50.04 C9.02,50.46 3.97,52.96 3.61,56.1 L0.69,81.64 C13.6599074,85.9962517 27.2581886,88.188869 40.94,88.13 Z" fill="#8B8D80"></path>
                        <path d="M45,47.8 L38.89,63.37 L81,79.9 L78.28,56.1 C77.93,52.96 72.87,50.46 66.55,50.04 C59.4327069,48.7560652 52.229203,48.007302 45,47.8 Z" fill="#78796C"></path>
                        <path d="M51.75,53.62 C51.7633126,56.3700732 50.6794821,59.0119346 48.7386216,60.9603032 C46.7977612,62.9086719 44.1601041,64.0026945 41.41,64 C35.7048985,64 31.08,59.3751015 31.08,53.67 L31.08,43 C31.0799973,37.2932787 35.7032813,32.6655191 41.41,32.66 C47.1206243,32.66 51.75,37.2893757 51.75,43 L51.75,53.62 Z" fill="#DCDAC8"></path>
                        <path d="M48.47,60.06 C48.65,60.25 48.84,60.41 49.02,60.6 C50.7797945,58.6941836 51.7548546,56.1940296 51.75,53.6 L51.75,43 C51.8356038,37.2948988 47.2801012,32.6006047 41.575,32.5150006 C35.8698988,32.4293965 31.1756045,36.9848988 31.09,42.69 L48.47,60.06 Z" fill="#C0BEAE"></path>
                        <path d="M26.27,27.62 C26.99,31.84 26.53,34.62 25.46,35 C24.39,35.38 22.81,33.23 21.63,29.16 C20.45,25.09 20.63,21.04 22.18,20.59 C23.73,20.14 25.56,23.38 26.27,27.62 Z" fill="#DCDAC8"></path>
                        <path d="M55.29,28.24 C54.95,32.5 55.66,35.24 56.76,35.52 C57.86,35.8 59.24,33.52 60.04,29.35 C60.84,25.18 60.31,21.18 58.73,20.87 C57.15,20.56 55.61,24 55.29,28.24 Z" fill="#DCDAC8"></path>
                        <path d="M40.94,0.15 C30.45,-0.62 20.78,11.53 23.66,29.63 C24.3584157,34.313849 25.6174509,38.8967371 27.41,43.28 C28.8,45.28 30.54,45.58 33.18,39.28 C33.96,37.85 37.39,36.57 40.63,36.57 L41.26,36.57 C44.5,36.57 47.92,37.85 48.71,39.28 C51.35,45.54 53.08,45.28 54.47,43.28 C56.270815,38.8953674 57.5333611,34.3085639 58.23,29.62 C61.11,11.53 51.43,-0.62 40.94,0.15 Z" fill="#F2EFDC"></path>
                        <path d="M41.35,0.15 L41.35,36.61 C44.56,36.61 47.93,37.89 48.71,39.31 C51.35,45.57 53.08,45.31 54.47,43.31 C56.270815,38.9253674 57.5333611,34.3385639 58.23,29.65 C61.07,11.76 51.67,-0.29 41.35,0.15 Z" fill="#DCDAC8"></path>
                        <path d="M58.35,28.92 C58.2706436,29.73732 58.1403907,30.5488953 57.96,31.35 C57.2365408,34.6576607 55.9873486,37.8279081 54.26,40.74 C52.89,42.14 51.18,42.32 48.59,38.01 C47.82,37.01 44.44,36.14 41.26,36.14 L40.63,36.14 C37.44,36.14 34.07,37.02 33.3,38.01 C30.7,42.32 28.99,42.14 27.62,40.74 C25.8995378,37.8256285 24.6539534,34.6559708 23.93,31.35 C23.7504643,30.5449178 23.6169148,29.730266 23.53,28.91 C22.6233355,31.487876 22.5429385,34.2842919 23.3,36.91 C26.21,47.43 26.04,52.56 40.94,52.33 C56.81,52.08 55.67,47.43 58.59,36.91 C59.3443799,34.2867064 59.2604724,31.4932855 58.35,28.92 Z" fill="#2C5871"></path>
                        <path d="M58,31.35 C57.2765408,34.6576607 56.0273486,37.8279081 54.3,40.74 C52.93,42.14 51.22,42.32 48.63,38.01 C47.91,37.09 44.96,36.28 42,36.17 L42,52.34 C56.79,51.91 55.78,47.24 58.63,36.95 C59.3865214,34.3235928 59.3026036,31.5263334 58.39,28.95 C58.3094153,29.7572507 58.1791685,30.5587692 58,31.35 Z" fill="#0E303F"></path>
                        <path d="M44.76,40.07 C44.76,40.07 44.76,40.07 44.76,40.07 L37.14,40.07 C37.14,40.07 35.72,43.31 36.05,44.07 C36.38,44.83 37.05,44.92 37.93,43.5 C38.195646,43.0627905 38.4966521,42.648071 38.83,42.26 C39.0715394,42.3240218 39.3201313,42.3576153 39.57,42.36 L42.34,42.36 C42.5825342,42.3559226 42.8239248,42.3257488 43.06,42.27 C43.3942386,42.653815 43.6953178,43.06529 43.96,43.5 C44.84,44.92 45.51,44.86 45.84,44.07 C46.17,43.28 44.94,40.48 44.76,40.07 Z" fill="#F2EFDC"></path>
                    </g>
                </g>
                <path d="M523.81,132.31 C523.81,146.928977 511.958977,158.78 497.34,158.78 C482.721023,158.78 470.87,146.928977 470.87,132.31 C470.87,117.691023 482.721023,105.84 497.34,105.84 C511.958977,105.84 523.81,117.691023 523.81,132.31 Z" id="Shape" fill="#FD6120"></path>
                <path d="M523.81,132.31 C523.81,146.928977 511.958977,158.78 497.34,158.78 C482.721023,158.78 470.87,146.928977 470.87,132.31 C470.87,117.691023 482.721023,105.84 497.34,105.84 C511.958977,105.84 523.81,117.691023 523.81,132.31 Z" id="Shape" fill="#8AABBE"></path>
                <g id="Group" transform="translate(475.000000, 114.000000)">
                    <path d="M29.08,27.19 C29.08,29.86 26.03,32.02 22.26,32.02 C18.5,32.02 15.45,29.86 15.45,27.19 L15.45,23.11 C15.45,20.45 18.5,18.29 22.26,18.29 C26.03,18.29 29.08,20.45 29.08,23.11 L29.08,27.19 Z" id="Shape" fill="#DCDAC8"></path>
                    <path d="M29.08,30.66 C29.08,34.36 27.43,37.36 25.38,37.36 C23.38,37.36 21.68,34.36 21.68,30.66 L21.68,25 C21.68,21.3 23.34,18.3 25.38,18.3 C27.43,18.3 29.08,21.3 29.08,25 L29.08,30.66 Z" id="Shape" fill="#C0BEAE"></path>
                    <polygon id="Shape" fill="#D1ECFB" points="15.18 26.12 4.37 29.3 0.77 40.45 23.44 47.31 23.2 35.27 22.16 31.79 18.62 28.74"></polygon>
                    <polygon id="Shape" fill="#A6DAE9" points="23.32 35.27 21.69 31.89 18.48 29.13 13.32 33.28 14.24 26.48 15.3 24.16 22.16 31.49"></polygon>
                    <polygon id="Shape" fill="#D1ECFB" points="29.45 26.12 40.26 29.3 43.86 40.45 21.19 47.31 21.43 35.27 22.47 31.79 27.35 29"></polygon>
                    <path d="M16.06,17.54 C16.0737058,17.8137686 15.9744311,18.0811614 15.7853888,18.279656 C15.5963464,18.4781505 15.3341113,18.5903429 15.06,18.59 C14.7858887,18.5903429 14.5236536,18.4781505 14.3346112,18.279656 C14.1455689,18.0811614 14.0462942,17.8137686 14.06,17.54 L14.06,14.75 C14.06,14.1977153 14.5077153,13.75 15.06,13.75 C15.6122847,13.75 16.06,14.1977153 16.06,14.75 L16.06,17.54 Z" id="Shape" fill="#DCDAC8"></path>
                    <path d="M30.39,17.54 C30.4037058,17.8137686 30.3044311,18.0811614 30.1153888,18.279656 C29.9263464,18.4781505 29.6641113,18.5903429 29.39,18.59 C29.1073194,18.6045256 28.8317247,18.4985735 28.6315756,18.2984244 C28.4314265,18.0982753 28.3254744,17.8226806 28.34,17.54 L28.34,14.75 C28.3396571,14.4758887 28.4518495,14.2136536 28.650344,14.0246112 C28.8488386,13.8355689 29.1162314,13.7362942 29.39,13.75 C29.9422847,13.75 30.39,14.1977153 30.39,14.75 L30.39,17.54 Z" id="Shape" fill="#DCDAC8"></path>
                    <path d="M29.25,14 C28.9817649,11.8638765 28.9348494,9.70576235 29.11,7.56 C29.11,7.56 25.67,5.84 23.11,5.98 C22.7976406,6.00980204 22.4929794,6.09443014 22.21,6.23 C21.9274739,6.09322531 21.6225924,6.008536 21.31,5.98 C18.73,5.84 15.31,7.56 15.31,7.56 C15.4775647,9.70622513 15.4273083,11.8639039 15.16,14 C14.73,18.15 13.87,21.73 15.16,23 C16.45,24.27 18.74,27.16 22.04,27.3 L22.41,27.3 C25.7,27.16 27.99,24.3 29.28,23 C30.57,21.7 29.68,18.16 29.25,14 Z" id="Shape" fill="#F2EFDC"></path>
                    <path d="M29.11,7.57 C29.11,7.57 25.67,5.85 23.11,5.99 C22.8839903,6.01447418 22.6621269,6.06825923 22.45,6.15 L22.45,27.33 C25.72,27.15 27.99,24.33 29.27,23.03 C30.55,21.73 29.7,18.16 29.27,14.03 C28.9937183,11.8879704 28.9400988,9.72308059 29.11,7.57 Z" id="Shape" fill="#DCDAC8"></path>
                    <polygon id="Shape" fill="#0E303F" points="29.22 14.52 29.66 9.52 28.64 4.08 23.12 3.19 23.41 6.28 27.04 9.22"></polygon>
                    <polygon id="Shape" fill="#2C5871" points="15.1 13.65 12.95 5.92 23.4 0.76 23.4 6.2 20.97 11.64 20.97 8.06 18.73 13.47 19.96 8.35 17.31 13.91 15.81 10.36"></polygon>
                    <path d="M23.11,24.41 L21.97,24.47 L21.78,25.93 C20.0632677,25.3913121 18.7000556,24.0762569 18.1,22.38 L17.47,22.89 C17.47,24.22 17.53,26.75 18.93,27.2 C22.41,28.3 23.23,27.7 23.23,27.7 L23.55,26.94 L23.11,24.41 Z" id="Shape" fill="#2C5871"></path>
                    <path d="M21.9,24.41 L23.04,24.47 L23.23,25.93 C24.9467323,25.3913121 26.3099444,24.0762569 26.91,22.38 L27.54,22.89 C27.54,24.22 27.48,26.75 26.08,27.2 C22.6,28.3 22.16,27.7 22.16,27.7 L21.46,26.94 L21.9,24.41 Z" id="Shape" fill="#2C5871"></path>
                    <rect id="Rectangle-path" fill="#2C5871" transform="translate(19.841760, 21.031744) rotate(-11.860000) translate(-19.841760, -21.031744) " x="17.7467603" y="20.5317437" width="4.19" height="1"></rect>
                    <rect id="Rectangle-path" fill="#2C5871" transform="translate(24.975921, 20.800810) rotate(-78.130000) translate(-24.975921, -20.800810) " x="24.4759214" y="18.7058101" width="1" height="4.19"></rect>
                    <path d="M23.39,46.22 L23.39,31.22 L22.47,31.75 L21.47,35.23 L21.24,47.23 L23.39,46.58 C23.3969067,46.4600994 23.3969067,46.3399006 23.39,46.22 Z" id="Shape" fill="#FFFFFF"></path>
                    <polygon id="Shape" fill="#A6DAE9" points="21.34 35.5 22.94 31.89 26.11 29.93 29.17 32.39 29.89 26.28 29.5 24.29 22.47 31.49"></polygon>
                </g>
                <path d="M160.36,142.67 C160.36,122.235464 176.925464,105.67 197.36,105.67 C217.794536,105.67 234.36,122.235464 234.36,142.67 C234.36,163.104536 217.794536,179.67 197.36,179.67 C176.925464,179.67 160.36,163.104536 160.36,142.67 Z" id="Shape" fill="#6FC1D8"></path>
                <path d="M160.36,142.67 C160.36,122.235464 176.925464,105.67 197.36,105.67 C217.794536,105.67 234.36,122.235464 234.36,142.67 C234.36,163.104536 217.794536,179.67 197.36,179.67 C176.925464,179.67 160.36,163.104536 160.36,142.67 Z" id="Shape" fill="#EC8558"></path>
                <g id="Group" transform="translate(174.000000, 117.000000)">
                    <path d="M44.13,19.92 C44.13,30.64 34.96,39.34 23.65,39.34 C12.34,39.34 3.18,30.64 3.18,19.92 C3.18,9.2 12.34,0.5 23.65,0.5 C34.96,0.5 44.13,9.2 44.13,19.92 Z" id="Shape" fill="#0E303F"></path>
                    <path d="M23.5,64.14 C31.4610595,64.1718936 39.3732171,62.8948673 46.92,60.36 L45.22,45.49 C45.01,43.67 42.07,42.21 38.39,41.96 C28.5393088,40.1851351 18.4506912,40.1851351 8.6,41.96 C4.93,42.21 1.98,43.67 1.77,45.49 L0.08,60.36 C7.62638974,62.8964596 15.5388128,64.1735288 23.5,64.14 Z" id="Shape" fill="#2C5871"></path>
                    <path d="M34.51,41.81 C34.51,41.66 34.51,41.52 34.51,41.37 C27.2328276,40.086494 19.7871724,40.086494 12.51,41.37 C12.51,41.52 12.51,41.66 12.51,41.81 C12.51,46.71 17.44,54.96 23.51,54.96 C29.58,54.96 34.51,46.71 34.51,41.81 Z" id="Shape" fill="#F2EFDC"></path>
                    <path d="M29.56,37.54 C29.56,37.37 29.56,37.2 29.56,37.01 C25.6708724,35.4847066 21.3491276,35.4847066 17.46,37.01 C17.46,37.19 17.46,37.36 17.46,37.53 C17.46,43.38 20.18,48.11 23.53,48.11 C26.88,48.11 29.56,43.39 29.56,37.54 Z" id="Shape" fill="#F2EFDC"></path>
                    <path d="M29.56,33.63 C29.56,33.47 29.56,33.31 29.56,33.14 C25.6534221,31.7099695 21.3665779,31.7099695 17.46,33.14 C17.46,33.31 17.46,33.47 17.46,33.63 C17.46,39.12 20.18,43.57 23.53,43.57 C26.88,43.57 29.56,39.12 29.56,33.63 Z" id="Shape" fill="#DCDAC8"></path>
                    <path d="M25.07,36 L25.07,47.8 C27.65,46.59 29.56,42.49 29.56,37.59 C29.56,37.42 29.56,37.25 29.56,37.06 C28.1157194,36.51317 26.60635,36.1568378 25.07,36 Z" id="Shape" fill="#DCDAC8"></path>
                    <path d="M25.07,43.22 C27.01,42.37 28.56,39.98 29.22,36.9 C27.8821905,36.4000879 26.4886794,36.0643021 25.07,35.9 L25.07,43.22 Z" id="Shape" fill="#C0BEAE"></path>
                    <path d="M23.62,7.87 C16.51,7.35 9.88,14.64 11.75,25.6 C13.6,36.17 18.27,41.11 23.36,41.16 C28.45,41.21 33.19,36.32 35.21,25.79 C37.26,14.86 30.75,7.46 23.62,7.87 Z" id="Shape" fill="#F2EFDC"></path>
                    <path d="M23.62,7.87 C23.51,7.87 23.4,7.87 23.29,7.87 L23.29,41.15 L23.36,41.15 C28.46,41.15 33.19,36.31 35.21,25.78 C37.26,14.86 30.75,7.46 23.62,7.87 Z" id="Shape" fill="#DCDAC8"></path>
                    <path d="M23.16,5.39 C17.3,4.99 11.87,10.94 8.79,21.23 C9.1,21.79 8.07,23.91 8.41,24.43 L13.55,22.81 L15.99,15.22 C15.99,15.22 18.32,22.22 20.75,23.01 L19.63,18.56 C19.63,18.56 22.13,22.33 24.38,23.31 C28.38,25.03 36.53,24.83 36.53,24.83 C37.15,23.91 37.85,20.91 38.37,19.83 C34.73,9.85 29,4.43 23.16,5.39 Z" id="Shape" fill="#0E303F"></path>
                </g>
                <path d="M420.14,190.760004 L391.14,190.76 C388.163457,190.762656 385.308063,189.581406 383.203329,187.476671 C381.098594,185.371937 379.917344,182.516543 379.92,179.54 L379.92,175.8 C379.92,175.65 379.92,175.5 379.919996,175.34 L404.68,175.34 L420.14,190.760004 Z" id="Shape" fill="#E9D6B8"></path>
                <path d="M416,200.43 L397.17,181.59 C395.459805,179.877277 394.351032,177.656223 394.01,175.26 L412.66,175.26 L437.82,200.43 L416,200.43 Z" id="Shape" fill="#E9D6B8"></path>
                <path d="M385.39,60.36 C366.708478,30.2224425 329.342722,17.4736224 296.136249,29.9075185 C262.929775,42.3414146 243.126842,76.4965898 248.833951,111.492311 C254.541061,146.488033 284.169427,172.581941 319.605779,173.821552 C355.04213,175.061162 386.421441,151.101382 394.56,116.59 C399.130263,97.3739961 395.8286,77.1283556 385.39,60.36 Z M355.87,153.82 C329.97633,169.849897 296.364878,165.354766 275.593468,143.083971 C254.822058,120.813177 252.67671,86.9704026 270.469587,62.2549561 C288.262463,37.5395096 321.037235,28.8360493 348.747819,41.467886 C376.458402,54.0997228 391.385823,84.5481711 384.4,114.19 C380.536993,130.667683 370.270569,144.928404 355.87,153.82 Z" id="Shape" fill="#474F59"></path>
                <path d="M430.7,275.06 C423.57,279.45 413.31,275.77 407.76,266.83 L364.47,196.83 C358.94,187.83 360.23,177.09 367.32,172.68 C367.32,172.68 367.32,172.68 367.32,172.68 C374.45,168.29 384.72,171.96 390.25,180.91 L433.56,250.91 C439.08,259.83 437.79,270.64 430.69,275.04 L430.7,275.06 Z" id="Shape" fill="#D46F41"></path>
                <path d="M385.91,203 C378.79,207.42 371.7,208.85 370.07,206.21 L357.39,185.49 C355.77,182.83 360.22,177.12 367.31,172.71 C374.43,168.3 381.52,166.86 383.14,169.51 L395.83,190.24 C397.44,192.88 392.99,198.6 385.89,203 L385.91,203 Z" id="Shape" fill="#D46F41"></path>
                <path d="M288.36,45.18 C267.988612,56.7879753 255.595433,78.6062022 256.057783,102.048147 C256.520133,125.490092 269.763988,146.802675 290.577248,157.598358 C311.390508,168.394041 336.440948,166.944423 355.87,153.82 C376.241388,142.212025 388.634567,120.393798 388.172217,96.9518527 C387.709867,73.5099075 374.466012,52.1973247 353.652752,41.4016419 C332.839492,30.6059592 307.789052,32.0555769 288.36,45.18 Z" id="Shape" fill="#FFFFFF" opacity="0.2"></path>
                <path d="M284.43,139.61 C272.059479,119.564338 272.957454,94.046095 286.706424,74.9195647 C300.455395,55.7930344 324.357562,46.8111922 347.3,52.15 L347.39,52.15 C353.187235,53.5130489 358.741593,55.755701 363.86,58.8 C356.136506,50.818597 346.276332,45.2323229 335.46,42.71 L335.38,42.71 C307.380542,36.1898679 278.804859,51.0389535 268.047118,77.6989002 C257.289377,104.358847 267.556695,134.881743 292.24,149.62 C289.281582,146.57624 286.662862,143.219852 284.43,139.61 Z" id="Shape" fill="#FFFFFF" opacity="0.2"></path>
                <path d="M307.41,161.78 C273.698468,153.077199 253.12824,119.021988 261.113412,85.1333003 C269.098583,51.2446123 302.709431,29.9560564 336.76,37.22 L338.2,31.14 L338.07,31.14 C300.680273,23.1686071 263.782628,46.5682338 255.052094,83.7880208 C246.32156,121.007808 268.965564,158.37394 306,167.86 L307.43,161.78 L307.41,161.78 Z" id="Shape" fill="#596273"></path>
                <path d="M375.9,168.8 C372.993333,163.96 370.083333,159.106667 367.17,154.24 C365.86969,152.110187 363.775885,150.584803 361.35,150 C359.59,151.333333 357.76,152.6 355.86,153.8 C353.891402,155.018959 351.862117,156.137068 349.78,157.15 C349.207745,159.574755 349.629029,162.127667 350.95,164.24 C353.87,169.1 356.793333,173.98 359.72,178.88 C362.57,183.49 367.26,183.25 371.81,180.34 C376.44,177.49 378.74,173.37 375.9,168.8 Z" id="Shape" fill="#474F59"></path>
                <path d="M423.91,261.75 L375.6,183.75 C375.22,184.01 374.84,184.25 374.44,184.5 C371.969141,186.056629 369.315794,187.302695 366.54,188.21 L415.31,267 C417.87,271.13 421.88,273.31 424.23,271.86 C426.61,270.41 426.45,265.87 423.91,261.75 Z" id="Shape" fill="#EC8558"></path>
                <path d="M490,257.870004 L417,257.87 C413.447938,257.872656 410.040596,256.462781 407.528908,253.951092 C405.017219,251.439404 403.607344,248.032062 403.61,244.48 L403.61,222.72 C403.61,215.324907 409.604907,209.33 417,209.33 L490,209.33 L490,257.870004 Z" id="Shape" fill="#E9D6B8"></path>
                <rect id="Rectangle-path" fill="#FFFFFF" x="456.82" y="205.65" width="33.65" height="66.03"></rect>
                <rect id="Rectangle-path" fill="#596273" x="463.1" y="203.16" width="220.24" height="71"></rect>
                <rect id="Rectangle-path" fill="#474F59" x="463.1" y="203.16" width="5.29" height="71"></rect>
                <rect id="Rectangle-path" fill="#DCE4E7" x="456.82" y="238.7" width="6.28" height="32.98"></rect>
                <rect id="Rectangle-path" fill="#474F59" x="468.39" y="238.7" width="214.95" height="35.47"></rect>
                <path d="M478.76,266.55 C480.625411,266.544481 482.13367,265.028768 482.129993,263.163353 C482.126317,261.297938 480.612095,259.788182 478.746677,259.790016 C476.881259,259.791851 475.370008,261.304581 475.37,263.17 C475.369996,264.068167 475.727475,264.929402 476.363512,265.563563 C476.999549,266.197725 477.861837,266.552657 478.76,266.55 Z" id="Shape" fill="#103754"></path>
                <path d="M359.09,213.17 L371.2,213.17 C371.252943,211.937147 371.42033,210.71188 371.7,209.51 L358.84,209.51 C354.642636,209.51 351.24,206.107364 351.24,201.91 C351.24,197.712636 354.642636,194.31 358.84,194.31 L390,194.31 C390.29,194.31 390.57,194.31 390.86,194.31 L423,194.31 C433.873168,194.321 442.687962,203.126849 442.71,214 L442.71,246.08 C442.710006,256.968772 433.888767,265.798962 423,265.81 L374,265.81 C370.272659,265.772855 367.125515,263.031218 366.577808,259.344151 C366.0301,255.657083 368.244404,252.119012 371.8,251 C371.48313,249.77565 371.28884,248.522815 371.22,247.26 L366,247.26 C363.284781,247.26 360.775816,245.811448 359.418207,243.46 C358.060597,241.108552 358.060597,238.211448 359.418207,235.86 C360.775816,233.508552 363.284781,232.06 366,232.06 L371.15,232.06 L371.15,228.4 L359.09,228.4 C356.310839,228.500861 353.698516,227.075726 352.279001,224.684307 C350.859486,222.292888 350.859486,219.317112 352.279001,216.925693 C353.698516,214.534274 356.310839,213.109139 359.09,213.21 L359.09,213.17 Z" id="Shape" fill="#E9D6B8"></path>
                <circle id="Oval" fill="#EC8558" cx="601.03" cy="105.26" r="47.5"></circle>
                <g id="Group" transform="translate(565.000000, 70.000000)">
                    <path d="M53,36 C53,38.61 51.65,40.72 50,40.72 C48.34,40.72 47,38.61 47,36 L47,31.29 C47,28.68 48.35,26.57 50,26.57 C51.67,26.57 53,28.68 53,31.29 L53,36 Z" id="Shape" fill="#34322F"></path>
                    <path d="M33.41,89.14 C47.32,89.14 70.41,91.14 71.65,66.24 C65.89,59.88 52.12,55.4 36.05,55.4 C19.98,55.4 6.43,59.8 0.58,66.09 C-1.67,90.44 19.43,89.14 33.41,89.14 Z" id="Shape" fill="#DCE4E7"></path>
                    <path d="M47.17,58.22 C47.329637,61.2133183 46.2333871,64.1375456 44.1453357,66.2882385 C42.0572843,68.4389315 39.1667285,69.6211141 36.17,69.55 C33.1732715,69.6211141 30.2827157,68.4389315 28.1946643,66.2882385 C26.1066129,64.1375456 25.010363,61.2133183 25.17,58.22 C25.4233333,54.3 25.67,50.3766667 25.91,46.45 C26.35,40.45 30.91,35.89 36.16,35.88 C41.38,35.88 45.97,40.42 46.41,46.45 C46.67,50.37 46.9233333,54.2933333 47.17,58.22 Z" id="Shape" fill="#766C5F"></path>
                    <path d="M47.17,51 C47.329637,53.9933183 46.2333871,56.9175456 44.1453357,59.0682385 C42.0572843,61.2189315 39.1667285,62.4011141 36.17,62.33 C33.1732715,62.4011141 30.2827157,61.2189315 28.1946643,59.0682385 C26.1066129,56.9175456 25.010363,53.9933183 25.17,51 C25.4233333,47.08 25.67,43.1566667 25.91,39.23 C26.35,33.23 30.91,28.66 36.16,28.65 C41.38,28.65 45.97,33.2 46.41,39.23 C46.67,43.1633333 46.9233333,47.0866667 47.17,51 Z" id="Shape" fill="#34322F"></path>
                    <path d="M46.44,46.45 C46,40.45 41.44,35.95 36.29,35.88 C36.29,36.11 36.29,36.33 36.29,36.56 L36.29,67.38 C36.29,68.11 36.35,68.83 36.42,69.54 C39.3787625,69.5553396 42.2127897,68.3493687 44.2532485,66.2066978 C46.2937072,64.0640268 47.3598261,61.1744825 47.2,58.22 C46.94,54.3 46.6866667,50.3766667 46.44,46.45 Z" id="Shape" fill="#34322F"></path>
                    <path d="M24.59,36 C24.59,38.61 23.24,40.72 21.59,40.72 C19.92,40.72 18.59,38.61 18.59,36 L18.59,31.29 C18.59,28.68 19.94,26.57 21.59,26.57 C23.26,26.57 24.59,28.68 24.59,31.29 L24.59,36 Z" id="Shape" fill="#766C5F"></path>
                    <path d="M20,34.24 C19.9314055,35.8052154 21.1265968,37.1381425 22.69,37.24 C24.2548762,37.1381672 25.4529986,35.8069201 25.39,34.24 L25.39,26.18 C25.4812143,24.5940598 24.2752948,23.2318174 22.69,23.13 C21.1086937,23.2370478 19.9086341,24.5977102 20,26.18 L20,34.24 Z" id="Shape" fill="#333333"></path>
                    <path d="M47,34.24 C46.9370014,35.8069201 48.1351238,37.1381672 49.7,37.24 C51.2648762,37.1381672 52.4629986,35.8069201 52.4,34.24 L52.4,26.18 C52.4912143,24.5940598 51.2852948,23.2318174 49.7,23.13 C48.1147052,23.2318174 46.9087857,24.5940598 47,26.18 L47,34.24 Z" id="Shape" fill="#333333"></path>
                    <path d="M54.82,20 C54.82,31.05 46.48,40 36.19,40 C25.9,40 17.55,31 17.55,20 C17.55,9 25.9,0 36.19,0 C46.48,0 54.82,8.91 54.82,20 Z" id="Shape" fill="#333333"></path>
                    <path d="M51.63,43.08 C52.25,51.53 45.34,59 36.19,59 C27.03,59 20.12,51.53 20.75,43.08 L21.75,26.52 C22.37,18.05 28.82,11.67 36.17,11.66 C43.51,11.66 49.96,18.05 50.58,26.52 C50.9333333,32.04 51.2833333,37.56 51.63,43.08 Z" id="Shape" fill="#766C5F"></path>
                    <path d="M50.6,26.52 C49.98,18.1 43.6,11.76 36.33,11.67 C36.33,11.99 36.33,12.3 36.33,12.67 L36.33,56 C36.3383499,57.0027248 36.4017788,58.0042337 36.52,59 C45.52,58.85 52.29,51.46 51.67,43.1 C51.3033333,37.5666667 50.9466667,32.04 50.6,26.52 Z" id="Shape" fill="#564C41"></path>
                </g>
                <circle id="Oval" fill="#A4D8E7" cx="113.33" cy="117.95" r="30"></circle>
                <g id="Group" transform="translate(92.000000, 100.000000)">
                    <path d="M21.33,51.57 C28.549398,51.5993491 35.7247011,50.4440037 42.57,48.15 L41,34.68 C40.81,33.02 38.14,31.68 34.81,31.47 C25.8818867,29.8612982 16.7381133,29.8612982 7.81,31.47 C4.48,31.7 1.81,33.02 1.62,34.68 L0.1,48.15 C6.94185902,50.44398 14.113871,51.5993395 21.33,51.57 Z" id="Shape" fill="#93A8AB"></path>
                    <path d="M21.06,30.09 C17.8143062,30.1008279 14.5756092,30.3919091 11.38,30.96 C11.3998627,31.0925936 11.3998627,31.2274064 11.38,31.36 C7.23,42.25 19.08,42.54 21.09,45.36 L21.06,30.09 Z" id="Shape" fill="#F2EFDC"></path>
                    <path d="M20.91,30.09 C24.155673,30.1012753 27.3943315,30.3923531 30.59,30.96 C30.5701373,31.0925936 30.5701373,31.2274064 30.59,31.36 C34.74,42.25 22.89,42.54 20.88,45.36 L20.91,30.09 Z" id="Shape" fill="#F2EFDC"></path>
                    <path d="M8.72,19.34 C10.38,28.61 10.38,26.63 17.72,27.95 C22.39,28.8 26.33,22.09 26.33,14.87 C26.33,7.65 21.39,-0.25 16.89,1.29 C8.91,4 7.45,12.23 8.72,19.34 Z" id="Shape" fill="#78796C"></path>
                    <path d="M26.28,14.71 C26.2029835,10.505259 24.7367753,6.44417877 22.11,3.16 C21.1129274,2.45036798 19.8004287,2.36519107 18.72,2.94 C9.45,8.17 9.34,13.73 10.6,20.75 C10.8651475,22.7965118 11.3513196,24.8082587 12.05,26.75 C13.21,27.08 14.92,27.11 17.67,27.6 C22.34,28.45 26.28,21.83 26.28,14.71 Z" id="Shape" fill="#4F453C"></path>
                    <path d="M33.65,19.34 C32,28.61 32,26.63 24.71,27.95 C20.03,28.8 16.1,22.09 16.1,14.87 C16.1,7.65 21.41,-1.07 25.54,1.29 C34.81,6.59 34.92,12.23 33.65,19.34 Z" id="Shape" fill="#78796C"></path>
                    <path d="M32.12,21 C30.61,28.52 30.61,26.91 23.96,28 C19.69,28.68 16.1,23.24 16.1,17.38 C16.1,11.52 20.94,4.45 24.71,6.38 C33.18,10.64 33.28,15.21 32.12,21 Z" id="Shape" fill="#4F453C"></path>
                    <path d="M23.77,4.29 C21.84,3.19 19.65,4.57 17.89,7.08 C16.7580012,9.52743488 16.1483792,12.1838883 16.1,14.88 C16.1,21.96 19.93,28.54 24.5,27.71 C27.9,27.09 29.67,27.2 30.77,26.51 C31.06,25.43 31.34,23.98 31.69,22 C32.93,15 32.82,9.49 23.77,4.29 Z" id="Shape" fill="#4F453C"></path>
                    <path d="M26.83,26.78 C26.83,26.61 26.83,26.44 26.83,26.26 C23.316908,24.7591909 19.343092,24.7591909 15.83,26.26 C15.83,26.43 15.83,26.6 15.83,26.77 C15.83,32.5 18.29,37.15 21.32,37.15 C24.35,37.15 26.83,32.51 26.83,26.78 Z" id="Shape" fill="#F2EFDC"></path>
                    <path d="M26.83,26.78 C26.83,26.61 26.83,26.44 26.83,26.26 C25.7197799,25.7923973 24.5584965,25.4567662 23.37,25.26 C22.0590769,25.4907664 20.7953535,25.9367864 19.63,26.58 C19.63,26.8 19.63,27.03 19.63,27.26 C19.566178,30.6164662 20.136145,33.9548445 21.31,37.1 C24.37,37.16 26.83,32.51 26.83,26.78 Z" id="Shape" fill="#DCDAC8"></path>
                    <path d="M21.33,0.51 C14.88,0.1 8.93,6.51 10.7,16.14 C12.46,25.4 16.7,29.7 21.33,29.71 C25.96,29.72 30.21,25.4 31.97,16.14 C33.75,6.54 27.79,0.1 21.33,0.51 Z" id="Shape" fill="#DCDAC8"></path>
                    <path d="M12.72,19.13 C13.1,21.36 12.86,22.83 12.29,23.02 C11.72,23.21 10.9,22.09 10.29,19.94 C9.68,17.79 9.76,15.66 10.57,15.42 C11.38,15.18 12.35,16.89 12.72,19.13 Z" id="Shape" fill="#DCDAC8"></path>
                    <path d="M30,19.13 C29.62,21.36 29.86,22.83 30.43,23.02 C31,23.21 31.82,22.09 32.43,19.94 C33.04,17.79 32.96,15.66 32.14,15.42 C31.32,15.18 30.32,16.89 30,19.13 Z" id="Shape" fill="#DCDAC8"></path>
                    <path d="M30.3,17.53 C28.73,25.07 24.93,28.53 20.8,28.53 C16.67,28.53 12.89,25.03 11.32,17.53 C9.74,9.71 15.05,4.46 20.8,4.79 C26.56,4.46 31.88,9.71 30.3,17.53 Z" id="Shape" fill="#F2EFDC"></path>
                    <path d="M33,9.42 C31.8429859,4.32449891 27.3830941,0.658665316 22.16,0.51 C21.7674218,1.82754638 21.5686724,3.19521115 21.57,4.57 C21.57,9.83 30.37,9.37 32.17,15.42 C32.17,15.42 33.55,14.09 33,9.42 Z" id="Shape" fill="#4F453C"></path>
                    <path d="M21.34,4.47 C15.89,4.16 10.86,8.9 11.7,16.13 C13.8051549,16.7232398 15.9828737,17.0194365 18.17,17.01 C19.0953979,17.0113056 20.0201545,16.9612286 20.94,16.86 L21.18,16.45 L23.29,12.92 L22.18,16.69 L22.84,16.56 L23.41,15.56 L26.29,10.56 L28.29,14.48 C29.2388877,13.9719528 30.1249364,13.3544037 30.93,12.64 C30.3547252,7.83159114 26.1787288,4.27393832 21.34,4.47 Z" id="Shape" fill="#78796C"></path>
                    <path d="M9.67,16.29 C10.7801792,16.5076273 11.9086928,16.6181345 13.04,16.62 C21.16,16.62 27.74,11.42 27.74,5 C27.7357235,3.86911437 27.5291349,2.74811715 27.13,1.69 C25.3524995,0.722435155 23.3407256,0.268833823 21.32,0.38 C14.25,-2.22044605e-16 7.72,6.55 9.67,16.29 Z" id="Shape" fill="#78796C"></path>
                    <path d="M27.65,6.51 C27.2841145,7.87025978 26.8332284,9.20621845 26.3,10.51 L28.39,14.44 C29.3912071,13.928801 30.3306478,13.304744 31.19,12.58 C30.7928043,10.1915536 29.5332396,8.03179151 27.65,6.51 Z" id="Shape" fill="#4F453C"></path>
                    <path d="M28.63,8 C30.6545759,9.83856313 32.0032961,12.3035869 32.46,15 C32.83,14.31 33.39,12.67 33,9.42 C32.2542286,6.26843091 30.2479839,3.56090428 27.45,1.93 C27.69,2.59 28.79,3.93 28.88,4.62 C29.000159,5.75254039 28.9154755,6.89746216 28.63,8 Z" id="Shape" fill="#78796C"></path>
                    <path d="M32.36,24.45 C32.53,23.61 32.71,22.65 32.92,21.45 C33.92,15.57 34.06,10.71 28.85,6.21 C28.7042436,6.42222689 28.570694,6.64258378 28.45,6.87 C33.55,11.34 33.78,14.97 32.65,21.87 C32.45,23.14 32.19,24.7 32.36,24.45 Z" id="Shape" fill="#4F453C"></path>
                </g>
                <rect id="Rectangle-path" fill="#5F9CA4" x="160.36" y="191.17" width="55" height="3"></rect>
                <rect id="Rectangle-path" fill="#5F9CA4" x="160.36" y="201.67" width="67" height="2"></rect>
                <rect id="Rectangle-path" fill="#5F9CA4" x="160.36" y="211.67" width="64" height="2"></rect>
                <rect id="Rectangle-path" fill="#5F9CA4" x="160.36" y="221.67" width="53" height="2"></rect>
                <rect id="Rectangle-path" fill="#5F9CA4" x="160.36" y="231.67" width="67" height="2"></rect>
                <rect id="Rectangle-path" fill="#5F9CA4" x="160.36" y="241.67" width="61" height="2"></rect>
                <rect id="Rectangle-path" fill="#5F9CA4" x="160.36" y="251.67" width="67" height="2"></rect>
                <rect id="Rectangle-path" fill="#5F9CA4" x="160.36" y="31.83" width="55" height="3"></rect>
                <rect id="Rectangle-path" fill="#5F9CA4" x="160.36" y="42.33" width="67" height="2"></rect>
                <rect id="Rectangle-path" fill="#5F9CA4" x="160.36" y="52.33" width="64" height="2"></rect>
                <rect id="Rectangle-path" fill="#5F9CA4" x="160.36" y="62.33" width="53" height="2"></rect>
                <rect id="Rectangle-path" fill="#5F9CA4" x="160.36" y="72.33" width="67" height="2"></rect>
                <rect id="Rectangle-path" fill="#5F9CA4" x="160.36" y="82.33" width="61" height="2"></rect>
                <rect id="Rectangle-path" fill="#5F9CA4" x="160.36" y="92.33" width="67" height="2"></rect>
                <rect id="Rectangle-path" fill="#5F9CA4" x="83.33" y="158.17" width="55" height="3"></rect>
                <rect id="Rectangle-path" fill="#5F9CA4" x="83.33" y="168.67" width="67" height="2"></rect>
                <rect id="Rectangle-path" fill="#5F9CA4" x="83.33" y="178.67" width="64" height="2"></rect>
                <rect id="Rectangle-path" fill="#5F9CA4" x="83.33" y="188.67" width="53" height="2"></rect>
                <rect id="Rectangle-path" fill="#5F9CA4" x="83.33" y="198.67" width="67" height="2"></rect>
                <rect id="Rectangle-path" fill="#5F9CA4" x="83.33" y="208.67" width="61" height="2"></rect>
                <rect id="Rectangle-path" fill="#5F9CA4" x="83.33" y="218.67" width="67" height="2"></rect>
                <rect id="Rectangle-path" fill="#5F9CA4" x="0" y="78.17" width="55" height="3"></rect>
                <rect id="Rectangle-path" fill="#5F9CA4" x="0" y="88.67" width="67" height="2"></rect>
                <rect id="Rectangle-path" fill="#5F9CA4" x="0" y="98.67" width="64" height="2"></rect>
                <rect id="Rectangle-path" fill="#5F9CA4" x="0" y="108.67" width="53" height="2"></rect>
                <rect id="Rectangle-path" fill="#5F9CA4" x="0" y="118.67" width="67" height="2"></rect>
                <rect id="Rectangle-path" fill="#5F9CA4" x="0" y="128.67" width="61" height="2"></rect>
                <rect id="Rectangle-path" fill="#5F9CA4" x="0" y="138.67" width="67" height="2"></rect>
                <rect id="Rectangle-path" fill="#5F9CA4" x="83.33" y="21.33" width="67" height="2"></rect>
                <rect id="Rectangle-path" fill="#5F9CA4" x="83.33" y="31.33" width="64" height="2"></rect>
                <rect id="Rectangle-path" fill="#5F9CA4" x="83.33" y="0" width="67" height="2"></rect>
                <rect id="Rectangle-path" fill="#5F9CA4" x="83.33" y="10" width="64" height="2"></rect>
                <rect id="Rectangle-path" fill="#5F9CA4" x="83.33" y="41.33" width="53" height="2"></rect>
                <rect id="Rectangle-path" fill="#5F9CA4" x="83.33" y="51.33" width="67" height="2"></rect>
                <rect id="Rectangle-path" fill="#5F9CA4" x="83.33" y="61.33" width="61" height="2"></rect>
                <rect id="Rectangle-path" fill="#5F9CA4" x="83.33" y="71.33" width="67" height="2"></rect>
                <rect id="Rectangle-path" fill="#5F9CA4" x="470.05" y="40.33" width="67" height="2"></rect>
                <rect id="Rectangle-path" fill="#5F9CA4" x="470.05" y="50.33" width="64" height="2"></rect>
                <rect id="Rectangle-path" fill="#5F9CA4" x="470.05" y="19" width="67" height="2"></rect>
                <rect id="Rectangle-path" fill="#5F9CA4" x="470.05" y="29" width="64" height="2"></rect>
                <rect id="Rectangle-path" fill="#5F9CA4" x="470.05" y="60.33" width="53" height="2"></rect>
                <rect id="Rectangle-path" fill="#5F9CA4" x="470.05" y="70.33" width="67" height="2"></rect>
                <rect id="Rectangle-path" fill="#5F9CA4" x="470.05" y="80.33" width="61" height="2"></rect>
                <rect id="Rectangle-path" fill="#5F9CA4" x="470.05" y="90.33" width="67" height="2"></rect>
            </g>
        </g>
    </g>
</svg>